<svg width="206" height="195" viewBox="0 0 206 195" fill="none" xmlns="http://www.w3.org/2000/svg">
<g id="Frame">
<g id="Box">
<g id="Box_2">
<g id="Box_3">
<g id="Box_4">
<path id="Vector" d="M101.487 183.772V137.272L52.4604 109.062V155.556L101.487 183.772Z" fill="#FF5740"/>
<path id="Vector_2" d="M101.487 137.272L150.514 108.936V155.435L101.487 183.771V137.272Z" fill="#FF5740"/>
<path id="Vector_3" opacity="0.15" d="M101.487 137.272L150.514 108.936V155.435L101.487 183.771V137.272Z" fill="white"/>
<path id="Vector_4" d="M101.487 137.272L51.1816 108.311L101.487 79.2285L151.793 108.194L101.487 137.272Z" fill="#FF5740"/>
<path id="Vector_5" opacity="0.3" d="M101.487 137.272L51.1816 108.311L101.487 79.2285L151.793 108.194L101.487 137.272Z" fill="white"/>
<path id="Vector_6" d="M101.487 137.272V145.577L51.1816 116.624V108.311L101.487 137.272Z" fill="#FF5740"/>
<path id="Vector_7" d="M151.793 108.194L101.487 137.273V145.578L151.793 116.504V108.194Z" fill="#FF5740"/>
<path id="Vector_8" opacity="0.15" d="M151.793 108.194L101.487 137.273V145.578L151.793 116.504V108.194Z" fill="white"/>
<path id="Vector_9" opacity="0.1" d="M52.4604 117.362V119.187L101.487 147.403V145.577L52.4604 117.362ZM150.519 117.24L101.487 145.577V147.403L150.514 119.066V117.24H150.519Z" fill="#1C1C1C"/>
</g>
</g>
<g id="Group">
<path id="Vector_10" d="M83.5889 114.708L90.2992 118.585L119.386 101.793L112.676 97.9199L83.5889 114.708Z" fill="#FF5740"/>
<path id="Vector_11" opacity="0.2" d="M117.709 102.764L119.386 101.793L112.676 97.9199L112.684 99.8715L117.709 102.764Z" fill="#1C1C1C"/>
<path id="Vector_12" opacity="0.1" d="M85.2664 115.679L112.676 99.8585V97.9199L83.5889 114.708L85.2664 115.679Z" fill="#1C1C1C"/>
</g>
<g id="Group_2">
<path id="Vector_13" d="M111.943 164.187L108.774 154.182L111.193 152.785L112.563 157.608C113.109 159.508 113.321 160.297 113.334 160.34L113.373 160.318C113.386 160.262 113.603 159.221 114.132 156.749L115.515 150.287L117.821 148.956L114.652 162.621L111.938 164.187H111.943Z" fill="#FAFAFA"/>
<path id="Vector_14" d="M122.615 145.951C125.329 144.385 127.293 145.786 127.293 149.403C127.293 153.02 125.329 156.693 122.615 158.258C119.902 159.824 117.938 158.423 117.938 154.806C117.938 151.189 119.902 147.516 122.615 145.951ZM122.615 155.57C124.085 154.72 125.151 152.755 125.151 150.639C125.151 148.522 124.089 147.772 122.615 148.622C121.146 149.472 120.079 151.437 120.079 153.57C120.079 155.704 121.146 156.42 122.615 155.57Z" fill="#FAFAFA"/>
<path id="Vector_15" d="M132.577 143.066V152.264L130.448 153.496V144.297L127.735 145.863V143.226L135.286 138.863V141.5L132.573 143.066H132.577Z" fill="#FAFAFA"/>
<path id="Vector_16" d="M136.392 138.226L142.855 134.492V137.129L138.52 139.631V141.661L141.715 139.818V142.186L138.52 144.029V146.193L142.92 143.652V146.288L136.392 150.057V138.222V138.226Z" fill="#FAFAFA"/>
</g>
</g>
</g>
<g id="Hand 1">
<g id="Hand">
<g id="Group_3">
<path id="Vector_17" d="M82.4358 10.5513L84.9716 6.11908L75.4567 0.589657C75.4567 0.589657 75.4523 0.589657 75.448 0.58532H75.4393V0.580983C73.8441 -0.329746 71.6464 -0.195305 69.2188 1.20548C64.3465 4.02007 60.3975 10.8635 60.3975 16.4927C60.3975 19.3116 61.3901 21.2936 62.9897 22.213L72.5827 27.7857L75.1879 23.2321C78.9202 20.3525 81.8592 15.222 82.4358 10.56V10.5513Z" fill="#455A64"/>
<path id="Vector_18" d="M78.7945 6.77012C73.9222 9.5847 69.9731 16.4282 69.9731 22.0573C69.9731 27.6865 73.9222 29.9677 78.7945 27.1531C83.6669 24.3385 87.6159 17.495 87.6159 11.8659C87.6159 6.23669 83.6669 3.95553 78.7945 6.77012Z" fill="#00657C"/>
<path id="Vector_19" d="M87.755 13.4008L90.1565 9.19845L85.4055 6.45326C85.4055 6.45326 85.4012 6.45326 85.3969 6.44892H85.3882V6.44458C83.8753 5.58156 81.7946 5.70733 79.4928 7.03873C74.8762 9.70586 71.1353 16.1894 71.1353 21.5236C71.1353 24.1951 72.0759 26.073 73.5931 26.9447L78.4178 29.7332L80.8886 25.4181C84.4259 22.6902 87.2131 17.8287 87.7593 13.4095L87.755 13.4008Z" fill="#F5F5F5"/>
<path id="Vector_20" d="M71.404 18.9385C71.2306 19.8145 71.1353 20.6819 71.1353 21.5232C71.1353 24.1947 72.0759 26.0725 73.5931 26.9442L78.4178 29.7328L80.8886 25.4177C81.127 25.2312 81.3655 25.036 81.5952 24.8322L71.404 18.9472V18.9385Z" fill="#EBEBEB"/>
<path id="Vector_21" d="M84.3043 9.81379C79.6877 12.4809 75.9468 18.9644 75.9468 24.2987C75.9468 29.633 79.6877 31.7927 84.3043 29.1256C88.9209 26.4584 92.6619 19.9749 92.6619 14.6407C92.6619 9.30639 88.9209 7.14666 84.3043 9.81379Z" fill="#E0E0E0"/>
</g>
<g id="Hand_2">
<g id="Hand_3">
<g id="Group_4">
<path id="Vector_22" d="M115.316 34.599C116.04 36.6764 115.342 37.6001 114.635 38.3417L110.266 41.7981C110.266 41.7981 102.866 38.5238 100.564 38.281C99.5802 38.1769 97.4302 37.9384 97.4908 39.4649C97.5082 39.8856 97.6989 40.2846 97.8983 40.6532L90.7849 43.6326C88.9686 41.6507 88.5134 41.1389 86.9485 39.3565C84.9242 37.045 84.8418 35.9261 84.1092 33.3414C83.6714 31.8018 83.2206 30.7133 82.7004 29.8806C81.9505 28.6533 81.0618 27.9767 79.9131 27.2438C78.799 26.5326 77.4682 25.7346 75.9554 24.8499C75.9467 24.6764 75.9424 24.49 75.9424 24.3078C75.9424 18.9735 79.6877 12.4857 84.3043 9.81855C85.1279 9.34151 85.9255 9.02058 86.6798 8.84277C88.7778 10.3997 96.5892 16.0852 99.4935 17.8156C101.483 19.0039 106.338 21.3935 108.298 22.0917C110.673 22.9374 111.57 22.9764 112.615 25.431C113.668 27.8987 114.665 29.5814 115.515 31.1166C116.36 32.6475 115.793 34.0353 115.316 34.6034V34.599Z" fill="#FFA8A7"/>
<path id="Vector_23" d="M110.101 25.3096C109.914 25.0538 109.667 24.8716 109.407 24.6938C109.264 24.5984 109.126 24.4986 108.982 24.4076C108.813 24.2991 108.649 24.1777 108.471 24.091C108.436 24.0736 108.441 24.1344 108.458 24.1474C108.935 24.6287 109.576 24.9063 109.971 25.4744C110.136 25.7129 110.253 25.9775 110.374 26.2377C110.53 26.5716 110.686 26.8969 110.851 27.2222C110.864 27.2482 110.881 27.2222 110.877 27.2005C110.703 26.5456 110.508 25.8647 110.101 25.3096Z" fill="#F28F8F"/>
<path id="Vector_24" d="M115.311 34.5949C115.415 34.4691 115.524 34.3043 115.623 34.1092C115.125 33.0597 113.941 31.1905 112.988 28.8486C113.655 30.7135 114.215 31.6502 115.311 34.5949Z" fill="#F28F8F"/>
<path id="Vector_25" d="M111.687 25.2534C111.666 25.106 111.631 24.9628 111.575 24.8197C111.475 24.5682 111.349 24.3297 111.163 24.1345C110.959 23.909 110.695 23.7659 110.43 23.6271C110.136 23.4797 109.832 23.3452 109.511 23.2715C109.507 23.2715 109.503 23.2845 109.511 23.2845C109.78 23.4406 110.058 23.5794 110.331 23.7312C110.578 23.87 110.829 24.0218 111.016 24.2429C111.349 24.6376 111.471 25.1623 111.696 25.6177C111.709 25.6437 111.735 25.6394 111.735 25.609C111.735 25.4876 111.709 25.3705 111.692 25.2491L111.687 25.2534Z" fill="#F28F8F"/>
<path id="Vector_26" d="M115.19 37.656C115.108 36.5632 114.54 35.8563 113.942 34.4988C113.196 32.7945 111.54 29.5332 110.981 27.625C111.172 29.338 112.316 35.2751 113.148 39.5122L114.631 38.3412C114.826 38.1374 115.021 37.9162 115.186 37.6604L115.19 37.656Z" fill="#F28F8F"/>
<path id="Vector_27" d="M97.7426 40.4188C97.6732 40.1976 97.5432 39.9895 97.4348 39.7813C97.3264 39.5775 97.2354 39.3606 97.1444 39.1481C96.9753 38.7448 96.8236 38.3415 96.7065 37.9208C96.5895 37.4958 96.5115 37.0578 96.4985 36.6198C96.4898 36.4029 96.4985 36.1904 96.5115 35.9736C96.5201 35.8608 96.5375 35.7481 96.5505 35.6353C96.5635 35.5486 96.5852 35.4575 96.5938 35.3708C96.5982 35.3057 96.5938 35.2407 96.6068 35.1756C96.6112 35.1366 96.5418 35.0455 96.5115 35.1062C96.4638 35.206 96.4118 35.3014 96.3858 35.4098C96.3597 35.5052 96.3381 35.6006 96.3251 35.696C96.2947 35.8869 96.2731 36.0777 96.2687 36.2685C96.26 36.6241 96.2861 36.9841 96.3467 37.3397C96.4638 38.0423 96.7152 38.7145 97.0403 39.3433C97.1357 39.5254 97.2397 39.7033 97.3394 39.8811C97.4521 40.0762 97.5692 40.2844 97.7209 40.4492C97.7382 40.4709 97.7512 40.4362 97.7469 40.4188H97.7426Z" fill="#F28F8F"/>
<path id="Vector_28" d="M111.289 39.0577L106.811 30.5879C106.811 30.5879 102.233 31.9019 100.066 33.1032C97.8983 34.3045 96.8753 38.4679 97.7119 40.4454L97.7986 40.4628C97.6339 40.1419 97.4995 39.8079 97.4822 39.4523C97.4215 37.9301 99.5715 38.1643 100.556 38.2684C102.862 38.5112 110.257 41.7855 110.257 41.7855L111.345 40.9268L111.284 39.049L111.289 39.0577Z" fill="#F28F8F"/>
</g>
<g id="Group_5">
<g id="Group_6">
<path id="Vector_29" d="M107.773 23.8042C110.37 24.9491 110.678 26.3759 111.133 28.2234C111.592 30.0709 113.348 34.0044 114.037 35.7824C114.726 37.5605 114.878 38.0159 114.189 40.4228C113.5 42.8298 111.549 47.5439 111.549 47.5439C111.549 47.5439 105.706 29.0431 105.324 27.1479C104.943 25.2527 105.172 23.1146 107.769 23.8042H107.773Z" fill="#FFA8A7"/>
<path id="Vector_30" d="M113.608 39.1824C113.608 39.1824 113.6 39.1998 113.604 39.2128C113.686 39.2388 113.812 39.1824 113.894 39.1694C113.999 39.1478 114.103 39.1304 114.211 39.1131C114.311 39.0957 114.419 39.0914 114.523 39.0827C114.536 39.0133 114.549 38.9483 114.558 38.8832C114.293 38.9136 114.029 38.9743 113.782 39.0654C113.717 39.0914 113.643 39.1217 113.608 39.1824ZM113.595 37.9248C113.86 37.8337 114.12 37.747 114.397 37.7123C114.471 37.7036 114.54 37.6993 114.614 37.6949C114.605 37.6255 114.597 37.5518 114.584 37.4824C114.506 37.4868 114.428 37.4954 114.35 37.5041C114.059 37.5431 113.76 37.6255 113.509 37.7773C113.426 37.8294 113.517 37.9465 113.595 37.9204V37.9248ZM114.467 38.2023C114.302 38.2067 114.133 38.2284 113.973 38.2544C113.647 38.3108 113.301 38.4062 113.014 38.5796C112.941 38.623 113.036 38.7184 113.101 38.6967C113.387 38.597 113.66 38.4972 113.959 38.4409C114.103 38.4148 114.246 38.3975 114.389 38.3888C114.462 38.3888 114.545 38.3888 114.623 38.3888C114.627 38.3238 114.631 38.263 114.631 38.198C114.575 38.198 114.519 38.198 114.467 38.198V38.2023Z" fill="#F28F8F"/>
<path id="Vector_31" d="M111.913 35.362C111.159 33.9525 109.802 30.8908 109.148 28.9479L106.811 28.2236L106.04 29.7155C107.687 35.3013 111.553 47.5484 111.553 47.5484C111.553 47.5484 111.844 46.8502 112.238 45.8527C112.238 45.8527 112.759 41.5246 112.997 39.5904C113.231 37.6518 112.668 36.7758 111.913 35.3663V35.362Z" fill="#F28F8F"/>
</g>
<g id="Group_7">
<path id="Vector_32" d="M103.494 45.987C103.351 45.8873 103.204 45.7919 103.065 45.6878C101.132 44.2697 99.0729 42.8038 97.8981 40.6484L90.7847 43.6235C92.5966 45.6097 93.5026 46.36 94.6557 47.4052C95.8087 48.4503 99.3113 49.8858 101.6 51.0351C103.863 52.167 104.834 52.7481 105.406 52.4272C106.052 52.0629 106.876 48.2855 103.494 45.987Z" fill="#FFA8A7"/>
<g id="Group_8">
<path id="Vector_33" d="M95.28 47.8735C95.306 47.7911 95.3277 47.7087 95.3581 47.6307C95.4187 47.4615 95.4924 47.3011 95.5705 47.1406C95.6485 46.9845 95.7699 46.8283 95.8132 46.6549C95.8219 46.6158 95.7655 46.5465 95.7265 46.5768C95.5705 46.6982 95.4664 46.8891 95.3754 47.0582C95.2757 47.2403 95.189 47.4355 95.1196 47.6307C95.1066 47.6653 95.098 47.7044 95.085 47.7391C95.1456 47.7824 95.2107 47.8258 95.28 47.8692V47.8735Z" fill="#F28F8F"/>
<path id="Vector_34" d="M96.0257 48.2509C96.1037 47.969 96.199 47.6958 96.3291 47.4355C96.4375 47.2144 96.5718 47.0062 96.7279 46.8154C96.8363 46.6809 96.9576 46.5595 97.092 46.4468C97.2004 46.36 97.3131 46.282 97.4128 46.1822C97.4388 46.1562 97.3998 46.0868 97.3651 46.0955C97.0877 46.1649 96.8449 46.36 96.6455 46.5552C96.4331 46.7633 96.2597 47.0062 96.1167 47.2621C95.9606 47.544 95.8479 47.8475 95.7612 48.1598C95.8436 48.2075 95.9303 48.2552 96.017 48.3072C96.0213 48.2856 96.0257 48.2682 96.03 48.2465L96.0257 48.2509Z" fill="#F28F8F"/>
<path id="Vector_35" d="M96.8055 48.1898C96.8836 47.9773 96.9746 47.7648 97.0873 47.5609C97.135 47.4742 97.187 47.3918 97.239 47.3094C97.2911 47.2313 97.3734 47.1533 97.3907 47.0535C97.3994 47.0145 97.3431 46.9494 97.2997 46.9711C97.1047 47.0752 96.9659 47.3181 96.8532 47.5002C96.7319 47.6954 96.6365 47.8992 96.5498 48.1117C96.4978 48.2461 96.4501 48.3849 96.4067 48.5237C96.4848 48.5671 96.5671 48.6104 96.6495 48.6538C96.6972 48.4977 96.7492 48.3415 96.8055 48.1854V48.1898Z" fill="#F28F8F"/>
</g>
<path id="Vector_36" d="M100.625 50.5626C100.837 49.305 101.605 48.7021 101.605 48.7021C101.605 48.7021 103.239 49.3874 103.937 50.0162C104.635 50.6494 105.172 52.0285 104.739 52.4752C103.737 52.4752 102.394 51.4907 100.629 50.5626H100.625Z" fill="#FFC4C3"/>
<path id="Vector_37" opacity="0.3" d="M100.625 50.5626C100.829 50.6711 101.028 50.7795 101.223 50.8879C101.388 50.2938 101.6 49.396 101.6 48.7021C101.6 48.7021 100.837 49.305 100.621 50.5626H100.625Z" fill="white"/>
</g>
<g id="Group_9">
<path id="Vector_38" d="M103.629 34.5251C104.773 36.3942 106.533 39.7726 106.551 40.2106C106.668 42.6739 106.525 45.2456 106.525 47.9084C106.525 50.5712 106.503 52.5141 107.669 54.2792C108.727 55.8751 110.66 56.3132 110.942 54.5698C111.185 53.0779 111.332 50.0421 111.549 47.5485C111.765 45.0548 112.338 41.4379 112.481 39.417C112.624 37.396 111.306 35.4141 110.409 32.8034C109.633 30.5309 108.974 27.6642 107.76 26.4499C106.546 25.2313 101.938 22.9501 100.265 22.0654L103.629 34.5251Z" fill="#FFA8A7"/>
<g id="Group_10">
<g id="Group_11">
<path id="Vector_39" d="M112.355 39.5774C112.212 39.586 112.069 39.586 111.921 39.5774C111.614 39.56 111.328 39.482 111.033 39.4169C110.959 39.3996 110.976 39.508 111.02 39.534C111.297 39.6815 111.644 39.7292 111.952 39.7508C112.112 39.7595 112.277 39.7595 112.437 39.7422C112.442 39.7422 112.446 39.7422 112.45 39.7422C112.455 39.6815 112.459 39.6207 112.463 39.5644C112.424 39.5687 112.385 39.573 112.351 39.5774H112.355Z" fill="#F28F8F"/>
<path id="Vector_40" d="M110.638 37.7694C110.59 37.7954 110.651 37.8821 110.694 37.8691C111.046 37.7867 111.405 37.7477 111.765 37.8084C111.921 37.8344 112.077 37.8821 112.225 37.9428C112.272 37.9602 112.316 37.9862 112.363 38.0079C112.346 37.9255 112.329 37.8474 112.307 37.765C112.147 37.7 111.982 37.6523 111.813 37.6263C111.427 37.5655 110.993 37.5872 110.638 37.765V37.7694Z" fill="#F28F8F"/>
<path id="Vector_41" d="M111.323 38.4201C111.041 38.4114 110.755 38.4287 110.478 38.4895C110.244 38.5415 109.901 38.6022 109.745 38.806C109.737 38.8147 109.745 38.8407 109.754 38.8407C109.884 38.8494 110.014 38.8017 110.14 38.7713C110.274 38.741 110.409 38.7063 110.547 38.6889C110.803 38.6499 111.063 38.6369 111.319 38.6543C111.57 38.6716 111.822 38.7106 112.064 38.78C112.212 38.8234 112.351 38.8798 112.489 38.9405C112.489 38.8451 112.481 38.7453 112.472 38.6499C112.368 38.6109 112.264 38.5805 112.16 38.5502C111.887 38.4764 111.605 38.4331 111.323 38.4244V38.4201Z" fill="#F28F8F"/>
</g>
<g id="Group_12">
<path id="Vector_42" d="M111.406 48.9717C111.306 48.9414 111.206 48.911 111.107 48.885C110.903 48.8286 110.695 48.7809 110.487 48.7419C110.444 48.7332 110.392 48.7592 110.387 48.8069C110.387 48.859 110.435 48.8937 110.478 48.9023C110.669 48.937 110.86 48.9804 111.05 49.0325C111.141 49.0585 111.233 49.0845 111.328 49.1105C111.363 49.1192 111.393 49.1322 111.428 49.1409C111.428 49.0845 111.436 49.0325 111.441 48.9761C111.432 48.9761 111.419 48.9674 111.41 48.9674L111.406 48.9717Z" fill="#F28F8F"/>
<path id="Vector_43" d="M110.781 48.2904C110.994 48.3511 111.202 48.4292 111.406 48.5159C111.427 48.5246 111.449 48.5376 111.471 48.5463C111.475 48.4725 111.484 48.3988 111.488 48.3251C111.479 48.3251 111.475 48.3164 111.466 48.3164C111.25 48.2297 111.029 48.1559 110.803 48.0996C110.578 48.0432 110.357 47.9998 110.127 47.9695C109.893 47.9391 109.628 47.9044 109.399 47.9564C109.355 47.9651 109.377 48.0388 109.412 48.0432C109.65 48.0909 109.893 48.1039 110.131 48.1429C110.348 48.182 110.569 48.2297 110.781 48.2904Z" fill="#F28F8F"/>
<path id="Vector_44" d="M110.43 47.7009C110.725 47.766 111.02 47.8484 111.306 47.9481C111.375 47.9741 111.445 48.0002 111.51 48.0262C111.514 47.9655 111.518 47.9048 111.523 47.844C111.475 47.8267 111.427 47.805 111.38 47.792C111.063 47.6879 110.747 47.6185 110.417 47.5752C110.331 47.5622 110.365 47.6879 110.426 47.7009H110.43Z" fill="#F28F8F"/>
</g>
</g>
<path id="Vector_45" d="M111.289 51.022C110.192 49.9595 109.035 50.3411 109.035 50.3411C109.035 50.3411 108.8 51.7853 108.883 53.0516C108.961 54.318 109.797 54.9381 110.439 55.0465C111.081 55.155 111.167 53.906 111.293 51.022H111.289Z" fill="#FFC4C3"/>
<path id="Vector_46" opacity="0.3" d="M111.267 51.4865C111.275 51.3347 111.28 51.1829 111.288 51.0181C110.192 49.9556 109.034 50.3372 109.034 50.3372C109.26 50.7275 110.473 51.4127 111.267 51.4865Z" fill="white"/>
<path id="Vector_47" d="M108.38 26.7841C107.873 26.0902 107.11 25.6826 106.36 25.3009C105.94 25.0884 105.519 24.8716 105.129 24.607C105.107 24.5897 105.099 24.6417 105.112 24.6504C105.705 25.1752 106.416 25.5394 107.071 25.9818C107.383 26.19 107.682 26.4285 107.934 26.7147C108.233 27.053 108.462 27.4563 108.644 27.8683C108.844 28.3193 109.009 28.7834 109.186 29.2431C109.199 29.2778 109.23 29.2561 109.225 29.2257C109.121 28.3757 108.887 27.4823 108.376 26.7798L108.38 26.7841Z" fill="#F28F8F"/>
</g>
</g>
</g>
<g id="Group_13">
<path id="Vector_48" d="M121.909 75.8508C113.14 79.7972 104.366 83.7481 95.5966 87.6946C90.3384 76.3365 86.6928 64.8526 84.313 52.5665C93.0824 48.62 101.856 44.6691 110.625 40.7227C113.005 53.0088 116.655 64.4927 121.909 75.8508Z" fill="#FAFAFA" stroke="#FF5740" stroke-width="0.659942" stroke-miterlimit="10"/>
<path id="Vector_49" d="M100.886 62.6668C97.2182 64.3192 95.3846 65.1431 91.7217 66.7911C90.4429 62.5541 89.888 60.3987 88.9561 56.0315C92.6233 54.3792 94.457 53.5552 98.1242 51.9072C99.0562 56.2744 99.6111 58.4341 100.89 62.6668H100.886Z" stroke="#00657C" stroke-width="0.659942" stroke-miterlimit="10"/>
<path id="Vector_50" d="M106.287 77.3298C102.62 78.9821 100.786 79.8061 97.1186 81.4541C95.363 77.4556 94.5654 75.4086 93.1436 71.2366C96.8108 69.5843 98.6445 68.7603 102.307 67.1123C103.729 71.2843 104.527 73.3313 106.282 77.3298H106.287Z" stroke="#00657C" stroke-width="0.659942" stroke-miterlimit="10"/>
<g id="Group_14">
<path id="Vector_51" d="M107.847 51.2265C105.285 52.3801 104.002 52.9569 101.436 54.1104C101.189 54.2189 100.937 54.0757 100.868 53.7852C100.864 53.7592 100.859 53.7505 100.855 53.7245C100.786 53.4339 100.933 53.1086 101.176 53.0002C103.738 51.8466 105.021 51.2698 107.587 50.1162C107.834 50.0078 108.086 50.1509 108.155 50.4415C108.159 50.4675 108.164 50.4762 108.168 50.5022C108.237 50.7928 108.094 51.118 107.847 51.2265Z" fill="#E0E0E0"/>
<path id="Vector_52" d="M111.133 52.8399C107.535 54.4619 105.732 55.2685 102.134 56.8905C101.887 56.9989 101.631 56.8558 101.553 56.5696C101.549 56.5435 101.545 56.5349 101.536 56.5088C101.462 56.2226 101.601 55.8974 101.848 55.7889C105.446 54.167 107.249 53.3603 110.847 51.7384C111.094 51.6299 111.35 51.7731 111.424 52.0593C111.428 52.0853 111.432 52.094 111.441 52.12C111.515 52.4062 111.376 52.7315 111.133 52.8399Z" fill="#E0E0E0"/>
<path id="Vector_53" d="M111.649 54.7438C108.051 56.3658 106.248 57.1724 102.65 58.7944C102.403 58.9028 102.142 58.764 102.064 58.4778C102.056 58.4518 102.056 58.4431 102.047 58.4171C101.969 58.1309 102.103 57.8099 102.35 57.6972C105.948 56.0752 107.752 55.2686 111.35 53.6466C111.597 53.5382 111.857 53.6813 111.935 53.9632C111.943 53.9892 111.943 53.9979 111.952 54.0239C112.03 54.3102 111.896 54.6311 111.653 54.7395L111.649 54.7438Z" fill="#E0E0E0"/>
</g>
<g id="Group_15">
<path id="Vector_54" d="M112.563 66.6734C110.001 67.827 108.718 68.4038 106.152 69.5574C105.905 69.6658 105.623 69.5357 105.524 69.2582C105.515 69.2365 105.511 69.2235 105.502 69.2018C105.402 68.9242 105.519 68.612 105.762 68.5036C108.324 67.35 109.607 66.7732 112.173 65.6196C112.42 65.5112 112.698 65.6456 112.802 65.9188C112.81 65.9405 112.815 65.9535 112.823 65.9752C112.923 66.2528 112.81 66.565 112.563 66.6734Z" fill="#E0E0E0"/>
<path id="Vector_55" d="M116.174 68.1439C112.576 69.7658 110.773 70.5725 107.175 72.1945C106.928 72.3029 106.642 72.1728 106.534 71.8996C106.525 71.8779 106.521 71.8649 106.512 71.8432C106.404 71.57 106.516 71.2577 106.763 71.1493C110.361 69.5273 112.165 68.7207 115.762 67.0987C116.01 66.9903 116.291 67.1204 116.4 67.3936C116.408 67.4153 116.413 67.4283 116.421 67.45C116.53 67.7232 116.421 68.0311 116.174 68.1439Z" fill="#E0E0E0"/>
<path id="Vector_56" d="M116.907 69.9439C113.309 71.5658 111.506 72.3725 107.908 73.9944C107.661 74.1029 107.375 73.9771 107.262 73.7039C107.253 73.6822 107.249 73.6692 107.24 73.6475C107.127 73.3786 107.24 73.0664 107.483 72.9579C111.081 71.336 112.884 70.5293 116.482 68.9074C116.729 68.7989 117.015 68.929 117.128 69.1979C117.137 69.2196 117.141 69.2326 117.15 69.2543C117.262 69.5232 117.15 69.8311 116.907 69.9439Z" fill="#E0E0E0"/>
</g>
<path id="Vector_57" d="M96.9967 63.0178C94.8769 61.708 93.8366 61.0402 91.7905 59.7001C92.2977 58.6766 92.5491 58.1649 93.065 57.137C94.1227 57.8439 94.6559 58.1996 95.7352 58.8978C96.91 55.1378 97.5342 53.2426 98.8693 49.4219C99.7233 49.7688 100.157 49.9423 101.019 50.2849C99.5759 54.4873 98.2321 58.746 96.9967 63.0134V63.0178Z" fill="#FF5740"/>
</g>
<g id="Fingers">
<g id="Group_16">
<path id="Vector_58" d="M107.773 23.8042C110.37 24.9491 110.678 26.3759 111.133 28.2234C111.592 30.0709 113.348 34.0044 114.037 35.7824C114.726 37.5605 114.878 38.0159 114.189 40.4228C113.5 42.8298 111.549 47.5439 111.549 47.5439C111.549 47.5439 105.706 29.0431 105.324 27.1479C104.943 25.2527 105.172 23.1146 107.769 23.8042H107.773Z" fill="#FFA8A7"/>
<path id="Vector_59" d="M113.608 39.1824C113.608 39.1824 113.6 39.1998 113.604 39.2128C113.686 39.2388 113.812 39.1824 113.894 39.1694C113.999 39.1478 114.103 39.1304 114.211 39.1131C114.311 39.0957 114.419 39.0914 114.523 39.0827C114.536 39.0133 114.549 38.9483 114.558 38.8832C114.293 38.9136 114.029 38.9743 113.782 39.0654C113.717 39.0914 113.643 39.1217 113.608 39.1824ZM113.595 37.9248C113.86 37.8337 114.12 37.747 114.397 37.7123C114.471 37.7036 114.54 37.6993 114.614 37.6949C114.605 37.6255 114.597 37.5518 114.584 37.4824C114.506 37.4868 114.428 37.4954 114.35 37.5041C114.059 37.5431 113.76 37.6255 113.509 37.7773C113.426 37.8294 113.517 37.9465 113.595 37.9204V37.9248ZM114.467 38.2023C114.302 38.2067 114.133 38.2284 113.973 38.2544C113.647 38.3108 113.301 38.4062 113.014 38.5796C112.941 38.623 113.036 38.7184 113.101 38.6967C113.387 38.597 113.66 38.4972 113.959 38.4409C114.103 38.4148 114.246 38.3975 114.389 38.3888C114.462 38.3888 114.545 38.3888 114.623 38.3888C114.627 38.3238 114.631 38.263 114.631 38.198C114.575 38.198 114.519 38.198 114.467 38.198V38.2023Z" fill="#F28F8F"/>
<path id="Vector_60" d="M111.913 35.362C111.159 33.9525 109.802 30.8908 109.148 28.9479L106.811 28.2236L106.04 29.7155C107.687 35.3013 111.553 47.5484 111.553 47.5484C111.553 47.5484 111.844 46.8502 112.238 45.8527C112.238 45.8527 112.759 41.5246 112.997 39.5904C113.231 37.6518 112.668 36.7758 111.913 35.3663V35.362Z" fill="#F28F8F"/>
</g>
<g id="Group_17">
<path id="Vector_61" d="M103.629 34.5251C104.773 36.3942 106.533 39.7726 106.551 40.2106C106.668 42.6739 106.525 45.2456 106.525 47.9084C106.525 50.5712 106.503 52.5141 107.669 54.2792C108.727 55.8751 110.66 56.3132 110.942 54.5698C111.185 53.0779 111.332 50.0421 111.549 47.5485C111.765 45.0548 112.338 41.4379 112.481 39.417C112.624 37.396 111.306 35.4141 110.409 32.8034C109.633 30.5309 108.974 27.6642 107.76 26.4499C106.546 25.2313 101.938 22.9501 100.265 22.0654L103.629 34.5251Z" fill="#FFA8A7"/>
<g id="Group_18">
<g id="Group_19">
<path id="Vector_62" d="M112.355 39.5774C112.212 39.586 112.069 39.586 111.921 39.5774C111.614 39.56 111.328 39.482 111.033 39.4169C110.959 39.3996 110.976 39.508 111.02 39.534C111.297 39.6815 111.644 39.7292 111.952 39.7508C112.112 39.7595 112.277 39.7595 112.437 39.7422C112.442 39.7422 112.446 39.7422 112.45 39.7422C112.455 39.6815 112.459 39.6207 112.463 39.5644C112.424 39.5687 112.385 39.573 112.351 39.5774H112.355Z" fill="#F28F8F"/>
<path id="Vector_63" d="M110.638 37.7694C110.59 37.7954 110.651 37.8821 110.694 37.8691C111.046 37.7867 111.405 37.7477 111.765 37.8084C111.921 37.8344 112.077 37.8821 112.225 37.9428C112.272 37.9602 112.316 37.9862 112.363 38.0079C112.346 37.9255 112.329 37.8474 112.307 37.765C112.147 37.7 111.982 37.6523 111.813 37.6263C111.427 37.5655 110.993 37.5872 110.638 37.765V37.7694Z" fill="#F28F8F"/>
<path id="Vector_64" d="M111.323 38.4201C111.041 38.4114 110.755 38.4287 110.478 38.4895C110.244 38.5415 109.901 38.6022 109.745 38.806C109.737 38.8147 109.745 38.8407 109.754 38.8407C109.884 38.8494 110.014 38.8017 110.14 38.7713C110.274 38.741 110.409 38.7063 110.547 38.6889C110.803 38.6499 111.063 38.6369 111.319 38.6543C111.57 38.6716 111.822 38.7106 112.064 38.78C112.212 38.8234 112.351 38.8798 112.489 38.9405C112.489 38.8451 112.481 38.7453 112.472 38.6499C112.368 38.6109 112.264 38.5805 112.16 38.5502C111.887 38.4764 111.605 38.4331 111.323 38.4244V38.4201Z" fill="#F28F8F"/>
</g>
<g id="Group_20">
<path id="Vector_65" d="M111.406 48.9717C111.306 48.9414 111.206 48.911 111.107 48.885C110.903 48.8286 110.695 48.7809 110.487 48.7419C110.444 48.7332 110.392 48.7592 110.387 48.8069C110.387 48.859 110.435 48.8937 110.478 48.9023C110.669 48.937 110.86 48.9804 111.05 49.0325C111.141 49.0585 111.233 49.0845 111.328 49.1105C111.363 49.1192 111.393 49.1322 111.428 49.1409C111.428 49.0845 111.436 49.0325 111.441 48.9761C111.432 48.9761 111.419 48.9674 111.41 48.9674L111.406 48.9717Z" fill="#F28F8F"/>
<path id="Vector_66" d="M110.781 48.2904C110.994 48.3511 111.202 48.4292 111.406 48.5159C111.427 48.5246 111.449 48.5376 111.471 48.5463C111.475 48.4725 111.484 48.3988 111.488 48.3251C111.479 48.3251 111.475 48.3164 111.466 48.3164C111.25 48.2297 111.029 48.1559 110.803 48.0996C110.578 48.0432 110.357 47.9998 110.127 47.9695C109.893 47.9391 109.628 47.9044 109.399 47.9564C109.355 47.9651 109.377 48.0388 109.412 48.0432C109.65 48.0909 109.893 48.1039 110.131 48.1429C110.348 48.182 110.569 48.2297 110.781 48.2904Z" fill="#F28F8F"/>
<path id="Vector_67" d="M110.43 47.7009C110.725 47.766 111.02 47.8484 111.306 47.9481C111.375 47.9741 111.445 48.0002 111.51 48.0262C111.514 47.9655 111.518 47.9048 111.523 47.844C111.475 47.8267 111.427 47.805 111.38 47.792C111.063 47.6879 110.747 47.6185 110.417 47.5752C110.331 47.5622 110.365 47.6879 110.426 47.7009H110.43Z" fill="#F28F8F"/>
</g>
</g>
<path id="Vector_68" d="M111.289 51.022C110.192 49.9595 109.035 50.3411 109.035 50.3411C109.035 50.3411 108.8 51.7853 108.883 53.0516C108.961 54.318 109.797 54.9381 110.439 55.0465C111.081 55.155 111.167 53.906 111.293 51.022H111.289Z" fill="#FFC4C3"/>
<path id="Vector_69" opacity="0.3" d="M111.267 51.4865C111.275 51.3347 111.28 51.1829 111.288 51.0181C110.192 49.9556 109.034 50.3372 109.034 50.3372C109.26 50.7275 110.473 51.4127 111.267 51.4865Z" fill="white"/>
<path id="Vector_70" d="M108.38 26.7841C107.873 26.0902 107.11 25.6826 106.36 25.3009C105.94 25.0884 105.519 24.8716 105.129 24.607C105.107 24.5897 105.099 24.6417 105.112 24.6504C105.705 25.1752 106.416 25.5394 107.071 25.9818C107.383 26.19 107.682 26.4285 107.934 26.7147C108.233 27.053 108.462 27.4563 108.644 27.8683C108.844 28.3193 109.009 28.7834 109.186 29.2431C109.199 29.2778 109.23 29.2561 109.225 29.2257C109.121 28.3757 108.887 27.4823 108.376 26.7798L108.38 26.7841Z" fill="#F28F8F"/>
</g>
</g>
</g>
</g>
</g>
</g>
</svg>
