<svg width="230" height="165" viewBox="0 0 230 165" fill="none" xmlns="http://www.w3.org/2000/svg">
<path d="M79.6254 0H67.2314V164.513H79.6254V0Z" fill="#FF5740"/>
<g opacity="0.3">
<path d="M79.6254 0H67.2314V164.513H79.6254V0Z" fill="black"/>
</g>
<path d="M120.89 0H79.6255V164.513H120.89V0Z" fill="#FF5740"/>
<path d="M103.94 3.49219H82.5186V8.52679H103.94V3.49219Z" fill="#455A64"/>
<g opacity="0.3">
<path d="M103.94 3.49023H82.5186V8.52484H103.94V3.49023Z" fill="white"/>
</g>
<path d="M118.137 3.49219H107.426V8.52679H118.137V3.49219Z" fill="#455A64"/>
<g opacity="0.3">
<path d="M118.137 3.49023H107.426V8.52484H118.137V3.49023Z" fill="white"/>
</g>
<g opacity="0.3">
<path d="M82.5186 4.28659L102.912 4.30009L102.954 8.52484H103.935V3.49023H82.5186V4.28659Z" fill="black"/>
</g>
<g opacity="0.3">
<path d="M107.426 3.49023V4.2236H116.953V8.52484H118.132V3.49023H107.426Z" fill="black"/>
</g>
<path d="M103.94 12.1582H82.5186V17.1928H103.94V12.1582Z" fill="#455A64"/>
<g opacity="0.3">
<path d="M103.94 12.1562H82.5186V17.1909H103.94V12.1562Z" fill="white"/>
</g>
<path d="M118.137 12.1582H107.426V17.1928H118.137V12.1582Z" fill="#455A64"/>
<g opacity="0.3">
<path d="M118.137 12.1562H107.426V17.1909H118.137V12.1562Z" fill="white"/>
</g>
<g opacity="0.3">
<path d="M82.5186 12.9481L102.912 12.9616L102.954 17.1909H103.935V12.1562H82.5186V12.9481Z" fill="black"/>
</g>
<g opacity="0.3">
<path d="M107.426 12.1562V12.8851H116.953V17.1909H118.132V12.1562H107.426Z" fill="black"/>
</g>
<path d="M103.94 20.8174H82.5186V25.852H103.94V20.8174Z" fill="#455A64"/>
<g opacity="0.3">
<path d="M103.94 20.8174H82.5186V25.852H103.94V20.8174Z" fill="white"/>
</g>
<path d="M118.137 20.8174H107.426V25.852H118.137V20.8174Z" fill="#455A64"/>
<g opacity="0.3">
<path d="M118.132 25.852H115.441L115.421 24.7227L111.94 24.7272V25.852H107.426V20.8174H118.132V25.852Z" fill="white"/>
</g>
<g opacity="0.3">
<path d="M82.5186 21.6092L102.912 21.6227L102.954 25.852H103.935V20.8174H82.5186V21.6092Z" fill="black"/>
</g>
<g opacity="0.3">
<path d="M107.426 20.8174V21.5508H116.953V25.852H118.132V20.8174H107.426Z" fill="black"/>
</g>
<path d="M103.94 29.4795H82.5186V34.5141H103.94V29.4795Z" fill="#455A64"/>
<path d="M118.137 29.4795H107.426V34.5141H118.137V29.4795Z" fill="#455A64"/>
<g opacity="0.3">
<path d="M109.566 34.5141V31.999H111.727V29.4795H107.426V34.5141H109.566Z" fill="white"/>
</g>
<g opacity="0.3">
<path d="M118.131 29.4795H116.267V34.5141H118.131V29.4795Z" fill="white"/>
</g>
<g opacity="0.3">
<path d="M103.94 29.4795H82.5186V34.5141H103.94V29.4795Z" fill="white"/>
</g>
<g opacity="0.3">
<path d="M82.5186 30.2714L102.912 30.2849L102.954 34.5141H103.935V29.4795H82.5186V30.2714Z" fill="black"/>
</g>
<g opacity="0.3">
<path d="M107.426 29.4795V30.2129H116.953V34.5141H118.132V29.4795H107.426Z" fill="black"/>
</g>
<path d="M103.94 38.1396H82.5186V43.1743H103.94V38.1396Z" fill="#455A64"/>
<g opacity="0.3">
<path d="M82.5186 41.7975H87.5364V39.9258H96.9176V43.1743H103.935V38.1396H82.5186V41.7975Z" fill="white"/>
</g>
<path d="M118.137 38.1396H107.426V43.1743H118.137V38.1396Z" fill="#455A64"/>
<g opacity="0.3">
<path d="M118.132 38.1396H116.267V43.1743H118.132V38.1396Z" fill="white"/>
</g>
<g opacity="0.3">
<path d="M82.5186 38.936L102.912 38.9495L102.954 43.1743H103.935V38.1396H82.5186V38.936Z" fill="black"/>
</g>
<g opacity="0.3">
<path d="M109.566 38.1396H107.426V43.1743H109.566V38.1396Z" fill="white"/>
</g>
<g opacity="0.3">
<path d="M107.426 38.1396V38.873H116.953V43.1743H118.132V38.1396H107.426Z" fill="black"/>
</g>
<path d="M103.94 46.8047H82.5186V51.8393H103.94V46.8047Z" fill="#455A64"/>
<path d="M118.137 46.8047H107.426V51.8393H118.137V46.8047Z" fill="#455A64"/>
<g opacity="0.3">
<path d="M82.5186 47.5975L102.912 47.611L102.954 51.8403H103.935V46.8057H82.5186V47.5975Z" fill="black"/>
</g>
<g opacity="0.3">
<path d="M107.426 46.8057V47.5345H116.953V51.8403H118.132V46.8057H107.426Z" fill="black"/>
</g>
<path d="M103.94 55.4648H82.5186V60.4994H103.94V55.4648Z" fill="#455A64"/>
<path d="M118.137 55.4648H107.426V60.4994H118.137V55.4648Z" fill="#455A64"/>
<g opacity="0.3">
<path d="M82.5186 56.2567L102.912 56.2702L102.954 60.4994H103.935V55.4648H82.5186V56.2567Z" fill="black"/>
</g>
<g opacity="0.3">
<path d="M107.427 55.4648V56.1982H116.953V60.4994H118.133V55.4648H107.427Z" fill="black"/>
</g>
<path d="M103.94 64.127H82.5186V69.1615H103.94V64.127Z" fill="#455A64"/>
<path d="M118.137 64.127H107.426V69.1615H118.137V64.127Z" fill="#455A64"/>
<g opacity="0.3">
<path d="M82.5186 64.9208L102.912 64.9343L102.954 69.1635H103.935V64.1289H82.5186V64.9208Z" fill="black"/>
</g>
<g opacity="0.3">
<path d="M107.426 64.1289V64.8623H116.953V69.1635H118.132V64.1289H107.426Z" fill="black"/>
</g>
<path d="M103.94 72.793H82.5186V77.8276H103.94V72.793Z" fill="#455A64"/>
<path d="M118.137 72.793H107.426V77.8276H118.137V72.793Z" fill="#455A64"/>
<g opacity="0.3">
<path d="M82.5186 73.5848L102.912 73.5983L102.954 77.8231H103.935V72.793H82.5186V73.5848Z" fill="black"/>
</g>
<g opacity="0.3">
<path d="M107.426 72.793V73.5218H116.953V77.8231H118.132V72.793H107.426Z" fill="black"/>
</g>
<path d="M103.94 81.4541H82.5186V86.4887H103.94V81.4541Z" fill="#455A64"/>
<path d="M118.137 81.4541H107.426V86.4887H118.137V81.4541Z" fill="#455A64"/>
<g opacity="0.3">
<path d="M82.5186 82.245L102.912 82.2585L102.954 86.4877H103.935V81.4531H82.5186V82.245Z" fill="black"/>
</g>
<g opacity="0.3">
<path d="M107.426 81.4531V82.182H116.953V86.4877H118.132V81.4531H107.426Z" fill="black"/>
</g>
<path d="M103.94 90.1143H82.5186V95.1489H103.94V90.1143Z" fill="#455A64"/>
<path d="M118.137 90.1143H107.426V95.1489H118.137V90.1143Z" fill="#455A64"/>
<g opacity="0.3">
<path d="M82.5186 90.9061L102.912 90.9196L102.954 95.1489H103.935V90.1143H82.5186V90.9061Z" fill="black"/>
</g>
<g opacity="0.3">
<path d="M107.426 90.1143V90.8476H116.953V95.1489H118.132V90.1143H107.426Z" fill="black"/>
</g>
<path d="M103.94 98.7754H82.5186V103.81H103.94V98.7754Z" fill="#455A64"/>
<path d="M118.137 98.7754H107.426V103.81H118.137V98.7754Z" fill="#455A64"/>
<g opacity="0.3">
<path d="M82.5186 99.5682L102.912 99.5817L102.954 103.811H103.935V98.7764H82.5186V99.5682Z" fill="black"/>
</g>
<g opacity="0.3">
<path d="M107.426 98.7764V99.5097H116.953V103.811H118.132V98.7764H107.426Z" fill="black"/>
</g>
<path d="M103.94 107.441H82.5186V112.476H103.94V107.441Z" fill="#455A64"/>
<path d="M118.137 107.441H107.426V112.476H118.137V107.441Z" fill="#455A64"/>
<g opacity="0.3">
<path d="M82.5186 108.234L102.912 108.248L102.954 112.472H103.935V107.442H82.5186V108.234Z" fill="black"/>
</g>
<g opacity="0.3">
<path d="M107.426 107.442V108.171H116.953V112.472H118.132V107.442H107.426Z" fill="black"/>
</g>
<path d="M76.4673 4.41895H73.8545V8.0408H76.4673V4.41895Z" fill="#455A64"/>
<path d="M76.4673 12.8555H73.8545V16.4773H76.4673V12.8555Z" fill="#455A64"/>
<path d="M76.4673 21.3887H73.8545V25.0105H76.4673V21.3887Z" fill="#455A64"/>
<path d="M76.4673 29.9238H73.8545V33.5457H76.4673V29.9238Z" fill="#455A64"/>
<path d="M76.4673 38.4551H73.8545V42.0769H76.4673V38.4551Z" fill="#455A64"/>
<path d="M76.4673 46.9902H73.8545V50.6121H76.4673V46.9902Z" fill="#455A64"/>
<path d="M76.4673 55.5244H73.8545V59.1463H76.4673V55.5244Z" fill="#455A64"/>
<path d="M76.4673 64.0596H73.8545V67.6814H76.4673V64.0596Z" fill="#455A64"/>
<path d="M76.4673 72.5957H73.8545V76.2176H76.4673V72.5957Z" fill="#455A64"/>
<path d="M76.4673 81.123H73.8545V84.7449H76.4673V81.123Z" fill="#455A64"/>
<path d="M76.4673 89.6621H73.8545V93.284H76.4673V89.6621Z" fill="#455A64"/>
<path d="M76.4673 98.1963H73.8545V101.818H76.4673V98.1963Z" fill="#455A64"/>
<path d="M72.2285 4.41895H69.6157V8.0408H72.2285V4.41895Z" fill="#455A64"/>
<path d="M72.2285 12.8555H69.6157V16.4773H72.2285V12.8555Z" fill="#455A64"/>
<path d="M72.2285 21.3887H69.6157V25.0105H72.2285V21.3887Z" fill="#455A64"/>
<path d="M72.2285 29.9238H69.6157V33.5457H72.2285V29.9238Z" fill="#455A64"/>
<path d="M72.2285 38.4551H69.6157V42.0769H72.2285V38.4551Z" fill="#455A64"/>
<path d="M72.2285 46.9902H69.6157V50.6121H72.2285V46.9902Z" fill="#455A64"/>
<path d="M72.2285 55.5244H69.6157V59.1463H72.2285V55.5244Z" fill="#455A64"/>
<path d="M72.2285 64.0596H69.6157V67.6814H72.2285V64.0596Z" fill="#455A64"/>
<path d="M72.2285 72.5957H69.6157V76.2176H72.2285V72.5957Z" fill="#455A64"/>
<path d="M72.2285 81.123H69.6157V84.7449H72.2285V81.123Z" fill="#455A64"/>
<path d="M72.2285 89.6621H69.6157V93.284H72.2285V89.6621Z" fill="#455A64"/>
<path d="M72.2285 98.1963H69.6157V101.818H72.2285V98.1963Z" fill="#455A64"/>
<path d="M103.478 69.1612C103.478 69.2244 98.7876 69.2785 93.001 69.2785C87.2143 69.2785 82.5186 69.2244 82.5186 69.1612C82.5186 69.0981 87.2092 69.0439 93.001 69.0439C98.7928 69.0439 103.478 69.0981 103.478 69.1612Z" fill="white"/>
<path d="M117.249 69.1612C117.249 69.2244 115.114 69.2785 112.486 69.2785C109.858 69.2785 107.723 69.2244 107.723 69.1612C107.723 69.0981 109.852 69.0439 112.486 69.0439C115.12 69.0439 117.249 69.0981 117.249 69.1612Z" fill="white"/>
<path d="M103.478 77.9181C103.478 77.9812 98.7876 78.0353 93.001 78.0353C87.2143 78.0353 82.5186 77.9812 82.5186 77.9181C82.5186 77.8549 87.2092 77.8008 93.001 77.8008C98.7928 77.8008 103.478 77.8549 103.478 77.9181Z" fill="white"/>
<path d="M117.249 77.9181C117.249 77.9812 115.114 78.0353 112.486 78.0353C109.858 78.0353 107.723 77.9812 107.723 77.9181C107.723 77.8549 109.852 77.8008 112.486 77.8008C115.12 77.8008 117.249 77.8549 117.249 77.9181Z" fill="white"/>
<path d="M103.478 86.669C103.478 86.7322 98.7876 86.7863 93.001 86.7863C87.2143 86.7863 82.5186 86.7322 82.5186 86.669C82.5186 86.6059 87.2092 86.5518 93.001 86.5518C98.7928 86.5518 103.478 86.6059 103.478 86.669Z" fill="white"/>
<path d="M117.249 86.669C117.249 86.7322 115.114 86.7863 112.486 86.7863C109.858 86.7863 107.723 86.7322 107.723 86.669C107.723 86.6059 109.852 86.5518 112.486 86.5518C115.12 86.5518 117.249 86.6059 117.249 86.669Z" fill="white"/>
<path d="M103.478 95.4268C103.478 95.49 98.7876 95.5441 93.001 95.5441C87.2143 95.5441 82.5186 95.49 82.5186 95.4268C82.5186 95.3637 87.2092 95.3096 93.001 95.3096C98.7928 95.3096 103.478 95.3637 103.478 95.4268Z" fill="white"/>
<path d="M117.249 95.4268C117.249 95.49 115.114 95.5441 112.486 95.5441C109.858 95.5441 107.723 95.49 107.723 95.4268C107.723 95.3637 109.852 95.3096 112.486 95.3096C115.12 95.3096 117.249 95.3637 117.249 95.4268Z" fill="white"/>
<path d="M103.478 104.179C103.478 104.242 98.7876 104.296 93.001 104.296C87.2143 104.296 82.5186 104.242 82.5186 104.179C82.5186 104.116 87.2092 104.062 93.001 104.062C98.7928 104.062 103.478 104.116 103.478 104.179Z" fill="white"/>
<path d="M117.249 104.179C117.249 104.242 115.114 104.296 112.486 104.296C109.858 104.296 107.723 104.242 107.723 104.179C107.723 104.116 109.852 104.062 112.486 104.062C115.12 104.062 117.249 104.116 117.249 104.179Z" fill="white"/>
<path d="M103.478 112.93C103.478 112.993 98.7876 113.047 93.001 113.047C87.2143 113.047 82.5186 112.993 82.5186 112.93C82.5186 112.867 87.2092 112.812 93.001 112.812C98.7928 112.812 103.478 112.867 103.478 112.93Z" fill="white"/>
<path d="M117.249 112.93C117.249 112.993 115.114 113.047 112.486 113.047C109.858 113.047 107.723 112.993 107.723 112.93C107.723 112.867 109.852 112.812 112.486 112.812C115.12 112.812 117.249 112.867 117.249 112.93Z" fill="white"/>
<path d="M103.478 34.6124C103.478 34.6755 98.7876 34.7297 93.001 34.7297C87.2143 34.7297 82.5186 34.6755 82.5186 34.6124C82.5186 34.5492 87.2092 34.4951 93.001 34.4951C98.7928 34.4951 103.478 34.5492 103.478 34.6124Z" fill="white"/>
<path d="M103.478 25.8526C103.478 25.9158 98.7876 25.9699 93.001 25.9699C87.2143 25.9699 82.5186 25.9158 82.5186 25.8526C82.5186 25.7895 87.2092 25.7354 93.001 25.7354C98.7928 25.7354 103.478 25.7895 103.478 25.8526Z" fill="white"/>
<path d="M103.478 17.0919C103.478 17.155 98.7876 17.2092 93.001 17.2092C87.2143 17.2092 82.5186 17.155 82.5186 17.0919C82.5186 17.0287 87.2092 16.9746 93.001 16.9746C98.7928 16.9746 103.478 17.0287 103.478 17.0919Z" fill="white"/>
<path d="M103.478 43.1739C103.478 43.2371 98.7876 43.2912 93.001 43.2912C87.2143 43.2912 82.5186 43.2371 82.5186 43.1739C82.5186 43.1108 87.2092 43.0566 93.001 43.0566C98.7928 43.0566 103.478 43.1108 103.478 43.1739Z" fill="white"/>
<path d="M103.478 51.7403C103.478 51.8035 98.7876 51.8576 93.001 51.8576C87.2143 51.8576 82.5186 51.8035 82.5186 51.7403C82.5186 51.6772 87.2092 51.623 93.001 51.623C98.7928 51.623 103.478 51.6772 103.478 51.7403Z" fill="white"/>
<path d="M103.478 60.3019C103.478 60.365 98.7876 60.4191 93.001 60.4191C87.2143 60.4191 82.5186 60.365 82.5186 60.3019C82.5186 60.2387 87.2092 60.1846 93.001 60.1846C98.7928 60.1846 103.478 60.2387 103.478 60.3019Z" fill="white"/>
<path d="M103.073 8.5079C103.073 8.57105 98.4036 8.62518 92.6378 8.62518C86.872 8.62518 82.2021 8.57105 82.2021 8.5079C82.2021 8.44475 86.872 8.39062 92.6378 8.39062C98.4036 8.39062 103.073 8.44475 103.073 8.5079Z" fill="white"/>
<path d="M117.249 8.5079C117.249 8.57105 115.114 8.62518 112.486 8.62518C109.858 8.62518 107.723 8.57105 107.723 8.5079C107.723 8.44475 109.852 8.39062 112.486 8.39062C115.12 8.39062 117.249 8.44475 117.249 8.5079Z" fill="white"/>
<path d="M117.249 17.0919C117.249 17.155 115.114 17.2092 112.486 17.2092C109.858 17.2092 107.723 17.155 107.723 17.0919C107.723 17.0287 109.852 16.9746 112.486 16.9746C115.12 16.9746 117.249 17.0287 117.249 17.0919Z" fill="white"/>
<path d="M117.249 25.6749C117.249 25.738 115.114 25.7922 112.486 25.7922C109.858 25.7922 107.723 25.738 107.723 25.6749C107.723 25.6117 109.852 25.5576 112.486 25.5576C115.12 25.5576 117.249 25.6117 117.249 25.6749Z" fill="white"/>
<path d="M117.249 34.6124C117.249 34.6755 115.114 34.7297 112.486 34.7297C109.858 34.7297 107.723 34.6755 107.723 34.6124C107.723 34.5492 109.852 34.4951 112.486 34.4951C115.12 34.4951 117.249 34.5492 117.249 34.6124Z" fill="white"/>
<path d="M117.249 43.1739C117.249 43.2371 115.114 43.2912 112.486 43.2912C109.858 43.2912 107.723 43.2371 107.723 43.1739C107.723 43.1108 109.852 43.0566 112.486 43.0566C115.12 43.0566 117.249 43.1108 117.249 43.1739Z" fill="white"/>
<path d="M117.249 51.7725C117.249 51.8357 115.114 51.8898 112.486 51.8898C109.858 51.8898 107.723 51.8357 107.723 51.7725C107.723 51.7094 109.852 51.6553 112.486 51.6553C115.12 51.6553 117.249 51.7094 117.249 51.7725Z" fill="white"/>
<path d="M117.249 60.3653C117.249 60.4285 115.114 60.4826 112.486 60.4826C109.858 60.4826 107.723 60.4285 107.723 60.3653C107.723 60.3022 109.852 60.248 112.486 60.248C115.12 60.248 117.249 60.3022 117.249 60.3653Z" fill="white"/>
<path d="M56.017 45.5029H0V164.043H56.017V45.5029Z" fill="#FF5740"/>
<path d="M26.7723 50.3721H22.3882V159.329H26.7723V50.3721Z" fill="#455A64"/>
<path d="M32.9432 50.3721H28.5591V159.329H32.9432V50.3721Z" fill="#455A64"/>
<path d="M39.1195 50.3721H34.7354V159.329H39.1195V50.3721Z" fill="#455A64"/>
<path d="M8.20736 50.3721H3.82324V159.329H8.20736V50.3721Z" fill="#455A64"/>
<path d="M14.3783 50.3721H9.99414V159.329H14.3783V50.3721Z" fill="#455A64"/>
<path d="M45.2904 50.3721H40.9062V159.329H45.2904V50.3721Z" fill="#455A64"/>
<path d="M51.4613 50.3721H47.0771V159.329H51.4613V50.3721Z" fill="#455A64"/>
<g opacity="0.3">
<path d="M17.9624 45.5029H0V164.043H17.9624V45.5029Z" fill="black"/>
</g>
<path d="M38.6467 62.4296C38.6987 62.4746 38.1325 63.0415 37.3741 63.6939C36.6209 64.3463 35.9664 64.8412 35.9144 64.7962C35.8625 64.7512 36.4287 64.1843 37.1871 63.5319C37.9403 62.8795 38.5948 62.3846 38.6467 62.4296Z" fill="white"/>
<path d="M44.1064 65.6232C44.1584 65.6682 43.7688 66.0641 43.2337 66.5095C42.6987 66.9504 42.226 67.2744 42.1741 67.2249C42.1221 67.1799 42.5117 66.784 43.0467 66.3385C43.5818 65.8976 44.0545 65.5737 44.1064 65.6232Z" fill="white"/>
<path d="M49.649 58.8695C49.7009 58.9145 49.3269 59.2969 48.8179 59.7199C48.3088 60.1428 47.8517 60.4487 47.7997 60.3992C47.7478 60.3542 48.1218 59.9718 48.6309 59.5489C49.1399 59.126 49.597 58.82 49.649 58.8695Z" fill="white"/>
<path d="M160.255 29.4736H131.986V35.957H160.255V29.4736Z" fill="#263238"/>
<path d="M159.065 30.2881H133.176V34.4858H159.065V30.2881Z" fill="#455A64"/>
<g opacity="0.3">
<path d="M159.064 30.2871H133.175V34.4849H159.064V30.2871Z" fill="white"/>
</g>
<path d="M163.984 35.001H127.669V114.673H163.984V35.001Z" fill="#263238"/>
<path d="M161.812 36.8467H129.617V114.674H161.812V36.8467Z" fill="#455A64"/>
<g opacity="0.3">
<path d="M129.617 73.3451H136.136V64.5717H141.388V57.4765H151.891V79.8465H157.143V48.1316H161.812V36.8477H129.617V73.3451Z" fill="white"/>
</g>
<path d="M163.293 45.0372C163.293 45.1004 155.574 45.1545 146.057 45.1545C136.541 45.1545 128.822 45.1004 128.822 45.0372C128.822 44.9741 136.536 44.9199 146.057 44.9199C155.579 44.9199 163.293 44.9741 163.293 45.0372Z" fill="#263238"/>
<path d="M163.293 53.0216C163.293 53.0847 155.574 53.1389 146.057 53.1389C136.541 53.1389 128.822 53.0847 128.822 53.0216C128.822 52.9584 136.536 52.9043 146.057 52.9043C155.579 52.9043 163.293 52.9584 163.293 53.0216Z" fill="#263238"/>
<path d="M163.293 61.004C163.293 61.0671 155.574 61.1213 146.057 61.1213C136.541 61.1213 128.822 61.0671 128.822 61.004C128.822 60.9408 136.536 60.8867 146.057 60.8867C155.579 60.8867 163.293 60.9408 163.293 61.004Z" fill="#263238"/>
<path d="M163.293 68.9903C163.293 69.0535 155.574 69.1076 146.057 69.1076C136.541 69.1076 128.822 69.0535 128.822 68.9903C128.822 68.9272 136.536 68.873 146.057 68.873C155.579 68.873 163.293 68.9272 163.293 68.9903Z" fill="#263238"/>
<path d="M163.293 76.9708C163.293 77.0339 155.574 77.0881 146.057 77.0881C136.541 77.0881 128.822 77.0339 128.822 76.9708C128.822 76.9076 136.536 76.8535 146.057 76.8535C155.579 76.8535 163.293 76.9076 163.293 76.9708Z" fill="#263238"/>
<path d="M163.293 84.9571C163.293 85.0203 155.574 85.0744 146.057 85.0744C136.541 85.0744 128.822 85.0203 128.822 84.9571C128.822 84.894 136.536 84.8398 146.057 84.8398C155.579 84.8398 163.293 84.894 163.293 84.9571Z" fill="#263238"/>
<path d="M163.293 92.9425C163.293 93.0056 155.574 93.0597 146.057 93.0597C136.541 93.0597 128.822 93.0056 128.822 92.9425C128.822 92.8793 136.536 92.8252 146.057 92.8252C155.579 92.8252 163.293 92.8793 163.293 92.9425Z" fill="#263238"/>
<path d="M163.293 100.926C163.293 100.989 155.574 101.043 146.057 101.043C136.541 101.043 128.822 100.989 128.822 100.926C128.822 100.863 136.536 100.809 146.057 100.809C155.579 100.809 163.293 100.863 163.293 100.926Z" fill="#263238"/>
<path d="M163.293 108.912C163.293 108.975 155.574 109.029 146.057 109.029C136.541 109.029 128.822 108.975 128.822 108.912C128.822 108.849 136.536 108.795 146.057 108.795C155.579 108.795 163.293 108.849 163.293 108.912Z" fill="#263238"/>
<path d="M136.947 116.333C136.874 116.333 136.812 96.9914 136.812 73.1411C136.812 49.2909 136.874 29.9443 136.947 29.9443C137.02 29.9443 137.082 49.2819 137.082 73.1411C137.082 97.0004 137.02 116.333 136.947 116.333Z" fill="#263238"/>
<path d="M146.286 116.333C146.214 116.333 146.151 96.9914 146.151 73.1411C146.151 49.2909 146.214 29.9443 146.286 29.9443C146.359 29.9443 146.421 49.2819 146.421 73.1411C146.421 97.0004 146.359 116.333 146.286 116.333Z" fill="#263238"/>
<path d="M155.631 116.333C155.558 116.333 155.496 96.9914 155.496 73.1411C155.496 49.2909 155.558 29.9443 155.631 29.9443C155.704 29.9443 155.766 49.2819 155.766 73.1411C155.766 97.0004 155.704 116.333 155.631 116.333Z" fill="#263238"/>
<path d="M131.985 29.4736H127.897V35.0076H131.985V29.4736Z" fill="#263238"/>
<g opacity="0.3">
<path d="M131.986 29.4736H127.898V35.0076H131.986V29.4736Z" fill="black"/>
</g>
<path d="M127.846 35.0537H123.758V102.105H127.846V35.0537Z" fill="#263238"/>
<g opacity="0.3">
<path d="M127.846 35.0537H123.758V102.105H127.846V35.0537Z" fill="black"/>
</g>
<path d="M144.935 46.4878C144.987 46.5328 143.792 47.5811 142.265 48.8274C140.738 50.0737 139.46 51.041 139.413 50.996C139.361 50.951 140.556 49.9027 142.083 48.6564C143.61 47.4102 144.888 46.4428 144.935 46.4878Z" fill="white"/>
<path d="M153.585 46.3482C153.637 46.3932 152.442 47.4415 150.915 48.6878C149.388 49.9341 148.11 50.9014 148.063 50.8564C148.011 50.8114 149.206 49.7631 150.733 48.5168C152.26 47.2705 153.538 46.3032 153.585 46.3482Z" fill="white"/>
<path d="M153.735 40.0064C153.787 40.0514 152.592 41.0997 151.065 42.346C149.538 43.5922 148.26 44.5596 148.213 44.5146C148.161 44.4696 149.356 43.4213 150.883 42.175C152.41 40.9287 153.688 39.9614 153.735 40.0064Z" fill="white"/>
<path d="M223.699 144.164H175.557V69.9137L223.699 49.5908V144.164Z" fill="#455A64"/>
<path d="M199.186 102.072H194.854V107.462H199.186V102.072Z" fill="#EBEBEB"/>
<g opacity="0.3">
<path d="M194.854 102.072V102.738H198.454V107.462H199.186V102.072H194.854Z" fill="black"/>
</g>
<path d="M199.187 112.498H194.854V117.888H199.187V112.498Z" fill="#EBEBEB"/>
<g opacity="0.3">
<path d="M194.854 112.498V113.168H198.454V117.888H199.186V112.498H194.854Z" fill="black"/>
</g>
<path d="M199.186 122.933H194.854V128.323H199.186V122.933Z" fill="#EBEBEB"/>
<g opacity="0.3">
<path d="M194.854 122.936V123.601H198.454V128.326H199.186V122.936H194.854Z" fill="black"/>
</g>
<path d="M199.187 133.419H194.854V144.208H199.187V133.419Z" fill="#EBEBEB"/>
<g opacity="0.3">
<path d="M194.854 133.418V134.754H198.454V144.207H199.186V133.418H194.854Z" fill="black"/>
</g>
<path d="M199.187 91.3809H194.854V96.7709H199.187V91.3809Z" fill="#EBEBEB"/>
<g opacity="0.3">
<path d="M194.854 91.3809V92.0512H198.454V96.7709H199.186V91.3809H194.854Z" fill="black"/>
</g>
<path d="M199.186 80.7002H194.854V86.0902H199.186V80.7002Z" fill="#EBEBEB"/>
<g opacity="0.3">
<path d="M194.854 80.6982V81.3686H198.454V86.0883H199.186V80.6982H194.854Z" fill="black"/>
</g>
<path d="M199.186 70.0176H194.854V75.4076H199.186V70.0176Z" fill="#EBEBEB"/>
<g opacity="0.3">
<path d="M194.854 70.0205V70.6864H198.454V75.4106H199.186V70.0205H194.854Z" fill="black"/>
</g>
<path d="M208.999 101.831H204.667V107.221H208.999V101.831Z" fill="#EBEBEB"/>
<g opacity="0.3">
<path d="M204.667 101.831V102.501H208.266V107.221H208.999V101.831H204.667Z" fill="black"/>
</g>
<path d="M208.999 112.265H204.667V117.655H208.999V112.265Z" fill="#EBEBEB"/>
<g opacity="0.3">
<path d="M204.667 112.266V112.931H208.266V117.656H208.999V112.266H204.667Z" fill="black"/>
</g>
<path d="M208.998 122.692H204.666V128.082H208.998V122.692Z" fill="#EBEBEB"/>
<g opacity="0.3">
<path d="M204.666 122.692V123.363H208.265V128.082H208.998V122.692H204.666Z" fill="black"/>
</g>
<path d="M208.999 133.128H204.667V144.209H208.999V133.128Z" fill="#EBEBEB"/>
<g opacity="0.3">
<path d="M204.667 133.128V134.5H208.267V144.209H208.999V133.128H204.667Z" fill="black"/>
</g>
<path d="M208.999 91.1465H204.667V96.5365H208.999V91.1465Z" fill="#EBEBEB"/>
<g opacity="0.3">
<path d="M204.667 91.1465V91.8124H208.267V96.5365H208.999V91.1465H204.667Z" fill="black"/>
</g>
<path d="M208.999 80.4648H204.667V85.8549H208.999V80.4648Z" fill="#EBEBEB"/>
<g opacity="0.3">
<path d="M204.667 80.4648V81.1352H208.267V85.8549H208.999V80.4648H204.667Z" fill="black"/>
</g>
<path d="M208.999 69.7803H204.667V75.1703H208.999V69.7803Z" fill="#EBEBEB"/>
<g opacity="0.3">
<path d="M204.667 69.7803V70.4462H208.266V75.1703H208.999V69.7803H204.667Z" fill="black"/>
</g>
<path d="M218.806 102.011H214.474V107.401H218.806V102.011Z" fill="#EBEBEB"/>
<g opacity="0.3">
<path d="M214.474 102.011V102.677H218.074V107.401H218.806V102.011H214.474Z" fill="black"/>
</g>
<path d="M218.806 112.441H214.474V117.831H218.806V112.441Z" fill="#EBEBEB"/>
<g opacity="0.3">
<path d="M214.474 112.442V113.113H218.073V117.832H218.806V112.442H214.474Z" fill="black"/>
</g>
<path d="M218.806 122.874H214.474V128.264H218.806V122.874Z" fill="#EBEBEB"/>
<g opacity="0.3">
<path d="M214.474 122.875V123.541H218.073V128.265H218.806V122.875H214.474Z" fill="black"/>
</g>
<path d="M218.806 133.303H214.474V144.092H218.806V133.303Z" fill="#EBEBEB"/>
<g opacity="0.3">
<path d="M214.474 133.303V134.644H218.073V144.092H218.806V133.303H214.474Z" fill="black"/>
</g>
<path d="M218.806 91.3242H214.474V96.7143H218.806V91.3242Z" fill="#EBEBEB"/>
<g opacity="0.3">
<path d="M214.474 91.3242V91.9946H218.073V96.7143H218.806V91.3242H214.474Z" fill="black"/>
</g>
<path d="M218.806 80.6436H214.474V86.0336H218.806V80.6436Z" fill="#EBEBEB"/>
<g opacity="0.3">
<path d="M214.474 80.6436V81.3094H218.073V86.0336H218.806V80.6436H214.474Z" fill="black"/>
</g>
<path d="M218.806 69.9619H214.474V75.3519H218.806V69.9619Z" fill="#EBEBEB"/>
<g opacity="0.3">
<path d="M214.474 69.96V70.6303H218.073V75.35H218.806V69.96H214.474Z" fill="black"/>
</g>
<path d="M218.806 60.8535H214.474V66.2436H218.806V60.8535Z" fill="#EBEBEB"/>
<g opacity="0.3">
<path d="M214.474 60.8535V61.5194H218.073V66.2436H218.806V60.8535H214.474Z" fill="black"/>
</g>
<path d="M185.39 71.6758H183.874V77.0658H185.39V71.6758Z" fill="#263238"/>
<path d="M185.603 77.0664H182.834V77.8808H185.603V77.0664Z" fill="white"/>
<path d="M185.39 81.9502H183.873V87.3402H185.39V81.9502Z" fill="#263238"/>
<path d="M185.603 87.3428H182.834V88.1571H185.603V87.3428Z" fill="white"/>
<path d="M185.39 92.2168H183.873V97.6068H185.39V92.2168Z" fill="#263238"/>
<path d="M185.603 97.6074H182.834V98.4218H185.603V97.6074Z" fill="white"/>
<path d="M185.39 102.485H183.873V107.875H185.39V102.485Z" fill="#263238"/>
<path d="M185.603 107.875H182.834V108.689H185.603V107.875Z" fill="white"/>
<path d="M185.541 112.487H184.024V117.877H185.541V112.487Z" fill="#263238"/>
<path d="M185.754 117.878H182.985V118.692H185.754V117.878Z" fill="white"/>
<path d="M185.692 122.488H184.175V127.878H185.692V122.488Z" fill="#263238"/>
<path d="M185.904 127.879H183.136V128.693H185.904V127.879Z" fill="white"/>
<path d="M185.842 132.489H184.325V137.879H185.842V132.489Z" fill="#263238"/>
<path d="M186.055 137.88H183.286V138.694H186.055V137.88Z" fill="white"/>
<path d="M180.752 71.6758H179.235V77.0658H180.752V71.6758Z" fill="#263238"/>
<path d="M180.964 77.0664H178.196V77.8808H180.964V77.0664Z" fill="white"/>
<path d="M180.751 81.9502H179.234V87.3402H180.751V81.9502Z" fill="#263238"/>
<path d="M180.964 87.3428H178.195V88.1571H180.964V87.3428Z" fill="white"/>
<path d="M180.752 92.2168H179.235V97.6068H180.752V92.2168Z" fill="#263238"/>
<path d="M180.965 97.6074H178.196V98.4218H180.965V97.6074Z" fill="white"/>
<path d="M180.752 102.485H179.235V107.875H180.752V102.485Z" fill="#263238"/>
<path d="M180.964 107.875H178.196V108.689H180.964V107.875Z" fill="white"/>
<path d="M180.902 112.487H179.385V117.877H180.902V112.487Z" fill="#263238"/>
<path d="M181.115 117.878H178.346V118.692H181.115V117.878Z" fill="white"/>
<path d="M181.053 122.488H179.536V127.878H181.053V122.488Z" fill="#263238"/>
<path d="M181.266 127.879H178.497V128.693H181.266V127.879Z" fill="white"/>
<path d="M181.203 132.489H179.687V137.879H181.203V132.489Z" fill="#263238"/>
<path d="M181.416 137.88H178.647V138.694H181.416V137.88Z" fill="white"/>
<g opacity="0.3">
<path d="M189.182 144.209H175.557V69.9133L189.493 64.0283L189.182 144.209Z" fill="black"/>
</g>
<path d="M100.201 68.1777H59.0557V164.213H100.201V68.1777Z" fill="#E0E0E0"/>
<path d="M77.7451 71.8311H75.0439V75.1965H77.7451V71.8311Z" fill="#455A64"/>
<g opacity="0.3">
<path d="M75.0439 71.8311V72.2495H77.288V75.1965H77.7451V71.8311H75.0439Z" fill="black"/>
</g>
<path d="M81.8906 71.8311H79.1895V75.1965H81.8906V71.8311Z" fill="#455A64"/>
<g opacity="0.3">
<path d="M79.1895 71.8311V72.2495H81.4334V75.1965H81.8906V71.8311H79.1895Z" fill="black"/>
</g>
<path d="M86.0356 71.8311H83.3345V75.1965H86.0356V71.8311Z" fill="#455A64"/>
<g opacity="0.3">
<path d="M83.335 71.8311V72.2495H85.579V75.1965H86.0361V71.8311H83.335Z" fill="black"/>
</g>
<path d="M90.1811 71.8311H87.48V75.1965H90.1811V71.8311Z" fill="#455A64"/>
<g opacity="0.3">
<path d="M87.48 71.8311V72.2495H89.724V75.1965H90.1811V71.8311H87.48Z" fill="black"/>
</g>
<path d="M94.3261 71.8311H91.625V75.1965H94.3261V71.8311Z" fill="#455A64"/>
<g opacity="0.3">
<path d="M91.625 71.8311V72.2495H93.8742V75.1965H94.3261V71.8311H91.625Z" fill="black"/>
</g>
<path d="M98.4707 71.8311H95.7695V75.1965H98.4707V71.8311Z" fill="#455A64"/>
<g opacity="0.3">
<path d="M95.7695 71.8311V72.2495H98.0187V75.1965H98.4707V71.8311H95.7695Z" fill="black"/>
</g>
<path d="M63.4814 71.8311H60.7803V75.1965H63.4814V71.8311Z" fill="#455A64"/>
<g opacity="0.3">
<path d="M60.7803 71.8311V72.2495H63.0295V75.1965H63.4814V71.8311H60.7803Z" fill="black"/>
</g>
<path d="M67.6269 71.8311H64.9258V75.1965H67.6269V71.8311Z" fill="#455A64"/>
<g opacity="0.3">
<path d="M64.9253 71.8311V72.2495H67.1745V75.1965H67.6264V71.8311H64.9253Z" fill="black"/>
</g>
<path d="M71.7714 71.8311H69.0703V75.1965H71.7714V71.8311Z" fill="#455A64"/>
<g opacity="0.3">
<path d="M69.0703 71.8311V72.2495H71.3195V75.1965H71.7766V71.8311H69.0703Z" fill="black"/>
</g>
<path d="M77.7451 76.8242H75.0439V80.1896H77.7451V76.8242Z" fill="#455A64"/>
<g opacity="0.3">
<path d="M75.0439 76.8242V77.2426H77.288V80.1896H77.7451V76.8242H75.0439Z" fill="black"/>
</g>
<path d="M81.8901 76.8242H79.189V80.1896H81.8901V76.8242Z" fill="#455A64"/>
<g opacity="0.3">
<path d="M79.189 76.8242V77.2426H81.433V80.1896H81.8901V76.8242H79.189Z" fill="black"/>
</g>
<path d="M86.0361 76.8242H83.335V80.1896H86.0361V76.8242Z" fill="#455A64"/>
<g opacity="0.3">
<path d="M83.3345 76.8242V77.2426H85.5785V80.1896H86.0356V76.8242H83.3345Z" fill="black"/>
</g>
<path d="M90.1811 76.8242H87.48V80.1896H90.1811V76.8242Z" fill="#455A64"/>
<g opacity="0.3">
<path d="M87.48 76.8242V77.2426H89.724V80.1896H90.1811V76.8242H87.48Z" fill="black"/>
</g>
<path d="M94.3261 76.8242H91.625V80.1896H94.3261V76.8242Z" fill="#455A64"/>
<g opacity="0.3">
<path d="M91.625 76.8242V77.2426H93.8742V80.1896H94.3261V76.8242H91.625Z" fill="black"/>
</g>
<path d="M98.4716 76.8242H95.7705V80.1896H98.4716V76.8242Z" fill="#455A64"/>
<g opacity="0.3">
<path d="M95.77 76.8242V77.2426H98.0192V80.1896H98.4711V76.8242H95.77Z" fill="black"/>
</g>
<path d="M63.4814 76.8242H60.7803V80.1896H63.4814V76.8242Z" fill="#455A64"/>
<g opacity="0.3">
<path d="M60.7803 76.8242V77.2426H63.0295V80.1896H63.4814V76.8242H60.7803Z" fill="black"/>
</g>
<path d="M67.6264 76.8242H64.9253V80.1896H67.6264V76.8242Z" fill="#455A64"/>
<g opacity="0.3">
<path d="M64.9253 76.8242V77.2426H67.1745V80.1896H67.6264V76.8242H64.9253Z" fill="black"/>
</g>
<path d="M71.7714 76.8242H69.0703V80.1896H71.7714V76.8242Z" fill="#455A64"/>
<g opacity="0.3">
<path d="M69.0703 76.8242V77.2426H71.3195V80.1896H71.7766V76.8242H69.0703Z" fill="black"/>
</g>
<path d="M77.7451 81.8193H75.0439V85.1847H77.7451V81.8193Z" fill="#455A64"/>
<g opacity="0.3">
<path d="M75.0439 81.8193V82.2378H77.288V85.1847H77.7451V81.8193H75.0439Z" fill="black"/>
</g>
<path d="M81.8906 81.8193H79.1895V85.1847H81.8906V81.8193Z" fill="#455A64"/>
<g opacity="0.3">
<path d="M79.1895 81.8193V82.2378H81.4334V85.1847H81.8906V81.8193H79.1895Z" fill="black"/>
</g>
<path d="M86.0356 81.8193H83.3345V85.1847H86.0356V81.8193Z" fill="#455A64"/>
<g opacity="0.3">
<path d="M83.335 81.8193V82.2378H85.579V85.1847H86.0361V81.8193H83.335Z" fill="black"/>
</g>
<path d="M90.1811 81.8193H87.48V85.1847H90.1811V81.8193Z" fill="#455A64"/>
<g opacity="0.3">
<path d="M87.48 81.8193V82.2378H89.724V85.1847H90.1811V81.8193H87.48Z" fill="black"/>
</g>
<path d="M94.3261 81.8193H91.625V85.1847H94.3261V81.8193Z" fill="#455A64"/>
<g opacity="0.3">
<path d="M91.625 81.8193V82.2378H93.8742V85.1847H94.3261V81.8193H91.625Z" fill="black"/>
</g>
<path d="M98.4711 81.8193H95.77V85.1847H98.4711V81.8193Z" fill="#455A64"/>
<g opacity="0.3">
<path d="M95.77 81.8193V82.2378H98.0192V85.1847H98.4711V81.8193H95.77Z" fill="black"/>
</g>
<path d="M63.4814 81.8193H60.7803V85.1847H63.4814V81.8193Z" fill="#455A64"/>
<g opacity="0.3">
<path d="M60.7803 81.8193V82.2378H63.0295V85.1847H63.4814V81.8193H60.7803Z" fill="black"/>
</g>
<path d="M67.6264 81.8193H64.9253V85.1847H67.6264V81.8193Z" fill="#455A64"/>
<g opacity="0.3">
<path d="M64.9253 81.8193V82.2378H67.1745V85.1847H67.6264V81.8193H64.9253Z" fill="black"/>
</g>
<path d="M71.7714 81.8193H69.0703V85.1847H71.7714V81.8193Z" fill="#455A64"/>
<g opacity="0.3">
<path d="M69.0703 81.8193V82.2378H71.3195V85.1847H71.7766V81.8193H69.0703Z" fill="black"/>
</g>
<g opacity="0.4">
<path d="M63.4814 71.8311H60.7803V75.1965H63.4814V71.8311Z" fill="white"/>
<g opacity="0.3">
<path d="M60.7803 71.8311V72.2495H63.0295V75.1965H63.4814V71.8311H60.7803Z" fill="white"/>
</g>
</g>
<g opacity="0.4">
<path d="M67.6269 71.8311H64.9258V75.1965H67.6269V71.8311Z" fill="white"/>
<g opacity="0.3">
<path d="M64.9253 71.8311V72.2495H67.1745V75.1965H67.6264V71.8311H64.9253Z" fill="white"/>
</g>
</g>
<g opacity="0.4">
<path d="M71.7714 71.8311H69.0703V75.1965H71.7714V71.8311Z" fill="white"/>
<g opacity="0.3">
<path d="M69.0703 71.8311V72.2495H71.3195V75.1965H71.7766V71.8311H69.0703Z" fill="white"/>
</g>
</g>
<g opacity="0.4">
<path d="M63.4814 76.8242H60.7803V80.1896H63.4814V76.8242Z" fill="white"/>
<g opacity="0.3">
<path d="M60.7803 76.8242V77.2426H63.0295V80.1896H63.4814V76.8242H60.7803Z" fill="white"/>
</g>
</g>
<g opacity="0.4">
<path d="M67.6264 76.8242H64.9253V80.1896H67.6264V76.8242Z" fill="white"/>
<g opacity="0.3">
<path d="M64.9253 76.8242V77.2426H67.1745V80.1896H67.6264V76.8242H64.9253Z" fill="white"/>
</g>
</g>
<g opacity="0.4">
<path d="M71.7714 76.8242H69.0703V80.1896H71.7714V76.8242Z" fill="white"/>
<g opacity="0.3">
<path d="M69.0703 76.8242V77.2426H71.3195V80.1896H71.7766V76.8242H69.0703Z" fill="white"/>
</g>
</g>
<g opacity="0.4">
<path d="M63.4814 81.8193H60.7803V85.1847H63.4814V81.8193Z" fill="white"/>
<g opacity="0.3">
<path d="M60.7803 81.8193V82.2378H63.0295V85.1847H63.4814V81.8193H60.7803Z" fill="white"/>
</g>
</g>
<g opacity="0.4">
<path d="M71.7714 81.8193H69.0703V85.1847H71.7714V81.8193Z" fill="white"/>
<g opacity="0.3">
<path d="M69.0703 81.8193V82.2378H71.3195V85.1847H71.7766V81.8193H69.0703Z" fill="white"/>
</g>
</g>
<path d="M77.7451 86.8145H75.0439V90.1798H77.7451V86.8145Z" fill="#455A64"/>
<g opacity="0.3">
<path d="M75.0439 86.8145V87.2329H77.288V90.1798H77.7451V86.8145H75.0439Z" fill="black"/>
</g>
<path d="M81.8901 86.8145H79.189V90.1798H81.8901V86.8145Z" fill="#455A64"/>
<g opacity="0.3">
<path d="M79.189 86.8145V87.2329H81.433V90.1798H81.8901V86.8145H79.189Z" fill="black"/>
</g>
<path d="M86.0356 86.8145H83.3345V90.1798H86.0356V86.8145Z" fill="#455A64"/>
<g opacity="0.3">
<path d="M83.335 86.8145V87.2329H85.579V90.1798H86.0361V86.8145H83.335Z" fill="black"/>
</g>
<path d="M90.1811 86.8145H87.48V90.1798H90.1811V86.8145Z" fill="#455A64"/>
<g opacity="0.3">
<path d="M87.48 86.8145V87.2329H89.724V90.1798H90.1811V86.8145H87.48Z" fill="black"/>
</g>
<path d="M94.3261 86.8145H91.625V90.1798H94.3261V86.8145Z" fill="#455A64"/>
<g opacity="0.3">
<path d="M91.625 86.8145V87.2329H93.8742V90.1798H94.3261V86.8145H91.625Z" fill="black"/>
</g>
<path d="M98.4711 86.8145H95.77V90.1798H98.4711V86.8145Z" fill="#455A64"/>
<g opacity="0.3">
<path d="M95.77 86.8145V87.2329H98.0192V90.1798H98.4711V86.8145H95.77Z" fill="black"/>
</g>
<path d="M63.4814 86.8145H60.7803V90.1798H63.4814V86.8145Z" fill="#455A64"/>
<g opacity="0.3">
<path d="M60.7803 86.8145V87.2329H63.0295V90.1798H63.4814V86.8145H60.7803Z" fill="black"/>
</g>
<path d="M67.6264 86.8145H64.9253V90.1798H67.6264V86.8145Z" fill="#455A64"/>
<g opacity="0.3">
<path d="M64.9253 86.8145V87.2329H67.1745V90.1798H67.6264V86.8145H64.9253Z" fill="black"/>
</g>
<path d="M71.7714 86.8145H69.0703V90.1798H71.7714V86.8145Z" fill="#455A64"/>
<g opacity="0.3">
<path d="M69.0703 86.8145V87.2329H71.3195V90.1798H71.7766V86.8145H69.0703Z" fill="black"/>
</g>
<path d="M77.7446 91.8057H75.0435V95.1711H77.7446V91.8057Z" fill="#455A64"/>
<g opacity="0.3">
<path d="M75.043 91.8057V92.2241H77.287V95.1711H77.7441V91.8057H75.043Z" fill="black"/>
</g>
<path d="M81.8901 91.8057H79.189V95.1711H81.8901V91.8057Z" fill="#455A64"/>
<g opacity="0.3">
<path d="M79.189 91.8057V92.2241H81.433V95.1711H81.8901V91.8057H79.189Z" fill="black"/>
</g>
<path d="M86.0361 91.8057H83.335V95.1711H86.0361V91.8057Z" fill="#455A64"/>
<g opacity="0.3">
<path d="M83.335 91.8057V92.2241H85.579V95.1711H86.0361V91.8057H83.335Z" fill="black"/>
</g>
<path d="M90.1811 91.8057H87.48V95.1711H90.1811V91.8057Z" fill="#455A64"/>
<g opacity="0.3">
<path d="M87.48 91.8057V92.2241H89.724V95.1711H90.1811V91.8057H87.48Z" fill="black"/>
</g>
<path d="M94.3261 91.8057H91.625V95.1711H94.3261V91.8057Z" fill="#455A64"/>
<g opacity="0.3">
<path d="M91.625 91.8057V92.2241H93.8742V95.1711H94.3261V91.8057H91.625Z" fill="black"/>
</g>
<path d="M98.4711 91.8057H95.77V95.1711H98.4711V91.8057Z" fill="#455A64"/>
<g opacity="0.3">
<path d="M95.77 91.8057V92.2241H98.0192V95.1711H98.4711V91.8057H95.77Z" fill="black"/>
</g>
<path d="M63.4814 91.8057H60.7803V95.1711H63.4814V91.8057Z" fill="#455A64"/>
<g opacity="0.3">
<path d="M60.7803 91.8057V92.2241H63.0295V95.1711H63.4814V91.8057H60.7803Z" fill="black"/>
</g>
<path d="M67.6264 91.8057H64.9253V95.1711H67.6264V91.8057Z" fill="#455A64"/>
<g opacity="0.3">
<path d="M64.9253 91.8057V92.2241H67.1745V95.1711H67.6264V91.8057H64.9253Z" fill="black"/>
</g>
<path d="M71.7714 91.8057H69.0703V95.1711H71.7714V91.8057Z" fill="#455A64"/>
<g opacity="0.3">
<path d="M69.0703 91.8057V92.2241H71.3195V95.1711H71.7766V91.8057H69.0703Z" fill="black"/>
</g>
<path d="M77.7451 96.8018H75.0439V100.167H77.7451V96.8018Z" fill="#455A64"/>
<g opacity="0.3">
<path d="M75.0439 96.8018V97.2202H77.288V100.167H77.7451V96.8018H75.0439Z" fill="black"/>
</g>
<path d="M81.8901 96.8018H79.189V100.167H81.8901V96.8018Z" fill="#455A64"/>
<g opacity="0.3">
<path d="M79.189 96.8018V97.2202H81.433V100.167H81.8901V96.8018H79.189Z" fill="black"/>
</g>
<path d="M86.0356 96.8018H83.3345V100.167H86.0356V96.8018Z" fill="#455A64"/>
<g opacity="0.3">
<path d="M83.335 96.8018V97.2202H85.579V100.167H86.0361V96.8018H83.335Z" fill="black"/>
</g>
<path d="M90.1811 96.8018H87.48V100.167H90.1811V96.8018Z" fill="#455A64"/>
<g opacity="0.3">
<path d="M87.48 96.8018V97.2202H89.724V100.167H90.1811V96.8018H87.48Z" fill="black"/>
</g>
<path d="M94.3261 96.8018H91.625V100.167H94.3261V96.8018Z" fill="#455A64"/>
<g opacity="0.3">
<path d="M91.625 96.8018V97.2202H93.8742V100.167H94.3261V96.8018H91.625Z" fill="black"/>
</g>
<path d="M98.4711 96.8018H95.77V100.167H98.4711V96.8018Z" fill="#455A64"/>
<g opacity="0.3">
<path d="M95.77 96.8018V97.2202H98.0192V100.167H98.4711V96.8018H95.77Z" fill="black"/>
</g>
<path d="M63.4814 96.8018H60.7803V100.167H63.4814V96.8018Z" fill="#455A64"/>
<g opacity="0.3">
<path d="M60.7803 96.8018V97.2202H63.0295V100.167H63.4814V96.8018H60.7803Z" fill="black"/>
</g>
<path d="M67.6264 96.8018H64.9253V100.167H67.6264V96.8018Z" fill="#455A64"/>
<g opacity="0.3">
<path d="M64.9253 96.8018V97.2202H67.1745V100.167H67.6264V96.8018H64.9253Z" fill="black"/>
</g>
<path d="M71.7714 96.8018H69.0703V100.167H71.7714V96.8018Z" fill="#455A64"/>
<g opacity="0.3">
<path d="M69.0703 96.8018V97.2202H71.3195V100.167H71.7766V96.8018H69.0703Z" fill="black"/>
</g>
<path d="M77.7446 104.184H75.0435V107.549H77.7446V104.184Z" fill="#455A64"/>
<g opacity="0.3">
<path d="M75.043 104.184V104.598H77.287V107.544H77.7441V104.184H75.043Z" fill="black"/>
</g>
<path d="M81.8906 104.184H79.1895V107.549H81.8906V104.184Z" fill="#455A64"/>
<g opacity="0.3">
<path d="M79.1895 104.184V104.598H81.4334V107.544H81.8906V104.184H79.1895Z" fill="black"/>
</g>
<path d="M86.0356 104.184H83.3345V107.549H86.0356V104.184Z" fill="#455A64"/>
<g opacity="0.3">
<path d="M83.335 104.184V104.598H85.579V107.544H86.0361V104.184H83.335Z" fill="black"/>
</g>
<path d="M90.1811 104.184H87.48V107.549H90.1811V104.184Z" fill="#455A64"/>
<g opacity="0.3">
<path d="M87.48 104.184V104.598H89.724V107.544H90.1811V104.184H87.48Z" fill="black"/>
</g>
<path d="M94.3261 104.184H91.625V107.549H94.3261V104.184Z" fill="#455A64"/>
<g opacity="0.3">
<path d="M91.625 104.184V104.598H93.8742V107.544H94.3261V104.184H91.625Z" fill="black"/>
</g>
<path d="M98.4711 104.184H95.77V107.549H98.4711V104.184Z" fill="#455A64"/>
<g opacity="0.3">
<path d="M95.77 104.184V104.598H98.0192V107.544H98.4711V104.184H95.77Z" fill="black"/>
</g>
<path d="M63.4814 104.184H60.7803V107.549H63.4814V104.184Z" fill="#455A64"/>
<g opacity="0.3">
<path d="M60.7803 104.184V104.598H63.0295V107.544H63.4814V104.184H60.7803Z" fill="black"/>
</g>
<path d="M67.6264 104.184H64.9253V107.549H67.6264V104.184Z" fill="#455A64"/>
<g opacity="0.3">
<path d="M64.9253 104.184V104.598H67.1745V107.544H67.6264V104.184H64.9253Z" fill="black"/>
</g>
<path d="M71.7714 104.184H69.0703V107.549H71.7714V104.184Z" fill="#455A64"/>
<g opacity="0.3">
<path d="M69.0703 104.184V104.598H71.3195V107.544H71.7766V104.184H69.0703Z" fill="black"/>
</g>
<path d="M77.7451 109.008H75.0439V112.373H77.7451V109.008Z" fill="#455A64"/>
<g opacity="0.3">
<path d="M75.0439 109.008V109.422H77.288V112.369H77.7451V109.008H75.0439Z" fill="black"/>
</g>
<path d="M81.8906 109.008H79.1895V112.373H81.8906V109.008Z" fill="#455A64"/>
<g opacity="0.3">
<path d="M79.1895 109.008V109.422H81.4334V112.369H81.8906V109.008H79.1895Z" fill="black"/>
</g>
<path d="M86.0356 109.008H83.3345V112.373H86.0356V109.008Z" fill="#455A64"/>
<g opacity="0.3">
<path d="M83.3345 109.008V109.422H85.5785V112.369H86.0356V109.008H83.3345Z" fill="black"/>
</g>
<path d="M90.1811 109.008H87.48V112.373H90.1811V109.008Z" fill="#455A64"/>
<g opacity="0.3">
<path d="M87.48 109.008V109.422H89.724V112.369H90.1811V109.008H87.48Z" fill="black"/>
</g>
<path d="M94.3261 109.008H91.625V112.373H94.3261V109.008Z" fill="#455A64"/>
<g opacity="0.3">
<path d="M91.625 109.008V109.422H93.8742V112.369H94.3261V109.008H91.625Z" fill="black"/>
</g>
<path d="M98.4707 109.008H95.7695V112.373H98.4707V109.008Z" fill="#455A64"/>
<g opacity="0.3">
<path d="M95.7695 109.008V109.422H98.0187V112.369H98.4707V109.008H95.7695Z" fill="black"/>
</g>
<path d="M63.4814 109.008H60.7803V112.373H63.4814V109.008Z" fill="#455A64"/>
<g opacity="0.3">
<path d="M60.7803 109.008V109.422H63.0295V112.369H63.4814V109.008H60.7803Z" fill="black"/>
</g>
<path d="M67.6264 109.008H64.9253V112.373H67.6264V109.008Z" fill="#455A64"/>
<g opacity="0.3">
<path d="M64.9253 109.008V109.422H67.1745V112.369H67.6264V109.008H64.9253Z" fill="black"/>
</g>
<path d="M71.7714 109.008H69.0703V112.373H71.7714V109.008Z" fill="#455A64"/>
<g opacity="0.3">
<path d="M69.0703 109.008V109.422H71.3195V112.369H71.7766V109.008H69.0703Z" fill="black"/>
</g>
<path d="M77.7451 113.83H75.0439V117.195H77.7451V113.83Z" fill="#455A64"/>
<g opacity="0.3">
<path d="M75.0439 113.83V114.244H77.288V117.191H77.7451V113.83H75.0439Z" fill="black"/>
</g>
<path d="M81.8906 113.83H79.1895V117.195H81.8906V113.83Z" fill="#455A64"/>
<g opacity="0.3">
<path d="M79.1895 113.83V114.244H81.4334V117.191H81.8906V113.83H79.1895Z" fill="black"/>
</g>
<path d="M86.0361 113.83H83.335V117.195H86.0361V113.83Z" fill="#455A64"/>
<g opacity="0.3">
<path d="M83.335 113.83V114.244H85.579V117.191H86.0361V113.83H83.335Z" fill="black"/>
</g>
<path d="M90.1811 113.83H87.48V117.195H90.1811V113.83Z" fill="#455A64"/>
<g opacity="0.3">
<path d="M87.48 113.83V114.244H89.724V117.191H90.1811V113.83H87.48Z" fill="black"/>
</g>
<path d="M94.3261 113.83H91.625V117.195H94.3261V113.83Z" fill="#455A64"/>
<g opacity="0.3">
<path d="M91.625 113.83V114.244H93.8742V117.191H94.3261V113.83H91.625Z" fill="black"/>
</g>
<path d="M98.4707 113.83H95.7695V117.195H98.4707V113.83Z" fill="#455A64"/>
<g opacity="0.3">
<path d="M95.7695 113.83V114.244H98.0187V117.191H98.4707V113.83H95.7695Z" fill="black"/>
</g>
<path d="M63.4814 113.83H60.7803V117.195H63.4814V113.83Z" fill="#455A64"/>
<g opacity="0.3">
<path d="M60.7803 113.83V114.244H63.0295V117.191H63.4814V113.83H60.7803Z" fill="black"/>
</g>
<path d="M67.6264 113.83H64.9253V117.195H67.6264V113.83Z" fill="#455A64"/>
<g opacity="0.3">
<path d="M64.9253 113.83V114.244H67.1745V117.191H67.6264V113.83H64.9253Z" fill="black"/>
</g>
<path d="M71.7714 113.83H69.0703V117.195H71.7714V113.83Z" fill="#455A64"/>
<g opacity="0.3">
<path d="M69.0703 113.83V114.244H71.3195V117.191H71.7766V113.83H69.0703Z" fill="black"/>
</g>
<path d="M77.7451 118.651H75.0439V122.017H77.7451V118.651Z" fill="#455A64"/>
<g opacity="0.3">
<path d="M75.0439 118.651V119.07H77.288V122.017H77.7451V118.651H75.0439Z" fill="black"/>
</g>
<path d="M81.8906 118.651H79.1895V122.017H81.8906V118.651Z" fill="#455A64"/>
<g opacity="0.3">
<path d="M79.1895 118.651V119.07H81.4334V122.017H81.8906V118.651H79.1895Z" fill="black"/>
</g>
<path d="M86.0351 118.651H83.334V122.017H86.0351V118.651Z" fill="#455A64"/>
<g opacity="0.3">
<path d="M83.334 118.651V119.07H85.578V122.017H86.0351V118.651H83.334Z" fill="black"/>
</g>
<path d="M90.1811 118.651H87.48V122.017H90.1811V118.651Z" fill="#455A64"/>
<g opacity="0.3">
<path d="M87.48 118.651V119.07H89.724V122.017H90.1811V118.651H87.48Z" fill="black"/>
</g>
<path d="M94.3261 118.651H91.625V122.017H94.3261V118.651Z" fill="#455A64"/>
<g opacity="0.3">
<path d="M91.625 118.651V119.07H93.8742V122.017H94.3261V118.651H91.625Z" fill="black"/>
</g>
<path d="M98.4707 118.651H95.7695V122.017H98.4707V118.651Z" fill="#455A64"/>
<g opacity="0.3">
<path d="M95.7695 118.651V119.07H98.0187V122.017H98.4707V118.651H95.7695Z" fill="black"/>
</g>
<path d="M63.4814 118.651H60.7803V122.017H63.4814V118.651Z" fill="#455A64"/>
<g opacity="0.3">
<path d="M60.7803 118.651V119.07H63.0295V122.017H63.4814V118.651H60.7803Z" fill="black"/>
</g>
<path d="M67.6264 118.651H64.9253V122.017H67.6264V118.651Z" fill="#455A64"/>
<g opacity="0.3">
<path d="M64.9253 118.651V119.07H67.1745V122.017H67.6264V118.651H64.9253Z" fill="black"/>
</g>
<path d="M71.7714 118.651H69.0703V122.017H71.7714V118.651Z" fill="#455A64"/>
<g opacity="0.3">
<path d="M69.0703 118.651V119.07H71.3195V122.017H71.7766V118.651H69.0703Z" fill="black"/>
</g>
<path d="M77.7451 123.471H75.0439V126.836H77.7451V123.471Z" fill="#455A64"/>
<g opacity="0.3">
<path d="M75.0439 123.471V123.889H77.288V126.836H77.7451V123.471H75.0439Z" fill="black"/>
</g>
<path d="M81.8901 123.471H79.189V126.836H81.8901V123.471Z" fill="#455A64"/>
<g opacity="0.3">
<path d="M79.189 123.471V123.889H81.433V126.836H81.8901V123.471H79.189Z" fill="black"/>
</g>
<path d="M86.0351 123.471H83.334V126.836H86.0351V123.471Z" fill="#455A64"/>
<g opacity="0.3">
<path d="M83.334 123.471V123.889H85.578V126.836H86.0351V123.471H83.334Z" fill="black"/>
</g>
<path d="M90.1811 123.471H87.48V126.836H90.1811V123.471Z" fill="#455A64"/>
<g opacity="0.3">
<path d="M87.48 123.471V123.889H89.724V126.836H90.1811V123.471H87.48Z" fill="black"/>
</g>
<path d="M94.3261 123.471H91.625V126.836H94.3261V123.471Z" fill="#455A64"/>
<g opacity="0.3">
<path d="M91.625 123.471V123.889H93.8742V126.836H94.3261V123.471H91.625Z" fill="black"/>
</g>
<path d="M98.4711 123.471H95.77V126.836H98.4711V123.471Z" fill="#455A64"/>
<g opacity="0.3">
<path d="M95.77 123.471V123.889H98.0192V126.836H98.4711V123.471H95.77Z" fill="black"/>
</g>
<path d="M63.4814 123.471H60.7803V126.836H63.4814V123.471Z" fill="#455A64"/>
<g opacity="0.3">
<path d="M60.7803 123.471V123.889H63.0295V126.836H63.4814V123.471H60.7803Z" fill="black"/>
</g>
<path d="M67.6264 123.471H64.9253V126.836H67.6264V123.471Z" fill="#455A64"/>
<g opacity="0.3">
<path d="M64.9253 123.471V123.889H67.1745V126.836H67.6264V123.471H64.9253Z" fill="black"/>
</g>
<path d="M71.7714 123.471H69.0703V126.836H71.7714V123.471Z" fill="#455A64"/>
<g opacity="0.3">
<path d="M69.0703 123.471V123.889H71.3195V126.836H71.7766V123.471H69.0703Z" fill="black"/>
</g>
<path d="M77.7451 128.294H75.0439V131.659H77.7451V128.294Z" fill="#455A64"/>
<g opacity="0.3">
<path d="M75.0444 128.294V128.712H77.2884V131.659H77.7456V128.294H75.0444Z" fill="black"/>
</g>
<path d="M81.8906 128.294H79.1895V131.659H81.8906V128.294Z" fill="#455A64"/>
<g opacity="0.3">
<path d="M79.1895 128.294V128.712H81.4334V131.659H81.8906V128.294H79.1895Z" fill="black"/>
</g>
<path d="M86.0351 128.294H83.334V131.659H86.0351V128.294Z" fill="#455A64"/>
<g opacity="0.3">
<path d="M83.334 128.294V128.712H85.578V131.659H86.0351V128.294H83.334Z" fill="black"/>
</g>
<path d="M90.1806 128.294H87.4795V131.659H90.1806V128.294Z" fill="#455A64"/>
<g opacity="0.3">
<path d="M87.4795 128.294V128.712H89.7235V131.659H90.1806V128.294H87.4795Z" fill="black"/>
</g>
<path d="M94.3261 128.294H91.625V131.659H94.3261V128.294Z" fill="#455A64"/>
<g opacity="0.3">
<path d="M91.625 128.294V128.712H93.8742V131.659H94.3261V128.294H91.625Z" fill="black"/>
</g>
<path d="M98.4711 128.294H95.77V131.659H98.4711V128.294Z" fill="#455A64"/>
<g opacity="0.3">
<path d="M95.77 128.294V128.712H98.0192V131.659H98.4711V128.294H95.77Z" fill="black"/>
</g>
<path d="M63.4814 128.294H60.7803V131.659H63.4814V128.294Z" fill="#455A64"/>
<g opacity="0.3">
<path d="M60.7803 128.294V128.712H63.0295V131.659H63.4814V128.294H60.7803Z" fill="black"/>
</g>
<path d="M67.6264 128.294H64.9253V131.659H67.6264V128.294Z" fill="#455A64"/>
<g opacity="0.3">
<path d="M64.9253 128.294V128.712H67.1745V131.659H67.6264V128.294H64.9253Z" fill="black"/>
</g>
<path d="M71.7714 128.294H69.0703V131.659H71.7714V128.294Z" fill="#455A64"/>
<g opacity="0.3">
<path d="M69.0703 128.294V128.712H71.3195V131.659H71.7766V128.294H69.0703Z" fill="black"/>
</g>
<path d="M77.7451 134.616H75.0439V137.982H77.7451V134.616Z" fill="#455A64"/>
<g opacity="0.3">
<path d="M75.0439 134.616V135.035H77.288V137.982H77.7451V134.616H75.0439Z" fill="black"/>
</g>
<path d="M81.8901 134.616H79.189V137.982H81.8901V134.616Z" fill="#455A64"/>
<g opacity="0.3">
<path d="M79.189 134.616V135.035H81.433V137.982H81.8901V134.616H79.189Z" fill="black"/>
</g>
<path d="M86.0356 134.616H83.3345V137.982H86.0356V134.616Z" fill="#455A64"/>
<g opacity="0.3">
<path d="M83.3345 134.616V135.035H85.5785V137.982H86.0356V134.616H83.3345Z" fill="black"/>
</g>
<path d="M90.1811 134.616H87.48V137.982H90.1811V134.616Z" fill="#455A64"/>
<g opacity="0.3">
<path d="M87.48 134.616V135.035H89.724V137.982H90.1811V134.616H87.48Z" fill="black"/>
</g>
<path d="M94.3261 134.616H91.625V137.982H94.3261V134.616Z" fill="#455A64"/>
<g opacity="0.3">
<path d="M91.625 134.616V135.035H93.8742V137.982H94.3261V134.616H91.625Z" fill="black"/>
</g>
<path d="M98.4716 134.616H95.7705V137.982H98.4716V134.616Z" fill="#455A64"/>
<g opacity="0.3">
<path d="M95.77 134.616V135.035H98.0192V137.982H98.4711V134.616H95.77Z" fill="black"/>
</g>
<path d="M63.4814 134.616H60.7803V137.982H63.4814V134.616Z" fill="#455A64"/>
<g opacity="0.3">
<path d="M60.7803 134.616V135.035H63.0295V137.982H63.4814V134.616H60.7803Z" fill="black"/>
</g>
<path d="M67.6264 134.616H64.9253V137.982H67.6264V134.616Z" fill="#455A64"/>
<g opacity="0.3">
<path d="M64.9253 134.616V135.035H67.1745V137.982H67.6264V134.616H64.9253Z" fill="black"/>
</g>
<path d="M71.7714 134.616H69.0703V137.982H71.7714V134.616Z" fill="#455A64"/>
<g opacity="0.3">
<path d="M69.0703 134.616V135.035H71.3195V137.982H71.7766V134.616H69.0703Z" fill="black"/>
</g>
<path d="M77.7451 139.439H75.0439V142.805H77.7451V139.439Z" fill="#455A64"/>
<g opacity="0.3">
<path d="M75.0439 139.439V139.858H77.288V142.805H77.7451V139.439H75.0439Z" fill="black"/>
</g>
<path d="M81.8906 139.439H79.1895V142.805H81.8906V139.439Z" fill="#455A64"/>
<g opacity="0.3">
<path d="M79.1895 139.439V139.858H81.4334V142.805H81.8906V139.439H79.1895Z" fill="black"/>
</g>
<path d="M86.0356 139.439H83.3345V142.805H86.0356V139.439Z" fill="#455A64"/>
<g opacity="0.3">
<path d="M83.3345 139.439V139.858H85.5785V142.805H86.0356V139.439H83.3345Z" fill="black"/>
</g>
<path d="M90.1811 139.439H87.48V142.805H90.1811V139.439Z" fill="#455A64"/>
<g opacity="0.3">
<path d="M87.48 139.439V139.858H89.724V142.805H90.1811V139.439H87.48Z" fill="black"/>
</g>
<path d="M94.3261 139.439H91.625V142.805H94.3261V139.439Z" fill="#455A64"/>
<g opacity="0.3">
<path d="M91.625 139.439V139.858H93.8742V142.805H94.3261V139.439H91.625Z" fill="black"/>
</g>
<path d="M98.4711 139.439H95.77V142.805H98.4711V139.439Z" fill="#455A64"/>
<g opacity="0.3">
<path d="M95.77 139.439V139.858H98.0192V142.805H98.4711V139.439H95.77Z" fill="black"/>
</g>
<path d="M63.4814 139.439H60.7803V142.805H63.4814V139.439Z" fill="#455A64"/>
<g opacity="0.3">
<path d="M60.7803 139.439V139.858H63.0295V142.805H63.4814V139.439H60.7803Z" fill="black"/>
</g>
<path d="M67.6264 139.439H64.9253V142.805H67.6264V139.439Z" fill="#455A64"/>
<g opacity="0.3">
<path d="M64.9253 139.439V139.858H67.1745V142.805H67.6264V139.439H64.9253Z" fill="black"/>
</g>
<path d="M71.7714 139.439H69.0703V142.805H71.7714V139.439Z" fill="#455A64"/>
<g opacity="0.3">
<path d="M69.0703 139.439V139.858H71.3195V142.805H71.7766V139.439H69.0703Z" fill="black"/>
</g>
<path d="M77.7451 144.263H75.0439V147.628H77.7451V144.263Z" fill="#455A64"/>
<g opacity="0.3">
<path d="M75.0439 144.265V144.683H77.288V147.63H77.7451V144.265H75.0439Z" fill="black"/>
</g>
<path d="M81.8901 144.263H79.189V147.628H81.8901V144.263Z" fill="#455A64"/>
<g opacity="0.3">
<path d="M79.189 144.265V144.683H81.433V147.63H81.8901V144.265H79.189Z" fill="black"/>
</g>
<path d="M86.0356 144.26H83.3345V147.625H86.0356V144.26Z" fill="#455A64"/>
<g opacity="0.3">
<path d="M83.335 144.26V144.678H85.579V147.625H86.0361V144.26H83.335Z" fill="black"/>
</g>
<path d="M90.1811 144.263H87.48V147.628H90.1811V144.263Z" fill="#455A64"/>
<g opacity="0.3">
<path d="M87.48 144.265V144.683H89.724V147.63H90.1811V144.265H87.48Z" fill="black"/>
</g>
<path d="M94.3261 144.263H91.625V147.628H94.3261V144.263Z" fill="#455A64"/>
<g opacity="0.3">
<path d="M91.625 144.265V144.683H93.8742V147.63H94.3261V144.265H91.625Z" fill="black"/>
</g>
<path d="M98.4711 144.263H95.77V147.628H98.4711V144.263Z" fill="#455A64"/>
<g opacity="0.3">
<path d="M95.77 144.265V144.683H98.0192V147.63H98.4711V144.265H95.77Z" fill="black"/>
</g>
<path d="M63.4814 144.263H60.7803V147.628H63.4814V144.263Z" fill="#455A64"/>
<g opacity="0.3">
<path d="M60.7803 144.265V144.683H63.0295V147.63H63.4814V144.265H60.7803Z" fill="black"/>
</g>
<path d="M67.6264 144.263H64.9253V147.628H67.6264V144.263Z" fill="#455A64"/>
<g opacity="0.3">
<path d="M64.9253 144.265V144.683H67.1745V147.63H67.6264V144.265H64.9253Z" fill="black"/>
</g>
<path d="M71.7714 144.263H69.0703V147.628H71.7714V144.263Z" fill="#455A64"/>
<g opacity="0.3">
<path d="M69.0703 144.265V144.683H71.3195V147.63H71.7766V144.265H69.0703Z" fill="black"/>
</g>
<path d="M77.7451 149.089H75.0439V152.454H77.7451V149.089Z" fill="#455A64"/>
<g opacity="0.3">
<path d="M75.0439 149.088V149.506H77.288V152.453H77.7451V149.088H75.0439Z" fill="black"/>
</g>
<path d="M81.8906 149.089H79.1895V152.454H81.8906V149.089Z" fill="#455A64"/>
<g opacity="0.3">
<path d="M79.1895 149.088V149.506H81.4334V152.453H81.8906V149.088H79.1895Z" fill="black"/>
</g>
<path d="M86.0356 149.089H83.3345V152.454H86.0356V149.089Z" fill="#455A64"/>
<g opacity="0.3">
<path d="M83.3345 149.088V149.506H85.5785V152.453H86.0356V149.088H83.3345Z" fill="black"/>
</g>
<path d="M90.1811 149.089H87.48V152.454H90.1811V149.089Z" fill="#455A64"/>
<g opacity="0.3">
<path d="M87.48 149.088V149.506H89.724V152.453H90.1811V149.088H87.48Z" fill="black"/>
</g>
<path d="M94.3261 149.089H91.625V152.454H94.3261V149.089Z" fill="#455A64"/>
<g opacity="0.3">
<path d="M91.6255 149.088V149.506H93.8747V152.453H94.3266V149.088H91.6255Z" fill="black"/>
</g>
<path d="M98.4716 149.089H95.7705V152.454H98.4716V149.089Z" fill="#455A64"/>
<g opacity="0.3">
<path d="M95.77 149.088V149.506H98.0192V152.453H98.4711V149.088H95.77Z" fill="black"/>
</g>
<path d="M63.4814 149.089H60.7803V152.454H63.4814V149.089Z" fill="#455A64"/>
<g opacity="0.3">
<path d="M60.7803 149.088V149.506H63.0295V152.453H63.4814V149.088H60.7803Z" fill="black"/>
</g>
<path d="M67.6264 149.089H64.9253V152.454H67.6264V149.089Z" fill="#455A64"/>
<g opacity="0.3">
<path d="M64.9253 149.088V149.506H67.1745V152.453H67.6264V149.088H64.9253Z" fill="black"/>
</g>
<path d="M71.7714 149.089H69.0703V152.454H71.7714V149.089Z" fill="#455A64"/>
<g opacity="0.3">
<path d="M69.0703 149.088V149.506H71.3195V152.453H71.7766V149.088H69.0703Z" fill="black"/>
</g>
<path d="M77.7456 153.909H75.0444V157.275H77.7456V153.909Z" fill="#455A64"/>
<g opacity="0.3">
<path d="M75.0444 153.908V154.327H77.2884V157.274H77.7456V153.908H75.0444Z" fill="black"/>
</g>
<path d="M81.8906 153.909H79.1895V157.275H81.8906V153.909Z" fill="#455A64"/>
<g opacity="0.3">
<path d="M79.1895 153.908V154.327H81.4334V157.274H81.8906V153.908H79.1895Z" fill="black"/>
</g>
<path d="M86.0356 153.909H83.3345V157.275H86.0356V153.909Z" fill="#455A64"/>
<g opacity="0.3">
<path d="M83.3345 153.908V154.327H85.5785V157.274H86.0356V153.908H83.3345Z" fill="black"/>
</g>
<path d="M90.1811 153.909H87.48V157.275H90.1811V153.909Z" fill="#455A64"/>
<g opacity="0.3">
<path d="M87.48 153.908V154.327H89.724V157.274H90.1811V153.908H87.48Z" fill="black"/>
</g>
<path d="M94.3261 153.909H91.625V157.275H94.3261V153.909Z" fill="#455A64"/>
<g opacity="0.3">
<path d="M91.625 153.908V154.327H93.8742V157.274H94.3261V153.908H91.625Z" fill="black"/>
</g>
<path d="M98.4711 153.909H95.77V157.275H98.4711V153.909Z" fill="#455A64"/>
<g opacity="0.3">
<path d="M95.77 153.908V154.327H98.0192V157.274H98.4711V153.908H95.77Z" fill="black"/>
</g>
<path d="M63.4814 153.909H60.7803V157.275H63.4814V153.909Z" fill="#455A64"/>
<g opacity="0.3">
<path d="M60.7803 153.908V154.327H63.0295V157.274H63.4814V153.908H60.7803Z" fill="black"/>
</g>
<path d="M67.6264 153.909H64.9253V157.275H67.6264V153.909Z" fill="#455A64"/>
<g opacity="0.3">
<path d="M64.9253 153.908V154.327H67.1745V157.274H67.6264V153.908H64.9253Z" fill="black"/>
</g>
<path d="M71.7714 153.909H69.0703V157.275H71.7714V153.909Z" fill="#455A64"/>
<g opacity="0.3">
<path d="M69.0703 153.908V154.327H71.3195V157.274H71.7766V153.908H69.0703Z" fill="black"/>
</g>
<path d="M77.7456 158.732H75.0444V162.098H77.7456V158.732Z" fill="#455A64"/>
<g opacity="0.3">
<path d="M75.0439 158.732V159.151H77.288V162.098H77.7451V158.732H75.0439Z" fill="black"/>
</g>
<path d="M81.8906 158.732H79.1895V162.098H81.8906V158.732Z" fill="#455A64"/>
<g opacity="0.3">
<path d="M79.1895 158.732V159.151H81.4334V162.098H81.8906V158.732H79.1895Z" fill="black"/>
</g>
<path d="M86.0356 158.732H83.3345V162.098H86.0356V158.732Z" fill="#455A64"/>
<g opacity="0.3">
<path d="M83.3345 158.732V159.151H85.5785V162.098H86.0356V158.732H83.3345Z" fill="black"/>
</g>
<path d="M90.1811 158.732H87.48V162.098H90.1811V158.732Z" fill="#455A64"/>
<g opacity="0.3">
<path d="M87.48 158.732V159.151H89.724V162.098H90.1811V158.732H87.48Z" fill="black"/>
</g>
<path d="M94.3261 158.732H91.625V162.098H94.3261V158.732Z" fill="#455A64"/>
<g opacity="0.3">
<path d="M91.625 158.732V159.151H93.8742V162.098H94.3261V158.732H91.625Z" fill="black"/>
</g>
<path d="M98.4716 158.732H95.7705V162.098H98.4716V158.732Z" fill="#455A64"/>
<g opacity="0.3">
<path d="M95.77 158.732V159.151H98.0192V162.098H98.4711V158.732H95.77Z" fill="black"/>
</g>
<path d="M63.4814 158.732H60.7803V162.098H63.4814V158.732Z" fill="#455A64"/>
<g opacity="0.3">
<path d="M60.7803 158.732V159.151H63.0295V162.098H63.4814V158.732H60.7803Z" fill="black"/>
</g>
<path d="M67.6264 158.732H64.9253V162.098H67.6264V158.732Z" fill="#455A64"/>
<g opacity="0.3">
<path d="M64.9253 158.732V159.151H67.1745V162.098H67.6264V158.732H64.9253Z" fill="black"/>
</g>
<path d="M71.7714 158.732H69.0703V162.098H71.7714V158.732Z" fill="#455A64"/>
<g opacity="0.3">
<path d="M69.0703 158.732V159.151H71.3195V162.098H71.7766V158.732H69.0703Z" fill="black"/>
</g>
<g opacity="0.4">
<path d="M77.7456 71.8311H75.0444V75.1965H77.7456V71.8311Z" fill="white"/>
</g>
<g opacity="0.4">
<path d="M81.8906 71.8311H79.1895V75.1965H81.8906V71.8311Z" fill="white"/>
</g>
<g opacity="0.4">
<path d="M86.0356 71.8311H83.3345V75.1965H86.0356V71.8311Z" fill="white"/>
</g>
<g opacity="0.4">
<path d="M90.1811 71.8311H87.48V75.1965H90.1811V71.8311Z" fill="white"/>
</g>
<g opacity="0.4">
<path d="M94.3261 71.8311H91.625V75.1965H94.3261V71.8311Z" fill="white"/>
</g>
<g opacity="0.4">
<path d="M98.4707 71.8311H95.7695V75.1965H98.4707V71.8311Z" fill="white"/>
</g>
<g opacity="0.4">
<path d="M77.7451 76.8242H75.0439V80.1896H77.7451V76.8242Z" fill="white"/>
</g>
<g opacity="0.4">
<path d="M81.8901 76.8242H79.189V80.1896H81.8901V76.8242Z" fill="white"/>
</g>
<g opacity="0.4">
<path d="M86.0356 76.8242H83.3345V80.1896H86.0356V76.8242Z" fill="white"/>
</g>
<g opacity="0.4">
<path d="M90.1811 76.8242H87.48V80.1896H90.1811V76.8242Z" fill="white"/>
</g>
<g opacity="0.4">
<path d="M94.3261 76.8242H91.625V80.1896H94.3261V76.8242Z" fill="white"/>
</g>
<g opacity="0.4">
<path d="M98.4711 76.8242H95.77V80.1896H98.4711V76.8242Z" fill="white"/>
</g>
<g opacity="0.4">
<path d="M77.7451 81.8193H75.0439V85.1847H77.7451V81.8193Z" fill="white"/>
</g>
<g opacity="0.4">
<path d="M81.8906 81.8193H79.1895V85.1847H81.8906V81.8193Z" fill="white"/>
</g>
<g opacity="0.4">
<path d="M94.3261 81.8193H91.625V85.1847H94.3261V81.8193Z" fill="white"/>
</g>
<g opacity="0.4">
<path d="M77.7451 86.8145H75.0439V90.1798H77.7451V86.8145Z" fill="white"/>
</g>
<g opacity="0.4">
<path d="M94.3261 86.8145H91.625V90.1798H94.3261V86.8145Z" fill="white"/>
</g>
<g opacity="0.3">
<path d="M73.1222 68.1758H59.0557V164.22H73.1222V68.1758Z" fill="black"/>
</g>
<path d="M51.534 164.125H75.1636L75.1636 108.263H51.534L51.534 164.125Z" fill="#FF5740"/>
<path d="M39.4675 164.125H51.5342L51.5342 108.263H39.4675L39.4675 164.125Z" fill="#FF5740"/>
<path d="M59.882 113.688H55.02V119.383H59.882V113.688Z" fill="#455A64"/>
<g opacity="0.3">
<path d="M55.02 113.688V114.395H59.0613V119.384H59.882V113.688H55.02Z" fill="black"/>
</g>
<path d="M60.1625 119.382H55.02V120.538H60.1625V119.382Z" fill="white"/>
<path d="M60.1625 112.494H55.02V113.65H60.1625V112.494Z" fill="white"/>
<path d="M71.081 119.382H65.9385V120.538H71.081V119.382Z" fill="white"/>
<path d="M71.081 112.494H65.9385V113.65H71.081V112.494Z" fill="white"/>
<path d="M70.8005 113.688H65.9385V119.384H70.8005V113.688Z" fill="#455A64"/>
<g opacity="0.3">
<path d="M65.9385 113.688V114.395H69.9798V119.384H70.8005V113.688H65.9385Z" fill="black"/>
</g>
<path d="M59.882 124.255H55.02V129.951H59.882V124.255Z" fill="#455A64"/>
<g opacity="0.3">
<path d="M55.02 124.256V124.962H59.0613V129.952H59.882V124.256H55.02Z" fill="black"/>
</g>
<path d="M60.1625 129.949H55.02V131.106H60.1625V129.949Z" fill="white"/>
<path d="M60.1625 123.062H55.02V124.218H60.1625V123.062Z" fill="white"/>
<path d="M71.081 129.949H65.9385V131.106H71.081V129.949Z" fill="white"/>
<path d="M71.081 123.062H65.9385V124.218H71.081V123.062Z" fill="white"/>
<path d="M70.8005 124.252H65.9385V129.948H70.8005V124.252Z" fill="#455A64"/>
<g opacity="0.3">
<path d="M65.9385 124.252V124.958H69.9798V129.948H70.8005V124.252H65.9385Z" fill="black"/>
</g>
<path d="M59.882 135.195H55.02V140.891H59.882V135.195Z" fill="#455A64"/>
<g opacity="0.3">
<path d="M55.02 135.193V135.9H59.0613V140.889H59.882V135.193H55.02Z" fill="black"/>
</g>
<path d="M60.162 140.889H55.0195V142.045H60.162V140.889Z" fill="white"/>
<path d="M60.162 134.001H55.0195V135.157H60.162V134.001Z" fill="white"/>
<path d="M71.081 140.889H65.9385V142.045H71.081V140.889Z" fill="white"/>
<path d="M71.081 134.001H65.9385V135.157H71.081V134.001Z" fill="white"/>
<path d="M70.801 135.196H65.939V140.892H70.801V135.196Z" fill="#455A64"/>
<g opacity="0.3">
<path d="M65.939 135.198V135.905H69.9802V140.894H70.801V135.198H65.939Z" fill="black"/>
</g>
<path d="M59.882 146.061H55.02V151.757H59.882V146.061Z" fill="#455A64"/>
<g opacity="0.3">
<path d="M55.02 146.061V146.767H59.0613V151.757H59.882V146.061H55.02Z" fill="black"/>
</g>
<path d="M60.1625 151.755H55.02V152.911H60.1625V151.755Z" fill="white"/>
<path d="M60.1625 144.867H55.02V146.023H60.1625V144.867Z" fill="white"/>
<path d="M71.081 151.755H65.9385V152.911H71.081V151.755Z" fill="white"/>
<path d="M71.081 144.867H65.9385V146.023H71.081V144.867Z" fill="white"/>
<path d="M70.8 146.059H65.938V151.755H70.8V146.059Z" fill="#455A64"/>
<g opacity="0.3">
<path d="M65.938 146.059V146.765H69.9793V151.755H70.8V146.059H65.938Z" fill="black"/>
</g>
<path d="M48.3659 113.499H46.6621V119.195H48.3659V113.499Z" fill="#00657C"/>
<path d="M48.61 119.195H45.4985V120.055H48.61V119.195Z" fill="white"/>
<path d="M43.8097 113.499H42.106V119.195H43.8097V113.499Z" fill="#00657C"/>
<path d="M44.0539 119.195H40.9424V120.055H44.0539V119.195Z" fill="white"/>
<path d="M48.3654 124.352H46.6616V130.048H48.3654V124.352Z" fill="#00657C"/>
<path d="M48.6095 130.052H45.498V130.911H48.6095V130.052Z" fill="white"/>
<path d="M43.8092 124.352H42.1055V130.048H43.8092V124.352Z" fill="#00657C"/>
<path d="M44.0534 130.052H40.9419V130.911H44.0534V130.052Z" fill="white"/>
<path d="M48.3659 135.209H46.6621V140.905H48.3659V135.209Z" fill="#00657C"/>
<path d="M48.61 140.904H45.4985V141.764H48.61V140.904Z" fill="white"/>
<path d="M43.8097 135.209H42.106V140.905H43.8097V135.209Z" fill="#00657C"/>
<path d="M44.0539 140.904H40.9424V141.764H44.0539V140.904Z" fill="white"/>
<path d="M59.8815 155.132H55.0195V164.121H59.8815V155.132Z" fill="#455A64"/>
<g opacity="0.3">
<path d="M55.0195 155.132V155.807H59.0608V164.121H59.8815V155.132H55.0195Z" fill="black"/>
</g>
<path d="M70.9455 155.132H66.0835V164.121H70.9455V155.132Z" fill="#455A64"/>
<g opacity="0.3">
<path d="M66.0835 155.132V155.807H70.1196V164.121H70.9403V155.132H66.0835Z" fill="black"/>
</g>
<path d="M48.3654 146.062H46.6616V151.758H48.3654V146.062Z" fill="#00657C"/>
<path d="M48.6095 151.758H45.498V152.617H48.6095V151.758Z" fill="white"/>
<path d="M43.8092 146.062H42.1055V151.758H43.8092V146.062Z" fill="#00657C"/>
<path d="M44.0534 151.758H40.9419V152.617H44.0534V151.758Z" fill="white"/>
<path d="M48.3659 155.599H46.6621V161.295H48.3659V155.599Z" fill="#00657C"/>
<path d="M48.61 161.295H45.4985V162.154H48.61V161.295Z" fill="white"/>
<path d="M43.8097 155.599H42.106V161.295H43.8097V155.599Z" fill="#00657C"/>
<path d="M44.0539 161.295H40.9424V162.154H44.0539V161.295Z" fill="white"/>
<g opacity="0.3">
<path d="M39.1141 164.125H51.5288L51.5288 108.263H39.1141L39.1141 164.125Z" fill="black"/>
</g>
<path d="M228.914 140.81H177.593V164.322H228.914V140.81Z" fill="#FF5740"/>
<path d="M230 140.81H176.944V143.005H230V140.81Z" fill="#E0E0E0"/>
<path d="M186.611 146.56H184.465V159.981H186.611V146.56Z" fill="#455A64"/>
<path d="M182.476 146.56H180.331V159.981H182.476V146.56Z" fill="#455A64"/>
<path d="M228.914 159.94H177.593V164.323H228.914V159.94Z" fill="#E0E0E0"/>
<path d="M199.649 154.744H194.538V164.323H199.649V154.744Z" fill="#455A64"/>
<path d="M197.571 147.23H194.537V150.609H197.571V147.23Z" fill="#455A64"/>
<g opacity="0.3">
<path d="M194.538 147.229V147.648H197.062V150.608H197.571V147.229H194.538Z" fill="black"/>
</g>
<path d="M206.283 147.23H203.249V150.609H206.283V147.23Z" fill="#455A64"/>
<g opacity="0.3">
<path d="M203.249 147.229V147.648H205.768V150.608H206.283V147.229H203.249Z" fill="black"/>
</g>
<path d="M215.606 147.23H212.572V150.609H215.606V147.23Z" fill="#455A64"/>
<g opacity="0.3">
<path d="M212.572 147.229V147.648H215.092V150.608H215.606V147.229H212.572Z" fill="black"/>
</g>
<path d="M224.93 147.23H221.896V150.609H224.93V147.23Z" fill="#455A64"/>
<g opacity="0.3">
<path d="M221.896 147.229V147.648H224.416V150.608H224.93V147.229H221.896Z" fill="black"/>
</g>
<path d="M206.282 153.274H203.249V156.653H206.282V153.274Z" fill="#455A64"/>
<g opacity="0.3">
<path d="M203.249 153.274V153.693H205.768V156.653H206.282V153.274H203.249Z" fill="black"/>
</g>
<path d="M215.606 153.274H212.572V156.653H215.606V153.274Z" fill="#455A64"/>
<g opacity="0.3">
<path d="M212.572 153.274V153.693H215.092V156.653H215.606V153.274H212.572Z" fill="black"/>
</g>
<path d="M224.93 153.274H221.896V156.653H224.93V153.274Z" fill="#455A64"/>
<g opacity="0.3">
<path d="M221.896 153.274V153.693H224.416V156.653H224.93V153.274H221.896Z" fill="black"/>
</g>
<g opacity="0.3">
<path d="M191.275 143.006H177.593V164.323H191.275V143.006Z" fill="black"/>
</g>
<path d="M177.494 94.6777H118.044V164.217H177.494V94.6777Z" fill="#FF5740"/>
<path d="M135.471 99.6348H131.103V105.07H135.471V99.6348Z" fill="#455A64"/>
<g opacity="0.3">
<path d="M131.103 99.6348V100.31H134.733V105.07H135.471V99.6348H131.103Z" fill="black"/>
</g>
<path d="M143.492 99.6348H139.123V105.07H143.492V99.6348Z" fill="#455A64"/>
<g opacity="0.3">
<path d="M139.123 99.6348V100.31H142.754V105.07H143.492V99.6348H139.123Z" fill="black"/>
</g>
<path d="M151.512 99.6348H147.144V105.07H151.512V99.6348Z" fill="#455A64"/>
<g opacity="0.3">
<path d="M147.144 99.6348V100.31H150.774V105.07H151.507V99.6348H147.144Z" fill="black"/>
</g>
<path d="M159.527 99.6348H155.158V105.07H159.527V99.6348Z" fill="#455A64"/>
<g opacity="0.3">
<path d="M155.158 99.6348V100.31H158.789V105.07H159.527V99.6348H155.158Z" fill="black"/>
</g>
<path d="M167.547 99.6348H163.178V105.07H167.547V99.6348Z" fill="#455A64"/>
<g opacity="0.3">
<path d="M163.178 99.6348V100.31H166.809V105.07H167.547V99.6348H163.178Z" fill="black"/>
</g>
<path d="M175.567 99.6348H171.199V105.07H175.567V99.6348Z" fill="#455A64"/>
<g opacity="0.3">
<path d="M171.199 99.6348V100.31H174.83V105.07H175.562V99.6348H171.199Z" fill="black"/>
</g>
<path d="M135.855 112.839H131.487V118.274H135.855V112.839Z" fill="#455A64"/>
<g opacity="0.3">
<path d="M131.487 112.839V113.514H135.113V118.274H135.85V112.839H131.487Z" fill="black"/>
</g>
<path d="M143.871 112.839H139.503V118.274H143.871V112.839Z" fill="#455A64"/>
<g opacity="0.3">
<path d="M139.503 112.839V113.514H143.134V118.274H143.871V112.839H139.503Z" fill="black"/>
</g>
<path d="M151.892 112.839H147.523V118.274H151.892V112.839Z" fill="#455A64"/>
<g opacity="0.3">
<path d="M147.523 112.839V113.514H151.154V118.274H151.887V112.839H147.523Z" fill="black"/>
</g>
<path d="M159.912 112.839H155.543V118.274H159.912V112.839Z" fill="#455A64"/>
<g opacity="0.3">
<path d="M155.543 112.839V113.514H159.169V118.274H159.906V112.839H155.543Z" fill="black"/>
</g>
<path d="M167.927 112.839H163.558V118.274H167.927V112.839Z" fill="#455A64"/>
<g opacity="0.3">
<path d="M163.558 112.839V113.514H167.189V118.274H167.927V112.839H163.558Z" fill="black"/>
</g>
<path d="M175.947 112.839H171.578V118.274H175.947V112.839Z" fill="#455A64"/>
<g opacity="0.3">
<path d="M171.578 112.839V113.514H175.209V118.274H175.947V112.839H171.578Z" fill="black"/>
</g>
<path d="M135.388 125.999H131.02V131.434H135.388V125.999Z" fill="#455A64"/>
<g opacity="0.3">
<path d="M131.02 125.999V126.674H134.65V131.434H135.388V125.999H131.02Z" fill="black"/>
</g>
<path d="M143.409 125.999H139.04V131.434H143.409V125.999Z" fill="#455A64"/>
<g opacity="0.3">
<path d="M139.04 125.999V126.674H142.671V131.434H143.403V125.999H139.04Z" fill="black"/>
</g>
<path d="M151.429 125.999H147.06V131.434H151.429V125.999Z" fill="#455A64"/>
<g opacity="0.3">
<path d="M147.06 125.999V126.674H150.686V131.434H151.423V125.999H147.06Z" fill="black"/>
</g>
<path d="M159.444 125.999H155.075V131.434H159.444V125.999Z" fill="#455A64"/>
<g opacity="0.3">
<path d="M155.075 125.999V126.674H158.706V131.434H159.444V125.999H155.075Z" fill="black"/>
</g>
<path d="M167.464 125.999H163.096V131.434H167.464V125.999Z" fill="#455A64"/>
<g opacity="0.3">
<path d="M163.096 125.999V126.674H166.727V131.434H167.459V125.999H163.096Z" fill="black"/>
</g>
<path d="M175.484 125.999H171.116V131.434H175.484V125.999Z" fill="#455A64"/>
<g opacity="0.3">
<path d="M171.116 125.999V126.674H174.741V131.434H175.479V125.999H171.116Z" fill="black"/>
</g>
<path d="M135.606 139.125H131.238V144.56H135.606V139.125Z" fill="#455A64"/>
<g opacity="0.3">
<path d="M131.238 139.125V139.8H134.864V144.56H135.602V139.125H131.238Z" fill="black"/>
</g>
<path d="M143.621 139.125H139.253V144.56H143.621V139.125Z" fill="#455A64"/>
<g opacity="0.3">
<path d="M139.253 139.125V139.8H142.884V144.56H143.621V139.125H139.253Z" fill="black"/>
</g>
<path d="M151.642 139.125H147.273V144.56H151.642V139.125Z" fill="#455A64"/>
<g opacity="0.3">
<path d="M147.273 139.125V139.8H150.904V144.56H151.642V139.125H147.273Z" fill="black"/>
</g>
<path d="M145.455 154.211H132.537V164.217H145.455V154.211Z" fill="#455A64"/>
<g opacity="0.3">
<path d="M132.537 154.211V155.453H144.099V164.222H145.455V154.211H132.537Z" fill="black"/>
</g>
<path d="M156.255 154.211H148.214V164.217H156.255V154.211Z" fill="#455A64"/>
<g opacity="0.3">
<path d="M148.214 154.211V155.453H154.899V164.222H156.255V154.211H148.214Z" fill="black"/>
</g>
<path d="M175.012 154.211H166.971V164.217H175.012V154.211Z" fill="#455A64"/>
<g opacity="0.3">
<path d="M166.971 154.211V155.453H173.656V164.222H175.012V154.211H166.971Z" fill="black"/>
</g>
<path d="M159.662 139.125H155.293V144.56H159.662V139.125Z" fill="#455A64"/>
<g opacity="0.3">
<path d="M155.293 139.125V139.8H158.924V144.56H159.657V139.125H155.293Z" fill="black"/>
</g>
<path d="M167.677 139.125H163.309V144.56H167.677V139.125Z" fill="#455A64"/>
<g opacity="0.3">
<path d="M163.309 139.125V139.8H166.94V144.56H167.677V139.125H163.309Z" fill="black"/>
</g>
<path d="M175.697 139.125H171.329V144.56H175.697V139.125Z" fill="#455A64"/>
<g opacity="0.3">
<path d="M171.329 139.125V139.8H174.96V144.56H175.697V139.125H171.329Z" fill="black"/>
</g>
<path d="M177.494 93.5127H118.044V95.8478H177.494V93.5127Z" fill="#FFEF9D"/>
<path d="M177.494 107.277H118.044V109.612H177.494V107.277Z" fill="#FFEF9D"/>
<path d="M177.494 120.439H118.044V122.775H177.494V120.439Z" fill="#FFEF9D"/>
<path d="M177.494 133.607H118.044V135.943H177.494V133.607Z" fill="#FFEF9D"/>
<path d="M177.494 147.026H118.044V149.361H177.494V147.026Z" fill="#FF5740"/>
<path d="M122.184 99.209H120.595V104.851H122.184V99.209Z" fill="#00657C"/>
<path d="M126.849 99.209H125.259V104.851H126.849V99.209Z" fill="#00657C"/>
<path d="M122.272 111.779H120.683V117.421H122.272V111.779Z" fill="#00657C"/>
<path d="M127.005 111.779H125.415V117.421H127.005V111.779Z" fill="#00657C"/>
<path d="M122.241 124.945H120.651V130.587H122.241V124.945Z" fill="#00657C"/>
<path d="M126.973 124.945H125.384V130.587H126.973V124.945Z" fill="#00657C"/>
<path d="M122.023 138.235H120.434V143.877H122.023V138.235Z" fill="#00657C"/>
<path d="M126.391 138.235H124.802V143.877H126.391V138.235Z" fill="#00657C"/>
<path d="M122.023 154.244H120.434V164.223H122.023V154.244Z" fill="#00657C"/>
<path d="M126.391 154.244H124.802V164.223H126.391V154.244Z" fill="#00657C"/>
<path d="M177.494 147.746H118.044V150.081H177.494V147.746Z" fill="#FFEF9D"/>
<g opacity="0.3">
<path d="M128.448 93.5137H118.044V164.223H128.448V93.5137Z" fill="black"/>
</g>
<g opacity="0.3">
<path d="M177.495 135.94H128.449V136.926H177.495V135.94Z" fill="black"/>
</g>
<g opacity="0.3">
<path d="M177.495 150.119H128.449V151.104H177.495V150.119Z" fill="black"/>
</g>
<g opacity="0.3">
<path d="M177.495 122.899H128.449V123.885H177.495V122.899Z" fill="black"/>
</g>
<g opacity="0.3">
<path d="M177.495 109.61H128.449V110.596H177.495V109.61Z" fill="black"/>
</g>
<g opacity="0.3">
<path d="M177.495 95.8506H128.449V96.8359H177.495V95.8506Z" fill="black"/>
</g>
<g opacity="0.3">
<path d="M164.945 154.792H158.904V164.222H164.945V154.792Z" fill="black"/>
</g>
<path d="M145.112 88.0283H133.207V93.5128H145.112V88.0283Z" fill="#FFEF9D"/>
<g opacity="0.3">
<path d="M136.983 88.0283H133.207V93.5128H136.983V88.0283Z" fill="black"/>
</g>
<path d="M135.648 144.464C135.648 144.527 134.651 144.581 133.42 144.581C132.189 144.581 131.191 144.527 131.191 144.464C131.191 144.401 132.189 144.347 133.42 144.347C134.651 144.347 135.648 144.401 135.648 144.464Z" fill="white"/>
<path d="M143.585 144.464C143.585 144.527 142.587 144.581 141.356 144.581C140.125 144.581 139.128 144.527 139.128 144.464C139.128 144.401 140.125 144.347 141.356 144.347C142.587 144.347 143.585 144.401 143.585 144.464Z" fill="white"/>
<path d="M151.517 144.464C151.517 144.527 150.52 144.581 149.288 144.581C148.057 144.581 147.06 144.527 147.06 144.464C147.06 144.401 148.057 144.347 149.288 144.347C150.52 144.347 151.517 144.401 151.517 144.464Z" fill="white"/>
<path d="M159.703 144.464C159.703 144.527 158.706 144.581 157.475 144.581C156.244 144.581 155.247 144.527 155.247 144.464C155.247 144.401 156.244 144.347 157.475 144.347C158.706 144.347 159.703 144.401 159.703 144.464Z" fill="white"/>
<path d="M167.76 144.464C167.76 144.527 166.763 144.581 165.532 144.581C164.301 144.581 163.303 144.527 163.303 144.464C163.303 144.401 164.301 144.347 165.532 144.347C166.763 144.347 167.76 144.401 167.76 144.464Z" fill="white"/>
<path d="M175.812 144.464C175.812 144.527 174.814 144.581 173.583 144.581C172.352 144.581 171.355 144.527 171.355 144.464C171.355 144.401 172.352 144.347 173.583 144.347C174.814 144.347 175.812 144.401 175.812 144.464Z" fill="white"/>
<path d="M135.648 131.348C135.648 131.411 134.651 131.465 133.42 131.465C132.189 131.465 131.191 131.411 131.191 131.348C131.191 131.285 132.189 131.23 133.42 131.23C134.651 131.23 135.648 131.285 135.648 131.348Z" fill="white"/>
<path d="M143.585 131.348C143.585 131.411 142.588 131.465 141.357 131.465C140.126 131.465 139.128 131.411 139.128 131.348C139.128 131.285 140.126 131.23 141.357 131.23C142.588 131.23 143.585 131.285 143.585 131.348Z" fill="white"/>
<path d="M151.517 131.348C151.517 131.411 150.52 131.465 149.289 131.465C148.058 131.465 147.061 131.411 147.061 131.348C147.061 131.285 148.058 131.23 149.289 131.23C150.52 131.23 151.517 131.285 151.517 131.348Z" fill="white"/>
<path d="M159.704 131.348C159.704 131.411 158.707 131.465 157.475 131.465C156.244 131.465 155.247 131.411 155.247 131.348C155.247 131.285 156.244 131.23 157.475 131.23C158.707 131.23 159.704 131.285 159.704 131.348Z" fill="white"/>
<path d="M167.761 131.348C167.761 131.411 166.763 131.465 165.532 131.465C164.301 131.465 163.304 131.411 163.304 131.348C163.304 131.285 164.301 131.23 165.532 131.23C166.763 131.23 167.761 131.285 167.761 131.348Z" fill="white"/>
<path d="M175.812 131.348C175.812 131.411 174.814 131.465 173.583 131.465C172.352 131.465 171.355 131.411 171.355 131.348C171.355 131.285 172.352 131.23 173.583 131.23C174.814 131.23 175.812 131.285 175.812 131.348Z" fill="white"/>
<path d="M135.648 118.272C135.648 118.335 134.651 118.389 133.42 118.389C132.189 118.389 131.191 118.335 131.191 118.272C131.191 118.208 132.189 118.154 133.42 118.154C134.651 118.154 135.648 118.208 135.648 118.272Z" fill="white"/>
<path d="M143.585 118.272C143.585 118.335 142.588 118.389 141.357 118.389C140.126 118.389 139.128 118.335 139.128 118.272C139.128 118.208 140.126 118.154 141.357 118.154C142.588 118.154 143.585 118.208 143.585 118.272Z" fill="white"/>
<path d="M151.517 118.272C151.517 118.335 150.52 118.389 149.289 118.389C148.058 118.389 147.061 118.335 147.061 118.272C147.061 118.208 148.058 118.154 149.289 118.154C150.52 118.154 151.517 118.208 151.517 118.272Z" fill="white"/>
<path d="M159.704 118.272C159.704 118.335 158.707 118.389 157.475 118.389C156.244 118.389 155.247 118.335 155.247 118.272C155.247 118.208 156.244 118.154 157.475 118.154C158.707 118.154 159.704 118.208 159.704 118.272Z" fill="white"/>
<path d="M167.761 118.272C167.761 118.335 166.763 118.389 165.532 118.389C164.301 118.389 163.304 118.335 163.304 118.272C163.304 118.208 164.301 118.154 165.532 118.154C166.763 118.154 167.761 118.208 167.761 118.272Z" fill="white"/>
<path d="M175.811 118.272C175.811 118.335 174.814 118.389 173.583 118.389C172.352 118.389 171.354 118.335 171.354 118.272C171.354 118.208 172.352 118.154 173.583 118.154C174.814 118.154 175.811 118.208 175.811 118.272Z" fill="white"/>
<path d="M135.648 105.071C135.648 105.135 134.651 105.189 133.42 105.189C132.189 105.189 131.191 105.135 131.191 105.071C131.191 105.008 132.189 104.954 133.42 104.954C134.651 104.954 135.648 105.008 135.648 105.071Z" fill="white"/>
<path d="M143.585 105.071C143.585 105.135 142.588 105.189 141.357 105.189C140.126 105.189 139.128 105.135 139.128 105.071C139.128 105.008 140.126 104.954 141.357 104.954C142.588 104.954 143.585 105.008 143.585 105.071Z" fill="white"/>
<path d="M151.517 105.071C151.517 105.135 150.52 105.189 149.288 105.189C148.057 105.189 147.06 105.135 147.06 105.071C147.06 105.008 148.057 104.954 149.288 104.954C150.52 104.954 151.517 105.008 151.517 105.071Z" fill="white"/>
<path d="M159.704 105.071C159.704 105.135 158.707 105.189 157.475 105.189C156.244 105.189 155.247 105.135 155.247 105.071C155.247 105.008 156.244 104.954 157.475 104.954C158.707 104.954 159.704 105.008 159.704 105.071Z" fill="white"/>
<path d="M167.76 105.071C167.76 105.135 166.763 105.189 165.532 105.189C164.301 105.189 163.303 105.135 163.303 105.071C163.303 105.008 164.301 104.954 165.532 104.954C166.763 104.954 167.76 105.008 167.76 105.071Z" fill="white"/>
<path d="M175.812 105.071C175.812 105.135 174.814 105.189 173.583 105.189C172.352 105.189 171.355 105.135 171.355 105.071C171.355 105.008 172.352 104.954 173.583 104.954C174.814 104.954 175.812 105.008 175.812 105.071Z" fill="white"/>
</svg>
