<svg width="161" height="384" viewBox="0 0 161 384" fill="none" xmlns="http://www.w3.org/2000/svg">
<path d="M123.54 59.4277H36.2711C34.9862 59.4277 33.947 60.4669 33.947 61.7518V64.5794C33.947 65.8643 34.9862 66.9035 36.2711 66.9035H123.54C124.824 66.9035 125.864 65.8643 125.864 64.5794V61.7518C125.864 60.4669 124.824 59.4277 123.54 59.4277Z" fill="#EAE1CC"/>
<path d="M88.0417 0H71.7731H11.125V6.81117H71.7731H88.0417H148.686V0H88.0417Z" fill="#EAE1CC"/>
<path d="M88.0417 6.81055H14.2466C14.2466 6.81055 17.7831 7.76918 19.5473 9.77911C21.3155 11.789 21.1665 13.3237 21.1665 13.3237H21.1987V18.3303H138.608V13.3237H138.64C138.64 13.3237 138.491 11.7931 140.259 9.77911C142.028 7.76918 145.56 6.81055 145.56 6.81055H88.0377H88.0417Z" fill="#C9C1B3"/>
<path d="M88.0419 18.3301H23.8694V20.2635C23.8694 28.577 30.6081 35.3157 38.9216 35.3157H120.893C129.207 35.3157 135.946 28.577 135.946 20.2635V18.3301H88.0419Z" fill="#EAE1CC"/>
<path d="M129.159 18.3301C127.882 25.4756 121.135 30.9293 112.995 30.9293H28.3C31.0229 33.6401 34.7769 35.3157 38.9216 35.3157H120.893C129.207 35.3157 135.946 28.577 135.946 20.2635V18.3301H129.159Z" fill="#C9C1B3"/>
<path d="M123.54 35.3164H36.2711C34.9862 35.3164 33.947 36.3556 33.947 37.6405V40.4681C33.947 41.753 34.9862 42.7922 36.2711 42.7922H123.54C124.824 42.7922 125.864 41.753 125.864 40.4681V37.6405C125.864 36.3556 124.824 35.3164 123.54 35.3164Z" fill="#EAE1CC"/>
<path d="M123.54 35.3164H120.305V36.7302C120.305 38.0151 119.266 39.0543 117.981 39.0543H33.947V40.4681C33.947 41.753 34.9862 42.7922 36.2711 42.7922H123.54C124.824 42.7922 125.864 41.753 125.864 40.4681V37.6405C125.864 36.3556 124.824 35.3164 123.54 35.3164Z" fill="#C9C1B3"/>
<path d="M123.54 59.4277H120.305V60.8415C120.305 62.1264 119.266 63.1656 117.981 63.1656H33.947V64.5794C33.947 65.8643 34.9862 66.9035 36.2711 66.9035H123.54C124.824 66.9035 125.864 65.8643 125.864 64.5794V61.7518C125.864 60.4669 124.824 59.4277 123.54 59.4277Z" fill="#C9C1B3"/>
<path d="M88.0417 42.793H71.7731H37.8743V59.4282H71.7731H88.0417H121.937V42.793H88.0417Z" fill="#EAE1CC"/>
<path d="M37.8744 42.7931H121.933V52.1298C121.933 52.1298 116.539 48.4201 93.4997 46.3296C70.4601 44.2431 37.8704 44.3962 37.8704 44.3962V42.7891L37.8744 42.7931Z" fill="#A8A198"/>
<path d="M36.2712 35.3168H123.54L125.098 34.7207H34.7124L36.2712 35.3168Z" fill="#A8A198"/>
<path d="M121.937 59.4281H37.8743V58.5943L121.937 57.7363V59.4281Z" fill="#A8A198"/>
<path d="M14.2466 6.81055H145.564L140.815 9.23534L14.2466 6.81055Z" fill="#A8A198"/>
<path d="M23.8693 18.3302H135.942L135.643 23.2483C135.643 23.2483 135.877 22.1809 110.924 20.7872C85.9754 19.3936 23.8652 19.5023 23.8652 19.5023V18.3262L23.8693 18.3302Z" fill="#A8A198"/>
<path opacity="0.33" d="M32.1346 22.4592C31.8002 22.6848 31.482 22.9506 31.2806 23.3011C30.9544 23.861 30.9745 24.5699 31.1679 25.1902C31.5626 26.4589 32.6219 27.4377 33.8182 28.0137C35.0145 28.5897 36.3518 28.8032 37.6689 28.9522C41.1047 29.3389 44.609 29.3188 47.9843 28.5736C49.2572 28.2916 50.5541 27.8848 51.5249 27.0108C52.4915 26.1367 53.0434 24.6867 52.5359 23.4823C52.1653 22.6083 51.3074 22.0162 50.4011 21.7342C49.4948 21.4523 48.5281 21.4402 47.5815 21.4321C44.6009 21.3999 41.6203 21.3677 38.6436 21.3395C36.4364 21.3194 34.0881 21.3475 32.1386 22.4633L32.1346 22.4592Z" fill="white"/>
<path opacity="0.33" d="M16.5708 5.12266C17.0018 5.29989 17.4811 5.28781 17.9484 5.27975C27.0071 5.05419 36.0618 4.82863 45.1206 4.60307C45.8255 4.58696 46.6794 4.47417 46.9613 3.82971C47.2111 3.26178 46.8204 2.573 46.2726 2.28299C45.7248 1.98896 45.0722 1.98896 44.452 1.99299C38.4947 2.04535 32.5374 2.10174 26.5842 2.1541C23.6801 2.17827 20.7679 2.2548 17.8638 2.18633C16.9535 2.16216 16.4621 1.67881 15.8015 2.65357C15.1933 3.54776 15.6686 4.67557 16.5749 5.13072L16.5708 5.12266Z" fill="white"/>
<path opacity="0.33" d="M49.8492 2.33634C49.394 2.56191 49.1282 3.11775 49.245 3.61319C49.4545 4.51141 50.5903 4.79336 51.5087 4.79336C52.1652 4.79336 52.8258 4.73294 53.4743 4.62016C53.9415 4.53558 54.4249 4.41877 54.7914 4.11667C55.158 3.81458 55.3795 3.28693 55.1942 2.84789C54.9404 2.25176 54.151 2.143 53.5025 2.13495C52.2458 2.11884 50.9931 2.13495 49.7364 2.18328L49.8492 2.33634Z" fill="white"/>
<path opacity="0.33" d="M37.3951 62.4126C37.826 62.5012 38.3054 62.4971 38.7726 62.4891C47.8273 62.3763 56.8861 62.2635 65.9448 62.1508C66.6497 62.1427 67.5036 62.0863 67.7856 61.7641C68.0353 61.4781 67.6446 61.1357 67.0968 60.9907C66.549 60.8457 65.8965 60.8457 65.2762 60.8457C59.3189 60.8739 53.3616 60.8981 47.4084 60.9263C44.5043 60.9383 41.5921 60.9786 38.688 60.9424C37.7777 60.9303 37.2863 60.6886 36.6257 61.176C36.0175 61.6231 36.4928 62.187 37.3991 62.4126H37.3951Z" fill="white"/>
<path opacity="0.33" d="M70.6734 61.0179C70.2183 61.1307 69.9524 61.4086 70.0692 61.6543C70.2787 62.1014 71.4145 62.2464 72.3329 62.2424C72.9894 62.2424 73.65 62.2142 74.2985 62.1538C74.7658 62.1135 75.2491 62.0531 75.6156 61.9C75.9822 61.751 76.2037 61.4851 76.0184 61.2676C75.7647 60.9696 74.9752 60.9172 74.3267 60.9132C73.07 60.9051 71.8173 60.9132 70.5606 60.9373L70.6694 61.0139L70.6734 61.0179Z" fill="white"/>
<path d="M121.932 66.9023H37.8743V499.305H121.932V66.9023Z" fill="#EAE1CC"/>
<path d="M121.937 66.9023H102.043V499.305H121.937V66.9023Z" fill="#DBD2C1"/>
<path opacity="0.2" d="M82.874 66.9023H46.2V493.557H82.874V66.9023Z" fill="white"/>
<path opacity="0.43" d="M65.8883 66.9023H56.2898V493.557H65.8883V66.9023Z" fill="white"/>
<path d="M37.8744 66.9025H121.933V87.6461C121.933 87.6461 116.539 79.401 93.4997 74.7649C70.4601 70.1288 37.8704 70.4712 37.8704 70.4712V66.8984L37.8744 66.9025Z" fill="#A8A198"/>
</svg>
