<svg width="141" height="385" viewBox="0 0 141 385" fill="none" xmlns="http://www.w3.org/2000/svg">
<path d="M112.803 55.4062H27.9648V538.319H112.803V55.4062Z" fill="#EAE1CC"/>
<path d="M119.355 53.2305H25.0723V59.807H119.355V53.2305Z" fill="#C9C1B3"/>
<path d="M131.99 23.1953H8.80078V55.2716H131.99V23.1953Z" fill="#C9C1B3"/>
<path d="M78.1699 0.480469H63.4969H8.80078V6.62119H63.4969H78.1699H132.866V0.480469H78.1699Z" fill="#EAE1CC"/>
<path d="M78.1709 6.62109H11.6172C11.6172 6.62109 14.8068 7.48537 16.398 9.29745C17.9928 11.1095 17.8584 12.4931 17.8584 12.4931H17.8875V17.0069H123.778V12.4931H123.807C123.807 12.4931 123.672 11.1132 125.267 9.29745C126.862 7.48537 130.048 6.62109 130.048 6.62109H78.1672H78.1709Z" fill="#C9C1B3"/>
<path d="M11.6172 6.62109H130.052L125.768 8.8072L11.6172 6.62109Z" fill="#A8A198"/>
<path opacity="0.2" d="M80.6299 59.8066H35.9023V534.542H80.6299V59.8066Z" fill="white"/>
<path opacity="0.43" d="M59.9196 59.8066H48.2109V534.542H59.9196V59.8066Z" fill="white"/>
<path d="M42.125 55.2702C42.125 55.2702 45.5435 53.5707 46.7314 50.1572C47.9194 46.74 47.6215 42.582 47.6215 42.582H70.799L70.8353 55.2738H42.125V55.2702Z" fill="#EAE1CC"/>
<path d="M99.579 55.1728C99.579 55.1728 96.1532 53.4951 94.9435 50.0852C93.7338 46.6753 94.0098 42.5137 94.0098 42.5137L70.8359 42.6444L70.8723 55.3362L99.5826 55.1728H99.579Z" fill="#EAE1CC"/>
<path d="M53.8347 55.2718C54.0563 53.4815 54.0926 51.6694 53.9291 49.8719C53.8456 48.9459 53.7039 47.9981 53.2425 47.1919C52.7811 46.3857 51.9383 45.7357 51.0119 45.7502C50.9466 48.9459 51.0919 52.0907 50.8594 55.2718H53.8383H53.8347Z" fill="#C9C1B3"/>
<path opacity="0.77" d="M48.0767 49.3956C47.7752 50.9171 47.7825 52.4968 48.0949 54.0147C48.1167 54.1128 48.1421 54.2181 48.222 54.2835C48.2911 54.3379 48.3891 54.3452 48.4763 54.3525C48.7597 54.367 49.0394 54.3851 49.3228 54.3997C49.232 54.396 49.2138 51.4727 49.2174 51.2222C49.2283 50.1182 49.3083 49.0106 49.5408 47.9321C49.5952 47.6852 50.0748 46.5849 49.984 46.4069C49.8096 46.0619 49.439 46.4614 49.261 46.6611C48.5998 47.3947 48.2693 48.4441 48.0803 49.3956H48.0767Z" fill="white"/>
<path d="M63.5378 55.2718C63.7594 53.4815 63.7957 51.6694 63.6322 49.8719C63.5487 48.9459 63.407 47.9981 62.9456 47.1919C62.4843 46.3857 61.6414 45.7357 60.7151 45.7502C60.6497 48.9459 60.795 52.0907 60.5625 55.2718H63.5414H63.5378Z" fill="#C9C1B3"/>
<path opacity="0.77" d="M57.7838 49.3956C57.4822 50.9171 57.4895 52.4968 57.8019 54.0147C57.8237 54.1128 57.8492 54.2181 57.9291 54.2835C57.9981 54.3379 58.0962 54.3452 58.1834 54.3525C58.4667 54.367 58.7465 54.3851 59.0298 54.3997C58.939 54.396 58.9208 51.4727 58.9245 51.2222C58.9354 50.1182 59.0153 49.0106 59.2478 47.9321C59.3023 47.6852 59.7818 46.5849 59.691 46.4069C59.5166 46.0619 59.1461 46.4614 58.9681 46.6611C58.3069 47.3947 57.9763 48.4441 57.7874 49.3956H57.7838Z" fill="white"/>
<path d="M73.2448 55.2718C73.4664 53.4815 73.5028 51.6694 73.3393 49.8719C73.2557 48.9459 73.114 47.9981 72.6527 47.1919C72.1913 46.3857 71.3485 45.7357 70.4221 45.7502C70.3567 48.9459 70.502 52.0907 70.2695 55.2718H73.2485H73.2448Z" fill="#C9C1B3"/>
<path opacity="0.77" d="M67.4869 49.3956C67.1853 50.9171 67.1926 52.4968 67.505 54.0147C67.5268 54.1128 67.5523 54.2181 67.6322 54.2835C67.7012 54.3379 67.7993 54.3452 67.8865 54.3525C68.1698 54.367 68.4496 54.3851 68.7329 54.3997C68.6421 54.396 68.6239 51.4727 68.6276 51.2222C68.6385 50.1182 68.7184 49.0106 68.9509 47.9321C69.0054 47.6852 69.4849 46.5849 69.3941 46.4069C69.2197 46.0619 68.8492 46.4614 68.6712 46.6611C68.01 47.3947 67.6794 48.4441 67.4905 49.3956H67.4869Z" fill="white"/>
<path d="M82.948 55.2718C83.1696 53.4815 83.2059 51.6694 83.0424 49.8719C82.9588 48.9459 82.8172 47.9981 82.3558 47.1919C81.8944 46.3857 81.0516 45.7357 80.1252 45.7502C80.0598 48.9459 80.2052 52.0907 79.9727 55.2718H82.9516H82.948Z" fill="#C9C1B3"/>
<path opacity="0.77" d="M77.1939 49.3956C76.8924 50.9171 76.8996 52.4968 77.2121 54.0147C77.2339 54.1128 77.2593 54.2181 77.3392 54.2835C77.4083 54.3379 77.5063 54.3452 77.5935 54.3525C77.8769 54.367 78.1566 54.3851 78.44 54.3997C78.3491 54.396 78.331 51.4727 78.3346 51.2222C78.3455 50.1182 78.4255 49.0106 78.658 47.9321C78.7124 47.6852 79.192 46.5849 79.1011 46.4069C78.9268 46.0619 78.5562 46.4614 78.3782 46.6611C77.717 47.3947 77.3865 48.4441 77.1975 49.3956H77.1939Z" fill="white"/>
<path d="M92.655 55.2718C92.8766 53.4815 92.9129 51.6694 92.7494 49.8719C92.6659 48.9459 92.5242 47.9981 92.0628 47.1919C91.6014 46.3857 90.7586 45.7357 89.8322 45.7502C89.7668 48.9459 89.9122 52.0907 89.6797 55.2718H92.6586H92.655Z" fill="#C9C1B3"/>
<path opacity="0.77" d="M86.897 49.3956C86.5955 50.9171 86.6028 52.4968 86.9152 54.0147C86.937 54.1128 86.9624 54.2181 87.0424 54.2835C87.1114 54.3379 87.2095 54.3452 87.2966 54.3525C87.58 54.367 87.8597 54.3851 88.1431 54.3997C88.0523 54.396 88.0341 51.4727 88.0378 51.2222C88.0487 50.1182 88.1286 49.0106 88.3611 47.9321C88.4156 47.6852 88.8951 46.5849 88.8043 46.4069C88.6299 46.0619 88.2594 46.4614 88.0814 46.6611C87.4202 47.3947 87.0896 48.4441 86.9007 49.3956H86.897Z" fill="white"/>
<path d="M15.802 38.6141C15.9509 35.0844 17.7165 31.4893 20.8262 29.8116C22.8098 28.7439 25.1311 28.5224 27.3835 28.4135C30.8492 28.2464 34.3259 28.2973 37.7843 28.5624C37.8134 27.3241 37.0287 26.1729 36.0079 25.4757C34.987 24.7784 33.7519 24.4625 32.5312 24.2483C25.2474 22.9664 17.4586 24.8946 11.617 29.4267C9.98217 30.694 8.46365 32.2047 7.63173 34.1003C6.85794 35.8688 6.73804 37.8515 6.82159 39.7798C6.94148 42.5433 7.47188 45.3323 8.76154 47.7798C10.1747 50.4634 12.4707 52.5806 15.119 54.0186C16.307 54.665 21.7272 57.3377 22.639 55.6782C23.5472 54.0222 19.4239 50.0458 18.7264 48.8402C16.9463 45.7644 15.6494 42.2092 15.8056 38.6141H15.802Z" fill="#A8A198"/>
<path d="M22.0875 42.5386C23.7695 45.3421 27.8819 46.2717 30.6719 44.5722C33.4619 42.8727 34.5409 38.9108 33.1095 35.973C34.926 35.9548 36.6225 36.9898 37.8213 38.3516C39.0202 39.7134 39.8048 41.3838 40.5677 43.0289C40.8402 39.9894 40.2481 36.7864 38.4389 34.328C36.6298 31.8695 33.4946 30.2935 30.4866 30.8055C28.761 31.0996 27.2025 32.022 25.8003 33.0715C23.2028 35.0143 20.1039 39.2413 22.0838 42.5422L22.0875 42.5386Z" fill="#A8A198"/>
<path d="M105.968 36.9191C104.577 39.4901 104.82 42.6931 105.877 45.4202C106.513 47.0617 107.436 48.6086 108.682 49.8506C111.058 52.2183 114.451 53.3258 117.793 53.6018C115.78 54.6368 113.383 54.7094 111.17 54.2264C108.962 53.7398 106.905 52.7339 104.904 51.6808C103.56 50.9727 102.194 50.2065 101.26 49.0117C100.043 47.4502 99.7305 45.3694 99.7051 43.3903C99.6724 40.9609 100.036 38.4588 101.278 36.3708C103.214 33.117 107.087 31.3521 110.872 31.2142C112.754 31.1452 116.663 33.9268 113.673 34.1011C112.14 34.1883 111.149 33.2768 109.427 33.9196C107.977 34.4606 106.706 35.5573 105.968 36.9191Z" fill="#A8A198"/>
<path d="M112.693 29.7169C114.019 30.2725 120.468 30.7046 123.814 32.72C129.775 36.3151 130.022 42.3796 127.475 46.2725C125.877 48.7164 125.757 49.8422 123.541 51.745C126.349 52.8635 129.47 51.2148 131.857 49.3556C134.403 47.3764 136.776 45.0051 137.996 42.0165C139.776 37.6697 138.792 32.4731 136.042 28.6638C133.292 24.8544 128.972 22.3632 124.417 21.2048C119.861 20.0464 115.073 20.1299 110.412 20.7364C108.185 21.0269 104.469 22.1381 105.173 25.1522C105.806 27.8539 110.528 28.8126 112.693 29.7169Z" fill="#A8A198"/>
<path d="M111.868 23.8594H31.0449V32.72H111.868V23.8594Z" fill="#A8A198"/>
<path d="M70.8358 27.3018V16.9414H17.7418V17.1593C13.6112 17.7803 0.0353023 23.3 0.783668 36.8815C1.89895 57.163 17.4439 59.1167 24.517 59.6759C30.7764 60.1698 37.9077 57.025 41.7331 52.0463C45.5585 47.0713 46.0126 40.5093 43.1281 34.463C42.1508 32.4185 38.9903 29.31 35.5899 28.6019C29.4831 27.3309 23.093 29.6659 21.0549 35.5597C20.5282 37.0849 20.3756 38.7989 20.9786 40.2914C21.5817 41.7875 23.0603 42.9823 24.6732 42.9423C26.2862 42.8988 27.7975 41.3627 27.5323 39.7721C27.4705 39.3908 27.318 39.0313 27.2235 38.6573C26.5006 35.8357 29.4504 33.0104 32.3604 33.192C35.2666 33.3736 37.657 35.8102 38.6125 38.5592C40.6069 44.2969 36.7815 51.0295 30.8454 52.3259C21.9123 54.2796 11.0646 49.9728 10.7413 38.443C10.556 31.7431 16.1506 27.5778 21.153 27.32L25.0547 27.3018H70.8358Z" fill="#EAE1CC"/>
<path d="M70.7988 27.3822V17.0254H123.893V17.2433C128.023 17.8642 141.599 23.384 140.851 36.9655C139.736 57.247 124.191 59.2007 117.118 59.7599C110.858 60.2538 103.727 57.109 99.9015 52.1303C96.0761 47.1553 95.622 40.5933 98.5065 34.547C99.4837 32.5025 102.644 29.394 106.045 28.6859C112.151 27.4149 118.542 29.7499 120.58 35.6437C121.106 37.1689 121.259 38.8829 120.656 40.3754C120.053 41.8715 118.574 43.0663 116.961 43.0263C115.348 42.9864 113.837 41.4467 114.102 39.8561C114.164 39.4748 114.317 39.1153 114.411 38.7413C115.134 35.9197 112.184 33.0944 109.274 33.276C106.368 33.4575 103.978 35.8942 103.022 38.6432C101.028 44.3808 104.853 51.1135 110.789 52.4099C119.722 54.3636 130.57 50.0567 130.893 38.527C131.079 31.827 125.484 27.6618 120.482 27.404L116.58 27.3858H70.7988V27.3822Z" fill="#EAE1CC"/>
<path d="M32.0523 38.4419C32.0523 41.6012 29.4911 44.165 26.3269 44.165C23.1627 44.165 20.6016 41.6048 20.6016 38.4419C20.6016 35.2789 23.1627 32.7188 26.3269 32.7188C29.4911 32.7188 32.0523 35.2789 32.0523 38.4419Z" fill="#EAE1CC"/>
<path d="M121.078 38.9985C121.078 42.1578 118.517 44.7216 115.352 44.7216C112.188 44.7216 109.627 42.1615 109.627 38.9985C109.627 35.8355 112.188 33.2754 115.352 33.2754C118.517 33.2754 121.078 35.8355 121.078 38.9985Z" fill="#EAE1CC"/>
<path opacity="0.77" d="M97.6674 42.0313C97.7255 43.3132 98.0961 44.7404 99.2077 45.3759C99.3276 45.4449 99.4693 45.5066 99.6073 45.4776C99.8434 45.4267 99.9488 45.1507 99.9924 44.9147C100.225 43.72 100.047 42.4889 100.069 41.2724C100.123 37.9097 101.776 34.6087 104.435 32.5461C104.73 32.3173 105.06 31.8815 104.78 31.6346C104.697 31.5583 104.581 31.5366 104.468 31.522C99.8798 30.9737 97.5184 38.6541 97.671 42.0313H97.6674Z" fill="white"/>
<path opacity="0.77" d="M106.805 30.0802C106.489 30.2 106.17 30.3779 106.01 30.6757C105.85 30.9735 105.93 31.4165 106.242 31.5509C106.409 31.6235 106.598 31.5945 106.776 31.569C107.859 31.402 108.938 31.2349 110.021 31.0679C110.191 31.0425 110.366 31.0134 110.504 30.9081C110.856 30.6358 110.674 30.0148 110.282 29.8005C109.89 29.5863 109.41 29.6516 108.971 29.7206C108.102 29.8586 107.238 30.0003 106.37 30.1383L106.809 30.0838L106.805 30.0802Z" fill="white"/>
<path d="M42.5183 75.4759C42.5001 74.9021 42.4747 74.3284 42.4456 73.751C42.402 72.8576 42.3403 71.9534 42.0896 71.1037C41.8353 70.2539 41.3703 69.4477 40.6692 68.9974C39.899 68.4999 38.9581 68.4854 38.0681 68.5471C37.0763 68.6125 36.0301 68.7832 35.2672 69.484C34.9148 69.8072 34.6423 70.2285 34.3916 70.6534C33.3744 72.3819 32.597 74.5535 33.2691 76.4745C33.3127 75.367 33.5452 74.2231 34.1773 73.366C34.8131 72.509 35.7794 71.347 37.0073 71.8735C38.0826 72.3383 39.0053 72.8758 39.0235 77.1572V531.226H42.5546V75.4759H42.5147H42.5183Z" fill="#DBD2C1"/>
<path d="M58.3855 75.4759C58.3673 74.9021 58.3419 74.3284 58.3129 73.751C58.2693 72.8576 58.2075 71.9534 57.9568 71.1037C57.7025 70.2539 57.2375 69.4477 56.5364 68.9974C55.7662 68.4999 54.8253 68.4854 53.9353 68.5471C52.9435 68.6125 51.8972 68.7832 51.1344 69.484C50.782 69.8072 50.5095 70.2285 50.2588 70.6534C49.2416 72.3819 48.4642 74.5535 49.1363 76.4745C49.1799 75.367 49.4124 74.2231 50.0445 73.366C50.6802 72.509 51.6466 71.347 52.8745 71.8735C53.9498 72.3383 54.8725 72.8758 54.8907 77.1572V531.226H58.4218V75.4759H58.3819H58.3855Z" fill="#DBD2C1"/>
<path d="M74.2585 75.4759C74.2404 74.9021 74.215 74.3284 74.1859 73.751C74.1423 72.8576 74.0805 71.9534 73.8299 71.1037C73.5756 70.2539 73.1106 69.4477 72.4094 68.9974C71.6393 68.4999 70.6984 68.4854 69.8083 68.5471C68.8165 68.6125 67.7703 68.7832 67.0074 69.484C66.655 69.8072 66.3825 70.2285 66.1319 70.6534C65.1147 72.3819 64.3373 74.5535 65.0093 76.4745C65.0529 75.367 65.2854 74.2231 65.9175 73.366C66.5533 72.509 67.5196 71.347 68.7475 71.8735C69.8228 72.3383 70.7456 72.8758 70.7637 77.1572V531.226H74.2949V75.4759H74.2549H74.2585Z" fill="#DBD2C1"/>
<path d="M90.1297 75.4759C90.1115 74.9021 90.086 74.3284 90.057 73.751C90.0134 72.8576 89.9516 71.9534 89.701 71.1037C89.4467 70.2539 88.9816 69.4477 88.2805 68.9974C87.5103 68.4999 86.5695 68.4854 85.6794 68.5471C84.6877 68.6125 83.6414 68.7832 82.8785 69.484C82.5261 69.8072 82.2536 70.2285 82.003 70.6534C80.9858 72.3819 80.2084 74.5535 80.8804 76.4745C80.924 75.367 81.1565 74.2231 81.7886 73.366C82.4244 72.509 83.3907 71.347 84.6186 71.8735C85.6939 72.3383 86.6167 72.8758 86.6349 77.1572V531.226H90.166V75.4759H90.126H90.1297Z" fill="#DBD2C1"/>
<path d="M106.001 75.4759C105.983 74.9021 105.957 74.3284 105.928 73.751C105.884 72.8576 105.823 71.9534 105.572 71.1037C105.318 70.2539 104.853 69.4477 104.152 68.9974C103.381 68.4999 102.441 68.4854 101.55 68.5471C100.559 68.6125 99.5125 68.7832 98.7496 69.484C98.3972 69.8072 98.1247 70.2285 97.8741 70.6534C96.8569 72.3819 96.0794 74.5535 96.7515 76.4745C96.7951 75.367 97.0276 74.2231 97.6597 73.366C98.2955 72.509 99.2618 71.347 100.49 71.8735C101.565 72.3383 102.488 72.8758 102.506 77.1572V531.226H106.037V75.4759H105.997H106.001Z" fill="#DBD2C1"/>
<path d="M27.9648 59.8066H112.803V81.3409C112.803 81.3409 105.177 66.0382 76.9683 63.8266C48.7629 61.6151 27.9648 62.2978 27.9648 62.2978V59.8103V59.8066Z" fill="#A8A198"/>
</svg>
