<?xml version="1.0" encoding="utf-8"?>
<!-- Generator: Adobe Illustrator 27.5.0, SVG Export Plug-In . SVG Version: 6.00 Build 0)  -->
<svg version="1.1" id="Layer_1" xmlns="http://www.w3.org/2000/svg" xmlns:xlink="http://www.w3.org/1999/xlink" x="0px" y="0px"
	 viewBox="0 0 211 492" style="enable-background:new 0 0 211 492;" xml:space="preserve">
<style type="text/css">
	.st0{fill:#EAE1CC;}
	.st1{fill:#DBD2C1;}
	.st2{fill:#C9C1B3;}
	.st3{fill:#A8A198;}
	.st4{fill:#FFF4E3;}
	.st5{fill:#FFFFFF;}
	.st6{fill:#B2AAA3;}
</style>
<path class="st0" d="M40,116.4h130.6V492H40V116.4z"/>
<path class="st1" d="M89.5,142.5c-0.7,4.5-2.6,10.3-7.7,14.8c-5.1,4.6-10.6,6.8-15,7.8v288c4.5,1,10,3.2,15,7.8
	c5.1,4.5,7,10.3,7.7,14.8h31.7c0.7-4.5,2.6-10.3,7.7-14.8c5.1-4.6,10.6-6.8,15.1-7.8v-288c-4.5-1-10-3.2-15.1-7.8
	c-5.1-4.5-7-10.3-7.7-14.8L89.5,142.5L89.5,142.5z M81.5,136.2h47.6c0,0-1.1,10.7,5.9,17c6.7,6,14,6.5,16.3,6.5c0.5,0,0.7,0,0.7,0
	v298.9c0,0-0.3,0-0.7,0c-2.3,0-9.6,0.5-16.3,6.5c-7.1,6.3-5.9,17-5.9,17H81.5c0,0,1.1-10.7-5.9-17c-6.7-6-14-6.5-16.3-6.5
	c-0.5,0-0.7,0-0.7,0V159.7c0,0,0.3,0,0.7,0c2.3,0,9.6-0.5,16.3-6.5C82.7,146.9,81.5,136.2,81.5,136.2z"/>
<path class="st2" d="M93.2,97.4H189v2.4c0,10.3-10.1,18.7-22.5,18.7H44.1c-12.4,0-22.5-8.4-22.5-18.7v-2.4H93.2z"/>
<path class="st0" d="M93.8,0h22.6h84.2v8.5h-84.2H93.8H9.6V0H93.8z"/>
<path class="st2" d="M93.8,8.5h102.5c0,0-4.9,1.2-7.4,3.7c-2.5,2.5-2.2,4.4-2.2,4.4h0v6.2h-163v-6.2h0c0,0,0.2-1.9-2.2-4.4
	c-2.5-2.5-7.4-3.7-7.4-3.7H93.8L93.8,8.5z"/>
<path class="st3" d="M196.3,8.5H13.9l6.6,3L196.3,8.5z"/>
<path class="st0" d="M24.8,22.7h160.3v64H24.8V22.7z"/>
<path class="st2" d="M29.9,51c1.4-6.1,8.4-15.5,15.9-19.1c8.1-3.9,18.2-5,32.1-3.1c11.5,1.6,19.8,13.5,21.9,18.1
	c1.2,2.6,1.7,5.5,1.8,8.4h0c0-3.5,0.6-6.9,2.2-10c2.3-4.4,11.2-15.9,22.8-16.9c13.9-1.2,24,0.5,31.9,4.8
	c7.3,3.9,13.9,13.7,14.9,19.9c1.1,6.6-1,19.9-15.7,24.2c-5.3,1.5-11,0.9-16.1-1.2c-3.7-1.5-7.1-3.9-9-7.4c-2-3.4-2.2-8,0.2-11.2
	c0.9-1.2,2.2-2.2,3.6-2.2c1.5,0,3,1.2,2.8,2.7c-0.2,1.7-2.2,2.5-3.3,3.8c-1.3,1.5-1.4,3.8-0.6,5.6c0.8,1.8,2.4,3.1,4.2,4
	c4.2,2.1,9.3,1.8,13.8,0.6c2.1-0.5,4.2-1.3,5.9-2.6c4-3,5.4-8.7,4.2-13.5c-1.3-4.8-4.8-8.8-9-11.6c-3.6-2.4-7.7-3.9-12-4.5
	c-3.4-0.5-6.9-0.4-10.4,0.2c-4.7,0.8-9.3,2.6-12.9,5.7c-2.6,2.2-4.6,4.9-6,7.9c-0.3,0.6-0.5,1.2-0.7,1.8c3.8,0.4,6.7,3.6,6.7,7.5
	v0.6c0,3.6-2.5,6.6-5.9,7.4c0.3,0.7,0.7,1.4,1.1,2.1c5.3,9,12.2,6.8,14,8.6c2.7,3.2-8.3,6.5-13.3,5.2c-3.3-2-7.8-9.9-9.9-14.7
	c-0.2-0.3-0.3-0.7-0.4-1h-6.4c-0.3,0.8-0.7,1.7-1.1,2.5c-2.4,4.7-7.3,12.3-10.7,14.2c-5,1.1-15.8-2.8-13-5.9
	c1.9-1.7,8.7,0.8,14.5-7.9c0.6-1,1.2-2,1.7-3.1c-3.4-0.7-5.9-3.8-5.9-7.4v-0.6c0-3.9,2.9-7,6.6-7.5c-0.1-0.2-0.2-0.5-0.3-0.7
	c-1.3-3.1-3.2-5.9-5.6-8.2c-3.5-3.3-8-5.3-12.6-6.4c-3.4-0.8-6.9-1.1-10.3-0.8c-4.3,0.4-8.5,1.7-12.2,3.9c-4.3,2.5-8.1,6.3-9.6,11.1
	c-1.5,4.8-0.4,10.5,3.5,13.7c1.7,1.4,3.7,2.2,5.8,2.9c4.5,1.4,9.5,1.9,13.9,0.1c1.8-0.8,3.5-2,4.4-3.8c0.9-1.7,0.9-4-0.3-5.6
	c-1.1-1.4-3.1-2.2-3.1-4c-0.1-1.5,1.5-2.6,3-2.5c1.5,0.1,2.7,1.2,3.5,2.4c2.2,3.3,1.7,7.9-0.4,11.2c-2.1,3.3-5.7,5.6-9.4,6.9
	c-5.2,1.9-11,2.2-16.1,0.4C29.9,70.9,28.5,57.5,29.9,51L29.9,51z"/>
<path class="st4" d="M100.8,70.7c1.2-2.3,2.1-4.8,2.8-7.4c1.8-6.3,2.6-13.3-0.1-19.3c-2.1-4.6-10.4-16.5-21.9-18.1
	c-13.8-1.9-24-0.7-32.1,3.1c-7.5,3.6-14.6,13-15.9,19.1c-1.5,6.5,0,19.9,14.4,25c5.2,1.8,11,1.5,16.1-0.4c3.7-1.3,7.3-3.6,9.4-6.9
	s2.6-7.9,0.4-11.2c-0.8-1.2-2-2.3-3.5-2.4c-1.5-0.1-3,1-3,2.5c0.1,1.7,2.1,2.6,3.1,4c1.2,1.5,1.2,3.8,0.3,5.6
	c-0.9,1.7-2.6,3-4.4,3.8c-4.3,1.9-9.4,1.3-13.9-0.1c-2.1-0.6-4.1-1.5-5.8-2.9c-3.8-3.2-5-8.9-3.5-13.7c1.5-4.8,5.2-8.6,9.6-11.1
	c3.7-2.2,7.9-3.5,12.2-3.9c3.5-0.3,7,0,10.3,0.8c4.6,1.1,9.1,3.1,12.6,6.4c2.4,2.3,4.3,5.2,5.6,8.2c2.7,6.3,1.7,13.6-2.1,19.3
	C85.8,79.9,79,77.3,77.1,79c-2.8,3,7.9,6.9,13,5.9C93.5,83.1,98.4,75.4,100.8,70.7L100.8,70.7z"/>
<path class="st4" d="M108.8,69.2c-1.1-2.4-1.8-4.9-2.4-7.5c-1.5-6.4-2-13.5,1.1-19.3c2.3-4.5,11.2-16,22.8-16.9
	c13.9-1.2,24,0.5,31.9,4.8c7.3,3.9,13.9,13.7,14.9,19.9c1.1,6.6-1,19.9-15.7,24.2c-5.3,1.5-11,0.9-16.1-1.2c-3.7-1.5-7.1-3.9-9-7.4
	c-2-3.4-2.2-8,0.2-11.2c0.9-1.2,2.2-2.2,3.6-2.2s3,1.2,2.8,2.7c-0.2,1.7-2.2,2.5-3.3,3.8c-1.3,1.5-1.4,3.8-0.6,5.6
	c0.8,1.8,2.4,3.1,4.2,4c4.2,2.1,9.3,1.8,13.8,0.7c2.1-0.5,4.2-1.3,5.9-2.6c4-3,5.4-8.7,4.2-13.5c-1.3-4.8-4.8-8.8-9-11.6
	c-3.6-2.4-7.7-3.9-12-4.5c-3.4-0.5-6.9-0.4-10.4,0.2c-4.7,0.8-9.3,2.6-12.9,5.7c-2.6,2.2-4.6,4.9-6,7.9c-3,6.1-2.4,13.5,1.1,19.4
	c5.3,9,12.2,6.8,14,8.6c2.7,3.2-8.3,6.5-13.3,5.2C115.4,81.9,110.9,74,108.8,69.2L108.8,69.2z"/>
<path class="st4" d="M94.9,52.4h20.3c4.2,0,7.6,3.4,7.6,7.6v0.7c0,4.2-3.4,7.6-7.6,7.6H94.9c-4.2,0-7.6-3.4-7.6-7.6V60
	C87.4,55.8,90.7,52.4,94.9,52.4z"/>
<path class="st4" d="M15.6,86.7h179.5v10.7H15.6V86.7z"/>
<path class="st5" d="M174,49c0,1.1-0.6,2.5-1.8,2.4c-0.5,0-1-0.4-1.3-0.8c-1.4-1.6-1.9-3.8-2.8-5.7c-2.7-6-8.9-9.7-15.2-11.8
	c-0.7-0.2-1.4-0.6-1.5-1.3c0-0.7,0.7-1.1,1.4-1.2c1.7-0.2,3.3,0.9,4.7,1.9c3.2,2.3,6.4,4.6,9.7,6.9c1.2,0.9,2.5,1.8,3.4,3
	C172.1,44.2,174,46.5,174,49L174,49z"/>
<path class="st5" d="M148.7,31.2c-0.4,0.2-0.9,0.2-1.3,0.2c-1.1,0-2.3-0.2-3.4-0.5c-0.6-0.2-1.2-0.4-1.6-0.9c-0.4-0.5-0.5-1.3,0-1.7
	c0.2-0.2,0.5-0.3,0.8-0.3c1.4-0.3,3.6-0.4,4.9,0.4C149.1,28.9,150,30.4,148.7,31.2L148.7,31.2z"/>
<path class="st5" d="M119.6,57.3c0.4,0.9,0.3,2.1-0.6,2.6c-0.6,0.4-1.4,0.2-2.1,0.1c-3.5-0.7-7.1-0.9-10.7-0.7
	c-2,0.2-4.1,0.4-5.9-0.3c-0.7-0.3-1.5-0.9-1.6-1.7c-0.2-0.8,0.4-1.6,1.1-2.1c0.7-0.4,1.5-0.6,2.4-0.7c3.2-0.4,6.4-0.4,9.6,0
	C114.3,54.7,118.4,54.8,119.6,57.3z"/>
<path class="st5" d="M96.4,40c0.3,0.7,0.5,1.6-0.1,2.1c-0.5,0.4-1.2,0.2-1.7,0c-1.8-0.9-2.8-2.8-4-4.4c-1.9-2.5-4.5-4.4-7.4-5.5
	c-1.8-0.6-3.6-0.9-5.4-1.3c-0.4-0.1-0.9-0.2-1.1-0.6c-0.2-0.4,0.1-0.9,0.5-1.1c0.4-0.2,0.8-0.2,1.3-0.2C86,29.2,93.5,32.5,96.4,40
	L96.4,40z"/>
<path class="st5" d="M66.7,30c-0.5-0.1-1-0.3-1.3-0.6s-0.5-0.9-0.3-1.3c0.2-0.4,0.7-0.5,1.1-0.6c1.5-0.3,5.5-1,6.5,0.8
	C74.2,30.9,67.9,30.3,66.7,30z"/>
<path class="st6" d="M170.6,118.2H40v19.6l130.6-16.4V118.2z"/>
<path class="st3" d="M189,97.4H21.7v4.4L189,97.4z"/>
</svg>
