<svg width="131" height="30" viewBox="0 0 131 30" fill="none" xmlns="http://www.w3.org/2000/svg">
<g clip-path="url(#clip0_4202_4259)">
<path d="M112.659 15.024C112.659 17.7402 111.378 20.1618 109.374 21.7422L113.933 29.488L131.001 0.5H96.8657L100.684 6.98384C101.67 6.61127 102.743 6.40095 103.864 6.40095C108.724 6.40095 112.659 10.2648 112.659 15.024Z" fill="#FF5740"/>
<path d="M108.295 15.8233C108.741 13.4202 107.116 11.1174 104.665 10.6798C102.215 10.2422 99.8661 11.8356 99.4198 14.2387C98.9736 16.6418 100.599 18.9446 103.049 19.3822C105.5 19.8197 107.849 18.2264 108.295 15.8233Z" fill="#FF5740"/>
<path d="M46.0793 19.0196C45.9628 18.9054 45.8341 18.8213 45.6748 18.7612C45.5216 18.7011 45.3561 18.665 45.1845 18.665C45.0129 18.665 44.8475 18.6951 44.6943 18.7612C44.5411 18.8213 44.4062 18.9114 44.2898 19.0196C44.1734 19.1338 44.0876 19.2599 44.0263 19.4162C43.965 19.5664 43.9282 19.7287 43.9282 19.8969C43.9282 20.0652 43.9589 20.2274 44.0263 20.3776C44.0876 20.5279 44.1795 20.6601 44.2898 20.7742C44.4062 20.8884 44.5349 20.9725 44.6943 21.0326C44.8475 21.0927 45.0129 21.1288 45.1845 21.1288C45.3561 21.1288 45.5216 21.0987 45.6748 21.0326C45.828 20.9725 45.9628 20.8824 46.0793 20.7742C46.1957 20.6601 46.2815 20.5339 46.3428 20.3776C46.4041 20.2214 46.4409 20.0652 46.4409 19.8969C46.4409 19.7287 46.4102 19.5664 46.3428 19.4162C46.2815 19.266 46.1896 19.1338 46.0793 19.0196Z" fill="#FF5740"/>
<path d="M50.0567 18.9597H50.0321L48.353 14.543H46.1406L48.8861 21.0448H51.0556L53.6724 14.543H51.6133L50.0567 18.9597Z" fill="#FF5740"/>
<path d="M60.015 15.3123C59.6841 15.0118 59.2919 14.7835 58.8445 14.6212C58.3971 14.459 57.913 14.3809 57.4043 14.3809C56.8957 14.3809 56.4177 14.459 55.9642 14.6212C55.5168 14.7835 55.1246 15.0118 54.7937 15.3123C54.4627 15.6127 54.1992 15.9733 54.0092 16.3879C53.8192 16.8085 53.7212 17.2773 53.7212 17.794C53.7212 18.3108 53.8192 18.7795 54.0092 19.2002C54.1992 19.6208 54.4627 19.9814 54.7937 20.2758C55.1246 20.5763 55.5168 20.8046 55.9642 20.9669C56.4115 21.1291 56.8957 21.2072 57.4043 21.2072C57.913 21.2072 58.391 21.1291 58.8445 20.9669C59.2919 20.8046 59.6841 20.5763 60.015 20.2758C60.346 19.9753 60.6095 19.6208 60.7995 19.2002C60.9894 18.7795 61.0875 18.3108 61.0875 17.794C61.0875 17.2773 60.9894 16.8085 60.7995 16.3879C60.6095 15.9673 60.346 15.6127 60.015 15.3123ZM58.6116 18.9838C58.3236 19.2843 57.9252 19.4405 57.4043 19.4405C56.8834 19.4405 56.4851 19.2903 56.197 18.9838C55.909 18.6834 55.7681 18.2868 55.7681 17.794C55.7681 17.3013 55.909 16.9047 56.197 16.6042C56.4851 16.3038 56.8834 16.1475 57.4043 16.1475C57.9252 16.1475 58.3236 16.2978 58.6116 16.6042C58.8997 16.9047 59.0406 17.3073 59.0406 17.794C59.0406 18.2808 58.8997 18.6834 58.6116 18.9838Z" fill="#FF5740"/>
<path d="M64.1885 12.6201H62.1416V19.2422C62.1416 19.5967 62.2029 19.9032 62.3254 20.1495C62.448 20.4019 62.6196 20.6002 62.8341 20.7565C63.0547 20.9127 63.306 21.0269 63.6001 21.099C63.8943 21.1711 64.2069 21.2071 64.5562 21.2071C64.7952 21.2071 65.0342 21.1951 65.2793 21.1651C65.5245 21.141 65.7635 21.087 65.9902 21.0028V19.3323C65.8983 19.4104 65.7635 19.4645 65.5857 19.4885C65.408 19.5126 65.2671 19.5246 65.1568 19.5246C64.9361 19.5246 64.7645 19.4945 64.6297 19.4405C64.4949 19.3804 64.403 19.3023 64.3356 19.1941C64.2743 19.0859 64.2314 18.9597 64.213 18.8155C64.1946 18.6713 64.1885 18.503 64.1885 18.3288V16.1595H65.9902V14.5551H64.1885V12.6261V12.6201Z" fill="#FF5740"/>
<path d="M72.4375 15.3123C72.1678 15.0118 71.843 14.7835 71.4569 14.6212C71.0708 14.459 70.6419 14.3809 70.17 14.3809C69.6613 14.3809 69.1833 14.459 68.7298 14.6212C68.2824 14.7835 67.8902 15.0118 67.5593 15.3123C67.2283 15.6127 66.9648 15.9733 66.7749 16.3879C66.5849 16.8085 66.4868 17.2773 66.4868 17.794C66.4868 18.3108 66.5849 18.7795 66.7749 19.2002C66.9648 19.6208 67.2283 19.9814 67.5593 20.2758C67.8902 20.5763 68.2824 20.8046 68.7298 20.9669C69.1772 21.1291 69.6613 21.2072 70.17 21.2072C70.7093 21.2072 71.224 21.093 71.7266 20.8707C72.2291 20.6484 72.6397 20.3299 72.9706 19.9213L71.5366 18.8937C71.365 19.1281 71.1628 19.3143 70.9299 19.4646C70.697 19.6148 70.4151 19.6869 70.078 19.6869C69.6797 19.6869 69.3426 19.5727 69.0669 19.3444C68.7911 19.116 68.6195 18.8096 68.5337 18.425H73.2832V17.794C73.2832 17.2773 73.2096 16.8085 73.0626 16.3879C72.9155 15.9673 72.7071 15.6127 72.4436 15.3123H72.4375ZM68.5276 17.0609C68.5337 16.8987 68.5766 16.7485 68.644 16.5982C68.7114 16.448 68.8095 16.3218 68.932 16.2076C69.0546 16.0935 69.2017 16.0033 69.3733 15.9312C69.5449 15.8591 69.7471 15.823 69.9739 15.823C70.3477 15.823 70.6541 15.9432 70.887 16.1836C71.126 16.424 71.2363 16.7124 71.2302 17.0549H68.5276V17.0609Z" fill="#FF5740"/>
<path d="M95.7618 11.6533H80.9985V18.3475H95.7373C95.3021 17.3259 95.0631 16.2022 95.0631 15.0244C95.0631 13.8466 95.3144 12.6869 95.7618 11.6533Z" fill="white"/>
<path d="M91.5332 0.5H80.9985V7.19416H95.4737L91.5332 0.5Z" fill="white"/>
<path d="M5.95651 4.88063C5.68686 4.58018 5.36205 4.35183 4.97597 4.18958C4.58988 4.02734 4.16089 3.94922 3.68901 3.94922C3.18035 3.94922 2.70234 4.02734 2.24884 4.18958C1.80147 4.35183 1.40926 4.58018 1.07832 4.88063C0.747392 5.18109 0.483872 5.54164 0.293893 5.95626C0.103913 6.3769 0.00585938 6.84561 0.00585938 7.3624C0.00585938 7.87918 0.103913 8.34789 0.293893 8.76853C0.483872 9.18917 0.747392 9.54972 1.07832 9.84416C1.40926 10.1446 1.80147 10.373 2.24884 10.5352C2.69621 10.6975 3.18035 10.7756 3.68901 10.7756C4.22831 10.7756 4.74309 10.6614 5.24561 10.4391C5.74814 10.2167 6.15874 9.89825 6.48967 9.48963L5.05564 8.46207C4.88404 8.69642 4.6818 8.8827 4.44893 9.03293C4.21605 9.18316 3.93414 9.25527 3.59708 9.25527C3.19874 9.25527 2.86168 9.1411 2.5859 8.91275C2.31013 8.6844 2.13853 8.37794 2.05273 7.99336H6.80222V7.3624C6.80222 6.84561 6.72868 6.3769 6.5816 5.95626C6.43452 5.53563 6.22615 5.18109 5.96263 4.88063H5.95651ZM2.04661 6.62929C2.05273 6.46704 2.09563 6.31681 2.16305 6.16658C2.23046 6.01636 2.32851 5.89016 2.45108 5.77599C2.57365 5.66182 2.72073 5.57168 2.89232 5.49957C3.06392 5.42746 3.26615 5.39141 3.4929 5.39141C3.86673 5.39141 4.17315 5.51159 4.40603 5.75195C4.64503 5.99232 4.75535 6.28076 4.74922 6.62328H2.04661V6.62929Z" fill="white"/>
<path d="M17.6186 4.77247C17.4409 4.52009 17.2019 4.31578 16.8955 4.17156C16.589 4.02734 16.2152 3.94922 15.7678 3.94922C15.2776 3.94922 14.8608 4.03936 14.5238 4.21963C14.1867 4.3999 13.8987 4.69435 13.6658 5.11499C13.482 4.71238 13.2123 4.41793 12.8569 4.23165C12.4953 4.04536 12.0847 3.94922 11.6251 3.94922C11.3799 3.94922 11.1532 3.97926 10.9448 4.04536C10.7364 4.10546 10.5465 4.18958 10.3871 4.28573C10.2217 4.38188 10.0807 4.49605 9.96427 4.62224C9.84783 4.74843 9.75591 4.87462 9.6885 4.99481H9.66398V4.11147H7.69678V10.6133H9.74365V7.37442C9.74365 7.15809 9.75591 6.95378 9.78655 6.76149C9.81106 6.56318 9.87235 6.38892 9.95815 6.23268C10.0439 6.07645 10.1726 5.95026 10.332 5.86012C10.4974 5.76397 10.7119 5.72191 10.9755 5.72191C11.2145 5.72191 11.3922 5.77599 11.5148 5.88415C11.6373 5.99232 11.7292 6.11851 11.7783 6.27475C11.8334 6.42498 11.8641 6.58722 11.8763 6.75548C11.8825 6.92373 11.8886 7.06795 11.8886 7.18212V10.6193H13.9355V7.18212C13.9355 6.98382 13.9538 6.79754 13.9967 6.62328C14.0396 6.443 14.1071 6.28677 14.199 6.15456C14.297 6.02236 14.4196 5.9142 14.5789 5.84209C14.7383 5.76397 14.9344 5.72792 15.1734 5.72792C15.5104 5.72792 15.7433 5.83608 15.8781 6.05842C16.0068 6.27475 16.0743 6.53915 16.0743 6.8396V10.6253H18.1211V6.78552C18.1211 6.39493 18.0844 6.02236 18.0047 5.67984C17.925 5.33732 17.8025 5.03687 17.6247 4.78449L17.6186 4.77247Z" fill="white"/>
<path d="M25.5244 4.89265C25.2363 4.59219 24.8931 4.36385 24.4948 4.19559C24.0964 4.03335 23.6491 3.94922 23.1588 3.94922C22.9198 3.94922 22.6992 3.97926 22.4908 4.04536C22.2824 4.10546 22.0863 4.18958 21.9086 4.28573C21.7309 4.38188 21.5777 4.49605 21.4429 4.61623C21.308 4.73641 21.2039 4.8566 21.1242 4.97077H21.0997V4.11147H19.2183V13.666H21.2651V9.92228H21.2897C21.5287 10.2348 21.8289 10.4571 22.1966 10.5833C22.5644 10.7095 22.9627 10.7756 23.3917 10.7756C23.8636 10.7756 24.2864 10.6794 24.6603 10.4871C25.0341 10.2948 25.3466 10.0365 25.6102 9.71797C25.8675 9.39949 26.0698 9.02692 26.2107 8.61229C26.3517 8.19767 26.4252 7.76501 26.4252 7.30832C26.4252 6.81557 26.3456 6.36488 26.1923 5.95626C26.0391 5.54764 25.8185 5.19311 25.5305 4.89265H25.5244ZM23.9371 8.5522C23.6491 8.85266 23.2507 9.0089 22.7298 9.0089C22.2089 9.0089 21.8106 8.85867 21.5225 8.5522C21.2345 8.25175 21.0935 7.85515 21.0935 7.3624C21.0935 6.86965 21.2345 6.47305 21.5225 6.17259C21.8106 5.87214 22.2089 5.7159 22.7298 5.7159C23.2507 5.7159 23.6491 5.86613 23.9371 6.17259C24.2251 6.47305 24.3661 6.87566 24.3661 7.3624C24.3661 7.84914 24.2251 8.25175 23.9371 8.5522Z" fill="white"/>
<path d="M33.3934 4.88063C33.0625 4.58018 32.6703 4.35183 32.2229 4.18958C31.7756 4.02734 31.2914 3.94922 30.7828 3.94922C30.2741 3.94922 29.7961 4.02734 29.3426 4.18958C28.8952 4.35183 28.503 4.58018 28.1721 4.88063C27.8411 5.18109 27.5776 5.54164 27.3876 5.95626C27.1977 6.3769 27.0996 6.84561 27.0996 7.3624C27.0996 7.87918 27.1977 8.34789 27.3876 8.76853C27.5776 9.18917 27.8411 9.54972 28.1721 9.84416C28.503 10.1446 28.8952 10.373 29.3426 10.5352C29.79 10.6975 30.2741 10.7756 30.7828 10.7756C31.2914 10.7756 31.7694 10.6975 32.2229 10.5352C32.6703 10.373 33.0625 10.1446 33.3934 9.84416C33.7244 9.54371 33.9879 9.18917 34.1779 8.76853C34.3679 8.34789 34.4659 7.87918 34.4659 7.3624C34.4659 6.84561 34.3679 6.3769 34.1779 5.95626C33.9879 5.53563 33.7244 5.18109 33.3934 4.88063ZM31.99 8.5522C31.702 8.85266 31.3037 9.0089 30.7828 9.0089C30.2618 9.0089 29.8635 8.85867 29.5755 8.5522C29.2874 8.25175 29.1465 7.85515 29.1465 7.3624C29.1465 6.86965 29.2874 6.47305 29.5755 6.17259C29.8635 5.87214 30.2618 5.7159 30.7828 5.7159C31.3037 5.7159 31.702 5.86613 31.99 6.17259C32.2781 6.47305 32.419 6.87566 32.419 7.3624C32.419 7.84914 32.2781 8.25175 31.99 8.5522Z" fill="white"/>
<path d="M45.9688 4.11133H43.8912L42.6533 8.19152H42.6227L41.397 4.11133H39.1601L38.0264 8.19152H38.0019L36.6475 4.11133H34.4658L36.8927 10.6132H38.9518L40.1836 6.29264H40.2081L41.587 10.6132H43.6093L45.9688 4.11133Z" fill="white"/>
<path d="M46.2262 8.76853C46.4162 9.18917 46.6797 9.54972 47.0107 9.84416C47.3416 10.1446 47.7338 10.373 48.1812 10.5352C48.6286 10.6975 49.1127 10.7756 49.6214 10.7756C50.1607 10.7756 50.6754 10.6614 51.178 10.4391C51.6805 10.2167 52.0911 9.89825 52.422 9.48963L50.988 8.46207C50.8164 8.69642 50.6142 8.8827 50.3813 9.03293C50.1484 9.18316 49.8665 9.25527 49.5294 9.25527C49.1311 9.25527 48.794 9.1411 48.5182 8.91275C48.2425 8.6844 48.0709 8.37794 47.9851 7.99336H52.7346V7.3624C52.7346 6.84561 52.661 6.3769 52.5139 5.95626C52.3669 5.53563 52.1585 5.18109 51.895 4.88063C51.6253 4.58018 51.3005 4.35183 50.9144 4.18958C50.5284 4.02734 50.0994 3.94922 49.6275 3.94922C49.1188 3.94922 48.6408 4.02734 48.1873 4.18958C47.7399 4.35183 47.3477 4.58018 47.0168 4.88063C46.6859 5.18109 46.4223 5.54164 46.2324 5.95626C46.0424 6.3769 45.9443 6.84561 45.9443 7.3624C45.9443 7.87918 46.0424 8.34789 46.2324 8.76853H46.2262ZM48.1015 6.16658C48.1689 6.01636 48.267 5.89016 48.3896 5.77599C48.5121 5.66182 48.6592 5.57168 48.8308 5.49957C49.0024 5.42746 49.2046 5.39141 49.4314 5.39141C49.8052 5.39141 50.1116 5.51159 50.3445 5.75195C50.5835 5.99232 50.6938 6.28076 50.6877 6.62328H47.9851C47.9912 6.46103 48.0341 6.3108 48.1015 6.16057V6.16658Z" fill="white"/>
<path d="M55.6147 7.89721C55.6147 7.57873 55.6331 7.28428 55.6699 7.01387C55.7067 6.74346 55.7863 6.51511 55.9089 6.32282C56.0315 6.13053 56.2092 5.9803 56.4359 5.87214C56.6627 5.76397 56.9752 5.70989 57.3613 5.70989C57.5145 5.70989 57.6616 5.72191 57.8026 5.74594C57.9435 5.76998 58.0845 5.80003 58.2316 5.8481V4.01532C58.1335 3.99128 58.0232 3.97326 57.9068 3.96124C57.7903 3.95523 57.6678 3.94922 57.5513 3.94922C57.0978 3.94922 56.7178 4.05137 56.4176 4.24967C56.1173 4.44798 55.8599 4.74843 55.6393 5.15104H55.6147V4.10546H53.5679V10.6073H55.6147V7.8912V7.89721Z" fill="white"/>
<path d="M63.5696 10.4391C64.0721 10.2167 64.4827 9.89825 64.8136 9.48963L63.3796 8.46207C63.208 8.69642 63.0058 8.8827 62.7729 9.03293C62.54 9.18316 62.2581 9.25527 61.921 9.25527C61.5227 9.25527 61.1856 9.1411 60.9098 8.91275C60.6341 8.6844 60.4625 8.37794 60.3767 7.99336H65.1262V7.3624C65.1262 6.84561 65.0526 6.3769 64.9055 5.95626C64.7585 5.53563 64.5501 5.18109 64.2866 4.88063C64.0169 4.58018 63.6921 4.35183 63.306 4.18958C62.92 4.02734 62.491 3.94922 62.0191 3.94922C61.5104 3.94922 61.0324 4.02734 60.5789 4.18958C60.1315 4.35183 59.7393 4.58018 59.4084 4.88063C59.0775 5.18109 58.814 5.54164 58.624 5.95626C58.434 6.3769 58.3359 6.84561 58.3359 7.3624C58.3359 7.87918 58.434 8.34789 58.624 8.76853C58.814 9.18917 59.0775 9.54972 59.4084 9.84416C59.7393 10.1446 60.1315 10.373 60.5789 10.5352C61.0263 10.6975 61.5104 10.7756 62.0191 10.7756C62.5584 10.7756 63.0732 10.6614 63.5757 10.4391H63.5696ZM60.4931 6.16658C60.5605 6.01636 60.6586 5.89016 60.7812 5.77599C60.9037 5.66182 61.0508 5.57168 61.2224 5.49957C61.394 5.42746 61.5962 5.39141 61.823 5.39141C62.1968 5.39141 62.5032 5.51159 62.7361 5.75195C62.9751 5.99232 63.0854 6.28076 63.0793 6.62328H60.3767C60.3828 6.46103 60.4257 6.3108 60.4931 6.16057V6.16658Z" fill="white"/>
<path d="M67.7058 10.5292C68.1042 10.6915 68.5515 10.7756 69.0418 10.7756C69.2686 10.7756 69.4892 10.7455 69.7037 10.6794C69.9182 10.6194 70.1143 10.5352 70.292 10.4391C70.4697 10.3429 70.6229 10.2288 70.7578 10.1086C70.8926 9.9884 70.9968 9.86821 71.0764 9.75404H71.1009V10.6133H72.9824V0.5H70.9355V4.80854H70.911C70.672 4.49606 70.3717 4.27373 70.004 4.14753C69.6363 4.02134 69.2379 3.95524 68.8089 3.95524C68.337 3.95524 67.9142 4.05139 67.5404 4.24368C67.1665 4.43597 66.854 4.69436 66.5905 5.01285C66.3331 5.33133 66.1308 5.7039 65.9899 6.11852C65.8489 6.53315 65.7754 6.96581 65.7754 7.4225C65.7754 7.91525 65.8551 8.36593 66.0083 8.77455C66.1615 9.18317 66.3821 9.53771 66.6701 9.83817C66.9582 10.1386 67.3014 10.367 67.6997 10.5352L67.7058 10.5292ZM68.2574 6.17261C68.5454 5.87215 68.9438 5.71591 69.4647 5.71591C69.9856 5.71591 70.3839 5.86614 70.672 6.17261C70.96 6.47306 71.1009 6.87567 71.1009 7.36241C71.1009 7.84915 70.96 8.25176 70.672 8.55222C70.3839 8.85267 69.9856 9.00891 69.4647 9.00891C68.9438 9.00891 68.5454 8.85868 68.2574 8.55222C67.9693 8.25176 67.8284 7.85516 67.8284 7.36241C67.8284 6.86966 67.9693 6.47306 68.2574 6.17261Z" fill="white"/>
<path d="M80.9985 22.8115V29.4997H108.607L104.666 22.8115H80.9985Z" fill="white"/>
</g>
<defs>
<clipPath id="clip0_4202_4259">
<rect width="131" height="29" fill="white" transform="translate(0 0.5)"/>
</clipPath>
</defs>
</svg>
