<svg width="209" height="205" viewBox="0 0 209 205" fill="none" xmlns="http://www.w3.org/2000/svg">
<g id="Frame" clip-path="url(#clip0_4202_4532)">
<g id="Background Complete">
<g id="Group">
<path id="Vector" d="M127.856 96.385C111.497 100.632 96.6934 104.475 85.9651 107.26C80.6184 108.675 76.2915 109.819 73.2861 110.615C71.8007 111.015 70.6454 111.334 69.844 111.55C69.4581 111.658 69.1629 111.745 68.9522 111.802C68.7528 111.859 68.651 111.894 68.6529 111.901C68.6547 111.908 68.7602 111.887 68.9624 111.839C69.1775 111.785 69.4764 111.712 69.8626 111.619C70.6634 111.414 71.8243 111.116 73.3177 110.732C76.3241 109.94 80.6509 108.796 85.9986 107.384C96.7052 104.505 111.475 100.535 127.795 96.1425C144.106 91.7454 158.878 87.7853 169.593 84.9782C174.95 83.5747 179.288 82.4572 182.294 81.706C183.797 81.3304 184.966 81.0486 185.761 80.8639C186.557 80.6826 186.976 80.5994 186.984 80.6305C186.992 80.6581 186.585 80.7974 185.803 81.0304C185.021 81.2635 183.865 81.5936 182.373 82.0106C179.389 82.8446 175.065 84.0139 169.714 85.4416C159.015 88.2926 144.211 92.1501 127.859 96.3806L127.856 96.385Z" fill="#F5F5F5"/>
<path id="Vector_2" d="M128.495 100.048C111.698 101.774 96.4929 103.334 85.4744 104.465C79.979 105.054 75.5326 105.534 72.4432 105.868C70.9156 106.042 69.7258 106.178 68.9031 106.274C68.5058 106.326 68.201 106.363 67.9819 106.389C67.775 106.419 67.6686 106.437 67.6705 106.444C67.6723 106.45 67.7781 106.444 67.9852 106.429C68.2062 106.41 68.5103 106.384 68.9079 106.347C69.7308 106.266 70.9219 106.148 72.4551 105.994C75.5453 105.664 79.9927 105.187 85.4856 104.602C96.4963 103.374 111.683 101.678 128.47 99.8034C145.243 97.9173 160.436 96.2314 171.441 95.0784C176.942 94.4985 181.398 94.0524 184.481 93.7654C186.021 93.6206 187.22 93.5195 188.034 93.4593C188.848 93.3991 189.273 93.3842 189.277 93.4128C189.281 93.4413 188.858 93.5185 188.051 93.6324C187.244 93.7462 186.051 93.8975 184.516 94.0856C181.445 94.4582 176.994 94.9657 171.494 95.5638C160.495 96.767 145.29 98.3412 128.5 100.051L128.495 100.048Z" fill="#F5F5F5"/>
<path id="Vector_3" d="M128.536 103.772C111.709 102.9 96.4779 102.108 85.4382 101.538C79.9292 101.28 75.4711 101.071 72.3748 100.925C70.8395 100.865 69.6446 100.817 68.8205 100.784C68.4211 100.773 68.1146 100.763 67.895 100.76C67.6866 100.757 67.579 100.756 67.5774 100.764C67.5793 100.771 67.6828 100.783 67.8904 100.798C68.1094 100.813 68.4152 100.834 68.8149 100.86C69.6383 100.904 70.831 100.971 72.365 101.054C75.4613 101.2 79.9212 101.415 85.4277 101.678C96.4743 102.15 111.712 102.803 128.551 103.523C145.382 104.231 160.622 104.894 171.649 105.442C177.161 105.714 181.624 105.954 184.707 106.145C186.248 106.24 187.444 106.321 188.255 106.388C189.066 106.454 189.49 106.503 189.487 106.533C189.485 106.564 189.057 106.572 188.243 106.562C187.429 106.551 186.23 106.519 184.687 106.469C181.598 106.365 177.133 106.184 171.619 105.935C160.587 105.437 145.353 104.661 128.537 103.775L128.536 103.772Z" fill="#F5F5F5"/>
<path id="Vector_4" d="M127.974 107.462C111.535 104.017 96.66 100.901 85.876 98.6408C80.4914 97.5382 76.1312 96.6481 73.1036 96.0281C71.6013 95.7335 70.4308 95.5012 69.6253 95.3445C69.2352 95.2719 68.9348 95.216 68.7172 95.1784C68.5109 95.1415 68.4074 95.1286 68.4048 95.133C68.4067 95.1399 68.507 95.1684 68.7083 95.2141C68.9218 95.2639 69.2206 95.3277 69.6075 95.4159C70.4133 95.5873 71.5772 95.8362 73.0746 96.1544C76.1022 96.7744 80.4599 97.6689 85.8454 98.7749C96.6511 100.937 111.558 103.922 128.032 107.221C144.497 110.504 159.408 113.502 170.185 115.735C175.573 116.851 179.93 117.772 182.935 118.431C184.44 118.762 185.604 119.026 186.392 119.213C187.18 119.401 187.589 119.516 187.582 119.548C187.575 119.575 187.152 119.519 186.352 119.383C185.552 119.247 184.375 119.031 182.863 118.743C179.837 118.167 175.468 117.301 170.075 116.209C159.286 114.024 144.405 110.917 127.978 107.461L127.974 107.462Z" fill="#F5F5F5"/>
<path id="Vector_5" d="M126.827 111.025C111.182 105.111 97.0217 99.7561 86.7577 95.8786C81.6293 93.9667 77.4741 92.4217 74.591 91.3481C73.1576 90.8277 72.0438 90.4209 71.2751 90.1395C70.9021 90.0069 70.6157 89.9064 70.4079 89.8366C70.2123 89.7708 70.1111 89.7389 70.1085 89.7433C70.106 89.7477 70.2031 89.7918 70.3946 89.8698C70.5973 89.9484 70.8797 90.061 71.2485 90.2059C72.0131 90.4995 73.1237 90.9219 74.5445 91.4643C77.4286 92.5413 81.5777 94.0917 86.7062 96.0036C97.0059 99.7937 111.216 105.017 126.92 110.793C142.62 116.555 156.83 121.793 167.091 125.645C172.223 127.571 176.368 129.148 179.224 130.259C180.652 130.814 181.756 131.253 182.503 131.563C183.249 131.869 183.634 132.046 183.623 132.075C183.612 132.104 183.205 131.981 182.435 131.725C181.67 131.469 180.545 131.076 179.101 130.559C176.211 129.528 172.043 128.005 166.905 126.099C156.627 122.292 142.459 116.95 126.827 111.025Z" fill="#F5F5F5"/>
<path id="Vector_6" d="M125.127 114.382C110.651 106.154 97.5503 98.7066 88.0545 93.308C83.3037 90.6391 79.4568 88.4779 76.7881 86.9764C75.4601 86.2424 74.424 85.6703 73.7105 85.2778C73.3635 85.0901 73.0954 84.9476 72.9043 84.8437C72.723 84.7482 72.6249 84.7006 72.6233 84.7084C72.6208 84.7128 72.7069 84.771 72.8841 84.8787C73.0727 84.9871 73.3332 85.1426 73.6717 85.3401C74.3776 85.7458 75.4027 86.3319 76.7215 87.0869C79.3902 88.5884 83.2346 90.7539 87.9829 93.4272C97.5301 98.7416 110.699 106.071 125.255 114.17C139.81 122.254 152.975 129.595 162.475 134.967C167.226 137.65 171.058 139.841 173.695 141.374C175.013 142.14 176.035 142.742 176.718 143.161C177.405 143.579 177.757 143.81 177.741 143.836C177.726 143.863 177.344 143.681 176.629 143.311C175.914 142.941 174.87 142.382 173.529 141.652C170.846 140.195 166.982 138.053 162.221 135.387C152.696 130.059 139.59 122.62 125.128 114.385L125.127 114.382Z" fill="#F5F5F5"/>
<path id="Vector_7" d="M122.918 117.446C109.966 107.101 98.2431 97.7423 89.7444 90.957C85.4878 87.5923 82.042 84.8714 79.65 82.9806C78.4582 82.0508 77.5305 81.331 76.888 80.8305C76.5756 80.5927 76.3337 80.4099 76.1612 80.2787C75.995 80.157 75.9114 80.0944 75.9055 80.0997C75.9029 80.1041 75.978 80.1764 76.1357 80.3078C76.3022 80.4443 76.5356 80.6368 76.8361 80.8853C77.4692 81.392 78.3833 82.1302 79.5606 83.075C81.9526 84.9658 85.3968 87.6945 89.6499 91.0602C98.2097 97.7698 110.023 107.023 123.073 117.249C136.126 127.459 147.932 136.725 156.434 143.484C160.687 146.861 164.115 149.612 166.47 151.531C167.647 152.491 168.557 153.241 169.164 153.759C169.774 154.276 170.083 154.559 170.064 154.582C170.044 154.606 169.695 154.367 169.052 153.893C168.409 153.418 167.465 152.707 166.259 151.781C163.848 149.928 160.381 147.224 156.115 143.866C147.578 137.146 135.846 127.794 122.907 117.445L122.918 117.446Z" fill="#F5F5F5"/>
<path id="Vector_8" d="M120.248 120.146C109.144 107.93 99.0949 96.876 91.8106 88.8639C88.1555 84.8853 85.197 81.6629 83.145 79.4251C82.1184 78.3248 81.3201 77.4666 80.7679 76.8751C80.499 76.5922 80.292 76.3741 80.1425 76.2182C79.9993 76.0718 79.9242 75.9995 79.9182 76.0048C79.9113 76.0066 79.9788 76.0921 80.1126 76.2448C80.2561 76.406 80.4537 76.6304 80.7107 76.9239C81.2535 77.5216 82.0363 78.3914 83.0449 79.5076C85.097 81.7454 88.052 84.9688 91.7046 88.9517C99.064 96.8991 109.219 107.861 120.439 119.973C131.663 132.072 141.809 143.043 149.105 151.03C152.752 155.022 155.691 158.268 157.705 160.527C158.709 161.656 159.485 162.539 160.003 163.143C160.522 163.747 160.781 164.077 160.757 164.098C160.733 164.12 160.43 163.831 159.868 163.261C159.308 162.694 158.497 161.843 157.455 160.743C155.376 158.542 152.393 155.337 148.726 151.358C141.395 143.403 131.332 132.357 120.243 120.14L120.248 120.146Z" fill="#F5F5F5"/>
<path id="Vector_9" d="M117.183 122.409C108.213 108.613 100.098 96.1316 94.2167 87.0824C91.2585 82.5829 88.8652 78.9416 87.2009 76.4105C86.3678 75.1618 85.7177 74.1933 85.2708 73.5253C85.0507 73.2034 84.8804 72.9568 84.7593 72.7822C84.6434 72.6136 84.5803 72.5306 84.5743 72.5359C84.5674 72.5378 84.622 72.6304 84.7275 72.8019C84.8427 72.9818 85.001 73.239 85.2083 73.5681C85.6466 74.2457 86.2779 75.2268 87.0912 76.4845C88.752 79.0165 91.1419 82.6587 94.0966 87.1592C100.064 96.1556 108.299 108.561 117.399 122.276C126.505 135.975 134.732 148.39 140.63 157.416C143.58 161.929 145.95 165.592 147.569 168.135C148.379 169.408 148.998 170.4 149.411 171.077C149.823 171.754 150.026 172.122 150 172.136C149.975 172.154 149.718 171.82 149.259 171.174C148.798 170.524 148.134 169.559 147.287 168.311C145.594 165.813 143.174 162.183 140.205 157.683C134.262 148.683 126.137 136.204 117.183 122.409Z" fill="#F5F5F5"/>
<path id="Vector_10" d="M113.799 124.179C107.191 109.148 101.208 95.5474 96.8723 85.6892C94.686 80.7817 92.915 76.8098 91.6823 74.0512C91.0632 72.6894 90.5806 71.6275 90.2462 70.8959C90.0811 70.5444 89.953 70.2754 89.8636 70.0811C89.7735 69.8981 89.7267 69.807 89.7198 69.8089C89.7129 69.8108 89.7468 69.909 89.8274 70.0982C89.9099 70.2944 90.0251 70.5705 90.1774 70.9293C90.4979 71.6646 90.9642 72.7345 91.5601 74.1064C92.7893 76.8658 94.5569 80.8387 96.7407 85.7506C101.17 95.5689 107.279 109.117 114.029 124.084C120.789 139.041 126.888 152.596 131.245 162.434C133.422 167.351 135.165 171.342 136.349 174.11C136.94 175.494 137.394 176.571 137.688 177.306C137.986 178.04 138.125 178.432 138.099 178.446C138.069 178.458 137.874 178.092 137.526 177.379C137.178 176.666 136.679 175.609 136.047 174.243C134.781 171.512 132.982 167.547 130.784 162.636C126.384 152.817 120.392 139.219 113.794 124.188L113.799 124.179Z" fill="#F5F5F5"/>
<path id="Vector_11" d="M110.179 125.414C106.056 109.532 102.322 95.1581 99.6179 84.7416C98.2448 79.5519 97.1308 75.351 96.3551 72.4323C95.9628 70.9908 95.6561 69.8667 95.4433 69.0912C95.335 68.7169 95.2544 68.4314 95.1951 68.2253C95.1386 68.0296 95.1047 67.9314 95.0978 67.9332C95.0909 67.9351 95.111 68.037 95.1571 68.2356C95.2095 68.4436 95.2798 68.7318 95.3708 69.1108C95.5698 69.89 95.8583 71.0152 96.2308 72.4658C97.003 75.3855 98.1135 79.5873 99.4831 84.7779C102.285 95.1718 106.149 109.507 110.421 125.353C114.701 141.186 118.556 155.53 121.282 165.93C122.647 171.129 123.731 175.342 124.459 178.262C124.823 179.723 125.095 180.856 125.274 181.63C125.448 182.401 125.526 182.813 125.498 182.82C125.467 182.829 125.335 182.435 125.104 181.675C124.874 180.916 124.553 179.795 124.148 178.346C123.338 175.452 122.194 171.251 120.809 166.057C118.035 155.671 114.29 141.297 110.18 125.421L110.179 125.414Z" fill="#F5F5F5"/>
<path id="Vector_12" d="M106.413 126.097C104.88 109.745 103.496 94.9492 102.491 84.2228C101.961 78.8761 101.534 74.5454 101.24 71.5415C101.082 70.0514 100.957 68.8971 100.874 68.0975C100.83 67.7133 100.794 67.4158 100.767 67.2047C100.743 67.004 100.726 66.9011 100.718 66.8996C100.711 66.9014 100.717 67.0036 100.727 67.208C100.744 67.4219 100.769 67.7188 100.799 68.1067C100.871 68.9091 100.976 70.0689 101.111 71.5577C101.406 74.5652 101.828 78.8933 102.355 84.2409C103.461 94.955 104.985 109.736 106.669 126.072C108.366 142.398 109.879 157.181 110.907 167.894C111.421 173.249 111.82 177.587 112.068 180.585C112.194 182.083 112.283 183.251 112.333 184.041C112.383 184.831 112.392 185.25 112.364 185.254C112.332 185.259 112.262 184.849 112.157 184.063C112.053 183.276 111.911 182.119 111.741 180.621C111.402 177.633 110.946 173.303 110.407 167.948C109.329 157.241 107.93 142.445 106.414 126.1L106.413 126.097Z" fill="#F5F5F5"/>
<path id="Vector_13" d="M102.592 126.19C103.727 109.771 104.753 94.9101 105.495 84.1383C105.839 78.7632 106.115 74.4134 106.309 71.3926C106.395 69.8962 106.458 68.7315 106.505 67.9269C106.522 67.5373 106.534 67.2379 106.543 67.0245C106.551 66.8223 106.549 66.7157 106.542 66.7176C106.535 66.7194 106.521 66.8194 106.502 67.0244C106.483 67.2406 106.459 67.5359 106.427 67.9257C106.369 68.7297 106.283 69.8931 106.175 71.3916C105.978 74.4134 105.699 78.7641 105.35 84.1366C104.708 94.9109 103.822 109.779 102.845 126.207C101.88 142.628 100.982 157.495 100.267 168.256C99.9087 173.635 99.6005 177.99 99.359 180.998C99.2388 182.503 99.1384 183.671 99.059 184.462C98.9797 185.253 98.9247 185.668 98.8908 185.666C98.8604 185.663 98.8554 185.246 98.8793 184.455C98.9022 183.66 98.9505 182.492 99.0256 180.984C99.1732 177.972 99.4258 173.617 99.7605 168.234C100.427 157.471 101.442 142.61 102.59 126.198L102.592 126.19Z" fill="#F5F5F5"/>
<path id="Vector_14" d="M98.8142 125.702C102.582 109.621 105.989 95.0698 108.463 84.5232C109.67 79.2562 110.647 74.9913 111.324 72.0326C111.651 70.5638 111.902 69.419 112.075 68.632C112.154 68.2517 112.215 67.9575 112.258 67.746C112.297 67.5467 112.314 67.4424 112.309 67.4399C112.302 67.4417 112.273 67.5385 112.223 67.7371C112.172 67.947 112.098 68.2371 112.004 68.6177C111.816 69.405 111.545 70.5441 111.199 72.0072C110.518 74.9668 109.538 79.2326 108.329 84.4962C105.957 95.0634 102.684 109.642 99.065 125.753C95.463 141.86 92.1752 156.439 89.7333 166.98C88.5123 172.251 87.5048 176.513 86.7857 179.454C86.4262 180.924 86.137 182.064 85.9331 182.833C85.7292 183.603 85.6046 184.007 85.5767 183.999C85.5454 183.993 85.6117 183.579 85.7607 182.799C85.9131 182.017 86.1509 180.865 86.4677 179.387C87.1006 176.43 88.0533 172.157 89.2507 166.881C91.6456 156.33 95.0432 141.773 98.822 125.704L98.8142 125.702Z" fill="#F5F5F5"/>
<path id="Vector_15" d="M95.1746 124.641C101.464 109.294 107.158 95.4064 111.285 85.3433C113.319 80.3123 114.963 76.2414 116.109 73.4118C116.664 72.0073 117.095 70.9138 117.396 70.1591C117.534 69.7924 117.644 69.5112 117.719 69.3095C117.789 69.1166 117.822 69.0188 117.818 69.0163C117.813 69.0138 117.765 69.1084 117.682 69.2972C117.599 69.4973 117.477 69.7744 117.326 70.1335C117.017 70.8832 116.565 71.971 115.989 73.3664C114.843 76.1925 113.195 80.2643 111.157 85.2962C107.125 95.3966 101.56 109.334 95.414 124.731C89.2825 140.128 83.7051 154.062 79.6075 164.125C77.5586 169.156 75.8837 173.224 74.7005 176.023C74.1105 177.422 73.6443 178.51 73.3191 179.242C72.9939 179.974 72.8073 180.353 72.7785 180.343C72.7496 180.332 72.8786 179.931 73.154 179.179C73.4293 178.427 73.8476 177.326 74.3955 175.909C75.4958 173.077 77.114 168.991 79.1418 163.95C83.194 153.87 88.8745 139.976 95.1746 124.641Z" fill="#F5F5F5"/>
<path id="Vector_16" d="M91.7551 123.034C100.403 108.795 108.23 95.9058 113.904 86.5657C116.709 81.8932 118.984 78.1115 120.562 75.4837C121.332 74.1766 121.936 73.1588 122.351 72.4583C122.548 72.1165 122.699 71.8536 122.808 71.6652C122.908 71.4865 122.956 71.3919 122.952 71.3894C122.947 71.3869 122.886 71.4739 122.773 71.6485C122.656 71.8319 122.496 72.0897 122.286 72.424C121.859 73.1203 121.244 74.1262 120.453 75.4241C118.874 78.0485 116.6 81.8302 113.787 86.5011C108.2 95.8916 100.494 108.844 91.9777 123.159C83.4759 137.474 75.7581 150.422 70.114 159.765C67.2942 164.438 64.9908 168.209 63.3821 170.805C62.576 172.103 61.946 173.106 61.5061 173.783C61.0697 174.46 60.8261 174.807 60.7998 174.792C60.7735 174.776 60.9645 174.399 61.3536 173.698C61.7427 172.997 62.3324 171.969 63.099 170.648C64.6332 168.01 66.8839 164.208 69.6862 159.525C75.2864 150.157 83.1041 137.263 91.7594 123.037L91.7551 123.034Z" fill="#F5F5F5"/>
<path id="Vector_17" d="M88.6417 120.927C99.4369 108.137 109.208 96.564 116.288 88.1775C119.798 83.9774 122.642 80.5753 124.618 78.2141C125.587 77.0386 126.34 76.1212 126.862 75.4881C127.109 75.1809 127.301 74.9441 127.436 74.7743C127.563 74.6106 127.629 74.5262 127.621 74.5246C127.617 74.5221 127.544 74.5971 127.405 74.7532C127.26 74.918 127.063 75.1488 126.802 75.445C126.27 76.0696 125.502 76.9726 124.516 78.138C122.54 80.4992 119.695 83.8979 116.18 88.0954C109.177 96.5463 99.5136 108.202 88.8363 121.086C78.1738 133.969 68.5017 145.62 61.4469 154.018C57.9207 158.215 55.0507 161.602 53.05 163.925C52.048 165.087 51.2676 165.986 50.7258 166.588C50.1873 167.188 49.8927 167.497 49.8689 167.477C49.8451 167.458 50.0941 167.117 50.5893 166.48C51.0846 165.843 51.8314 164.916 52.7965 163.727C54.7302 161.347 57.5536 157.925 61.0613 153.714C68.0757 145.29 77.8402 133.707 88.6391 120.931L88.6417 120.927Z" fill="#F5F5F5"/>
<path id="Vector_18" d="M85.9093 118.365C98.598 107.349 110.084 97.3823 118.407 90.1562C122.54 86.5325 125.887 83.5978 128.213 81.5605C129.358 80.5413 130.248 79.7496 130.861 79.2033C131.155 78.9351 131.382 78.7297 131.542 78.5828C131.693 78.4422 131.769 78.3662 131.765 78.3637C131.763 78.3568 131.677 78.4242 131.516 78.5564C131.351 78.6974 131.115 78.8942 130.809 79.1505C130.187 79.6883 129.285 80.4646 128.125 81.4659C125.799 83.5032 122.45 86.4344 118.313 90.0557C110.057 97.3525 98.6662 107.423 86.0775 118.549C73.5045 129.679 62.1036 139.741 53.806 146.979C49.6576 150.599 46.2852 153.511 43.9411 155.509C42.7685 156.506 41.8531 157.275 41.2255 157.792C40.597 158.305 40.2554 158.564 40.2385 158.543C40.2173 158.519 40.5182 158.219 41.1095 157.664C41.7008 157.108 42.5844 156.304 43.726 155.274C46.0126 153.214 49.3434 150.258 53.4758 146.62C61.7415 139.346 73.2168 129.368 85.9102 118.369L85.9093 118.365Z" fill="#F5F5F5"/>
<path id="Vector_19" d="M83.6318 115.414C97.9128 106.456 110.835 98.353 120.199 92.4748C124.857 89.5202 128.629 87.13 131.246 85.4696C132.537 84.6366 133.541 83.992 134.235 83.5421C134.569 83.3226 134.823 83.154 135.005 83.031C135.178 82.9142 135.264 82.8502 135.26 82.8477C135.258 82.8408 135.161 82.8929 134.982 83.0002C134.794 83.1138 134.533 83.273 134.192 83.4796C133.491 83.9166 132.476 84.5493 131.172 85.36C128.551 87.0178 124.779 89.4081 120.119 92.3558C110.805 98.3128 97.9593 106.532 83.7604 115.616C69.5781 124.707 56.7223 132.918 47.3797 138.809C42.7089 141.756 38.9188 144.121 36.2831 145.739C34.9666 146.545 33.9408 147.166 33.2376 147.581C32.5369 147.992 32.1588 148.198 32.141 148.173C32.1232 148.148 32.4701 147.896 33.1396 147.438C33.8124 146.979 34.8123 146.317 36.1039 145.472C38.6905 143.783 42.4485 141.367 47.1068 138.401C56.4234 132.469 69.3417 124.352 83.6205 115.413L83.6318 115.414Z" fill="#F5F5F5"/>
<path id="Vector_20" d="M81.8642 112.141C97.3789 105.464 111.42 99.424 121.596 95.0446C126.662 92.835 130.764 91.0481 133.612 89.8065C135.018 89.1796 136.114 88.6954 136.868 88.3588C137.231 88.1943 137.511 88.0634 137.709 87.973C137.896 87.8854 137.994 87.8368 137.989 87.8308C137.987 87.8239 137.886 87.8587 137.693 87.9403C137.489 88.0247 137.206 88.1419 136.836 88.2935C136.074 88.6172 134.975 89.0876 133.559 89.6914C130.71 90.9295 126.608 92.7163 121.541 94.9225C111.404 99.3913 97.4187 105.556 81.9664 112.369C66.5272 119.189 52.5355 125.344 42.3798 129.744C37.3032 131.942 33.1845 133.707 30.3312 134.902C28.9033 135.502 27.7921 135.957 27.0322 136.258C26.2757 136.558 25.8696 136.701 25.8587 136.674C25.8478 136.647 26.2278 136.449 26.9634 136.099C27.699 135.749 28.7902 135.247 30.2001 134.608C33.0207 133.333 37.115 131.519 42.1816 129.298C52.3184 124.855 66.3561 118.802 81.8677 112.14L81.8642 112.141Z" fill="#F5F5F5"/>
<path id="Vector_21" d="M80.6472 108.631C97.0004 104.363 111.8 100.503 122.525 97.7076C127.87 96.2853 132.196 95.1376 135.201 94.3388C136.684 93.9314 137.84 93.616 138.642 93.4C139.027 93.2888 139.323 93.2053 139.533 93.145C139.732 93.0876 139.834 93.0527 139.832 93.0458C139.83 93.0389 139.725 93.06 139.523 93.1105C139.308 93.1648 139.009 93.238 138.623 93.331C137.822 93.5357 136.662 93.8373 135.169 94.2214C132.164 95.0168 127.838 96.1645 122.492 97.5834C111.789 100.476 97.0239 104.464 80.7089 108.873C64.4035 113.291 49.6357 117.268 38.9246 120.089C33.5691 121.5 29.2322 122.62 26.2269 123.375C24.7238 123.751 23.5557 124.036 22.7607 124.221C21.9717 124.4 21.5488 124.481 21.5414 124.453C21.5339 124.426 21.941 124.286 22.723 124.053C23.504 123.817 24.66 123.487 26.152 123.07C29.135 122.232 33.4569 121.056 38.8068 119.625C49.5024 116.76 64.3016 112.885 80.6481 108.634L80.6472 108.631Z" fill="#F5F5F5"/>
<path id="Vector_22" d="M80.0045 104.969C96.8009 103.225 112.003 101.643 123.018 100.499C128.512 99.9027 132.961 99.4177 136.049 99.0812C137.579 98.9019 138.769 98.7662 139.588 98.6712C139.986 98.6196 140.29 98.5819 140.509 98.5527C140.715 98.5228 140.822 98.5052 140.82 98.4983C140.818 98.4914 140.712 98.4977 140.505 98.5129C140.284 98.5317 139.98 98.5582 139.583 98.595C138.76 98.6762 137.57 98.7972 136.036 98.9514C132.947 99.2845 128.501 99.765 123.006 100.358C111.999 101.6 96.8103 103.315 80.0289 105.21C63.258 107.118 48.0663 108.822 37.0615 109.99C31.5608 110.573 27.1044 111.031 24.0256 111.32C22.4861 111.465 21.2879 111.569 20.4741 111.63C19.6604 111.69 19.2321 111.709 19.2306 111.676C19.2266 111.648 19.6504 111.57 20.4571 111.457C21.2638 111.343 22.456 111.188 23.9946 110.999C27.0684 110.622 31.5177 110.111 37.0154 109.503C48.0141 108.285 63.2173 106.692 80.0061 104.961L80.0045 104.969Z" fill="#F5F5F5"/>
<path id="Vector_23" d="M79.9571 101.247C96.7866 102.1 112.019 102.869 123.056 103.428C128.563 103.68 133.023 103.884 136.122 104.026C137.658 104.086 138.852 104.13 139.676 104.164C140.075 104.174 140.381 104.181 140.601 104.188C140.809 104.191 140.916 104.188 140.919 104.184C140.917 104.177 140.813 104.164 140.606 104.15C140.387 104.135 140.081 104.114 139.682 104.091C138.859 104.047 137.667 103.983 136.133 103.901C133.038 103.758 128.576 103.55 123.068 103.296C112.022 102.838 96.7815 102.205 79.9443 101.502C63.1118 100.817 47.8715 100.169 36.8419 99.6369C31.3276 99.3725 26.8656 99.1355 23.7851 98.9517C22.2449 98.8598 21.0485 98.7788 20.2376 98.7124C19.4268 98.6459 19.0024 98.5975 19.0054 98.5671C19.0083 98.5367 19.435 98.5253 20.2492 98.5353C21.0633 98.5453 22.2605 98.5742 23.8078 98.6235C26.8954 98.724 31.3624 98.8968 36.879 99.142C47.9102 99.6255 63.1474 100.386 79.9649 101.249L79.9571 101.247Z" fill="#F5F5F5"/>
<path id="Vector_24" d="M80.5154 97.5573C96.9602 100.983 111.841 104.078 122.626 106.327C128.012 107.422 132.375 108.308 135.402 108.924C136.904 109.219 138.073 109.448 138.879 109.604C139.269 109.677 139.569 109.733 139.787 109.77C139.992 109.804 140.097 109.82 140.099 109.816C140.102 109.811 139.997 109.78 139.796 109.735C139.583 109.688 139.284 109.621 138.897 109.533C138.091 109.361 136.928 109.116 135.431 108.798C132.404 108.181 128.044 107.291 122.657 106.193C111.847 104.043 96.9376 101.078 80.4581 97.7985C63.9868 94.5358 49.0739 91.5563 38.2941 89.3392C32.9042 88.2307 28.5444 87.3146 25.5405 86.6586C24.0367 86.331 22.8726 86.0674 22.0848 85.88C21.2969 85.6926 20.8844 85.578 20.8917 85.5501C20.899 85.5223 21.3217 85.5786 22.1207 85.7111C22.9207 85.8471 24.0969 86.0594 25.612 86.3468C28.6379 86.9192 33.0089 87.7805 38.4036 88.8655C49.1938 91.039 64.08 94.1257 80.5119 97.5582L80.5154 97.5573Z" fill="#F5F5F5"/>
<path id="Vector_25" d="M81.6576 93.9885C97.3124 99.8849 111.478 105.22 121.747 109.089C126.881 110.992 131.035 112.534 133.922 113.606C135.355 114.127 136.471 114.529 137.24 114.81C137.612 114.94 137.903 115.043 138.107 115.113C138.303 115.179 138.404 115.211 138.407 115.207C138.409 115.202 138.312 115.158 138.121 115.08C137.918 115.002 137.635 114.889 137.267 114.744C136.503 114.454 135.392 114.031 133.968 113.49C131.085 112.416 126.93 110.871 121.799 108.964C111.492 105.187 97.2751 99.9801 81.5656 94.2243C65.8564 88.4834 51.6431 83.2608 41.3746 79.4216C36.2408 77.5037 32.093 75.9308 29.2379 74.8238C27.8099 74.2685 26.7025 73.8304 25.9567 73.5243C25.211 73.2183 24.8225 73.0417 24.8342 73.0163C24.8449 72.9875 25.2549 73.1065 26.0206 73.3628C26.7863 73.619 27.9146 74.0108 29.3574 74.525C32.2467 75.5525 36.4169 77.0713 41.5599 78.9682C51.8458 82.762 66.0202 88.0876 81.662 93.9911L81.6576 93.9885Z" fill="#F5F5F5"/>
<path id="Vector_26" d="M83.3532 90.6294C97.8385 98.8399 110.951 106.273 120.454 111.658C125.207 114.323 129.057 116.48 131.728 117.977C133.06 118.71 134.091 119.279 134.808 119.671C135.155 119.859 135.423 120.001 135.613 120.102C135.795 120.197 135.892 120.241 135.894 120.237C135.897 120.233 135.811 120.174 135.634 120.067C135.445 119.958 135.185 119.803 134.846 119.605C134.137 119.201 133.112 118.614 131.794 117.863C129.122 116.362 125.276 114.205 120.521 111.537C110.966 106.235 97.7861 98.9206 83.2208 90.8391C68.6557 82.7723 55.4804 75.4487 45.9732 70.0902C41.2196 67.411 37.3844 65.2245 34.7455 63.6964C33.4239 62.9311 32.4055 62.3283 31.7194 61.9136C31.0324 61.4955 30.6811 61.2644 30.6962 61.2381C30.7114 61.2118 31.0939 61.3937 31.8087 61.7637C32.5235 62.1336 33.5706 62.6916 34.9115 63.4184C37.5976 64.8746 41.4631 67.0085 46.2259 69.6668C55.7549 74.9824 68.8756 82.4058 83.3479 90.6234L83.3532 90.6294Z" fill="#F5F5F5"/>
<path id="Vector_27" d="M85.5607 87.5615C98.5266 97.888 110.262 107.236 118.768 114.008C123.027 117.368 126.475 120.085 128.871 121.975C130.065 122.9 130.994 123.624 131.635 124.121C131.948 124.358 132.19 124.541 132.361 124.669C132.527 124.791 132.614 124.852 132.617 124.848C132.623 124.843 132.541 124.772 132.387 124.64C132.22 124.503 131.987 124.311 131.683 124.063C131.05 123.557 130.132 122.819 128.955 121.874C126.559 119.985 123.114 117.264 118.858 113.902C110.287 107.207 98.4655 97.9637 85.402 87.7561C72.3343 77.5607 60.5178 68.3087 52.0068 61.5601C47.7483 58.1884 44.3176 55.4412 41.9599 53.5264C40.7823 52.5668 39.8733 51.8199 39.26 51.3041C38.6501 50.7874 38.3404 50.5044 38.3599 50.4807C38.3794 50.4569 38.7291 50.6958 39.3755 51.1693C40.0219 51.6428 40.9625 52.3554 42.1706 53.2771C44.5844 55.125 48.0541 57.8247 52.327 61.1813C60.8721 67.8912 72.6156 77.2294 85.5677 87.5597L85.5607 87.5615Z" fill="#F5F5F5"/>
<path id="Vector_28" d="M88.2239 84.8638C99.3458 97.0644 109.407 108.107 116.703 116.109C120.361 120.083 123.326 123.3 125.384 125.536C126.411 126.636 127.212 127.49 127.764 128.082C128.033 128.364 128.243 128.582 128.393 128.738C128.536 128.884 128.611 128.956 128.617 128.951C128.624 128.949 128.557 128.864 128.423 128.711C128.279 128.55 128.082 128.325 127.821 128.033C127.279 127.435 126.492 126.566 125.484 125.45C123.428 123.213 120.467 119.995 116.812 116.017C109.441 108.08 99.275 97.1316 88.0351 85.0295C76.7964 72.9455 66.6349 61.9852 59.327 54.009C55.6726 50.0192 52.732 46.7808 50.7152 44.5224C49.7073 43.3949 48.932 42.512 48.4134 41.9077C47.8948 41.3035 47.6354 40.9737 47.6568 40.9568C47.6807 40.9355 47.9845 41.2238 48.5449 41.7908C49.1053 42.3579 49.92 43.208 50.9603 44.3046C53.042 46.5011 56.0287 49.7048 59.7011 53.6787C67.0449 61.6229 77.1192 72.6586 88.2239 84.8638Z" fill="#F5F5F5"/>
<path id="Vector_29" d="M91.2839 82.595C100.272 96.3777 108.403 108.851 114.298 117.893C117.262 122.388 119.662 126.027 121.326 128.555C122.161 129.799 122.812 130.771 123.259 131.439C123.479 131.761 123.65 132.007 123.771 132.182C123.89 132.35 123.95 132.434 123.956 132.428C123.963 132.426 123.908 132.334 123.802 132.162C123.687 131.982 123.53 131.729 123.323 131.4C122.884 130.722 122.251 129.745 121.436 128.484C119.773 125.957 117.376 122.316 114.415 117.818C108.435 108.832 100.183 96.4314 91.0651 82.7317C81.9399 69.0453 73.7004 56.6377 67.7898 47.6186C64.8333 43.1112 62.4604 39.4496 60.8376 36.9072C60.0284 35.6373 59.4047 34.6432 58.9924 33.9659C58.5801 33.2886 58.3738 32.9222 58.4031 32.9069C58.4279 32.8891 58.6848 33.2233 59.1442 33.8694C59.6046 34.5189 60.2711 35.4794 61.119 36.7277C62.8138 39.221 65.2407 42.8496 68.2161 47.3445C74.167 56.3342 82.3122 68.8043 91.2821 82.5881L91.2839 82.595Z" fill="#F5F5F5"/>
<path id="Vector_30" d="M94.6699 80.8193C101.298 95.8414 107.298 109.438 111.647 119.289C113.84 124.194 115.618 128.164 116.851 130.923C117.473 132.284 117.955 133.342 118.289 134.074C118.455 134.425 118.583 134.694 118.672 134.889C118.762 135.072 118.809 135.163 118.816 135.161C118.823 135.159 118.789 135.061 118.708 134.872C118.626 134.675 118.507 134.4 118.358 134.041C118.038 133.305 117.568 132.236 116.969 130.865C115.736 128.107 113.965 124.135 111.775 119.228C107.332 109.414 101.208 95.8769 94.4365 80.9156C87.6575 65.9673 81.5416 52.4209 77.1723 42.5902C74.9876 37.6749 73.2379 33.6861 72.052 30.9224C71.4568 29.5392 71.0034 28.4621 70.7089 27.7272C70.411 26.9931 70.2685 26.6021 70.2978 26.5869C70.3279 26.575 70.5229 26.9408 70.8707 27.6539C71.2186 28.3671 71.7185 29.4243 72.3523 30.7859C73.6219 33.516 75.424 37.4795 77.6319 42.3849C82.0444 52.1966 88.0543 65.79 94.6706 80.808L94.6699 80.8193Z" fill="#F5F5F5"/>
<path id="Vector_31" d="M98.2856 79.5783C102.429 95.4556 106.18 109.824 108.898 120.237C110.278 125.425 111.399 129.624 112.175 132.543C112.57 133.983 112.877 135.107 113.09 135.883C113.198 136.257 113.279 136.543 113.338 136.749C113.395 136.945 113.428 137.043 113.435 137.041C113.442 137.039 113.422 136.937 113.376 136.739C113.324 136.531 113.253 136.242 113.162 135.863C112.96 135.085 112.671 133.96 112.299 132.509C111.523 129.591 110.406 125.391 109.029 120.202C106.214 109.812 102.332 95.4816 98.0394 79.641C93.7393 63.8135 89.8671 49.4772 87.1267 39.0778C85.7552 33.8803 84.668 29.6685 83.9365 26.749C83.5725 25.2887 83.2968 24.1563 83.118 23.3828C82.9409 22.6161 82.8641 22.2075 82.8952 22.1991C82.9228 22.1916 83.0584 22.5845 83.2891 23.344C83.5198 24.1036 83.8438 25.223 84.2527 26.6711C85.0661 29.5649 86.2165 33.7634 87.6087 38.9553C90.3966 49.3382 94.1591 63.7077 98.29 79.5809L98.2856 79.5783Z" fill="#F5F5F5"/>
<path id="Vector_32" d="M102.055 78.8954C103.609 95.2447 105.011 110.04 106.031 120.762C106.564 126.108 107.001 130.436 107.3 133.442C107.461 134.932 107.587 136.086 107.673 136.888C107.717 137.272 107.753 137.57 107.781 137.784C107.806 137.985 107.826 138.087 107.83 138.089C107.837 138.087 107.832 137.985 107.818 137.782C107.801 137.568 107.776 137.271 107.746 136.883C107.671 136.082 107.565 134.922 107.431 133.433C107.132 130.427 106.702 126.097 106.172 120.75C105.051 110.036 103.509 95.2569 101.804 78.9261C100.086 62.6024 98.5539 47.8203 97.5121 37.111C96.9908 31.7547 96.586 27.4218 96.333 24.4214C96.2069 22.9229 96.1146 21.7559 96.0647 20.9661C96.0149 20.1763 96.0021 19.7578 96.0341 19.7528C96.0661 19.7479 96.136 20.1584 96.244 20.9437C96.3519 21.729 96.491 22.8908 96.6638 24.3841C97.0069 27.375 97.4697 31.7033 98.0127 37.0575C99.1047 47.7606 100.522 62.5587 102.064 78.9004L102.055 78.8954Z" fill="#F5F5F5"/>
<path id="Vector_33" d="M105.874 78.7947C104.761 95.2152 103.754 110.075 103.026 120.846C102.689 126.22 102.417 130.572 102.228 133.595C102.146 135.091 102.083 136.259 102.036 137.064C102.019 137.453 102.007 137.752 101.998 137.966C101.99 138.168 101.992 138.275 101.999 138.273C102.006 138.271 102.02 138.171 102.039 137.966C102.055 137.751 102.083 137.455 102.114 137.065C102.172 136.261 102.254 135.095 102.362 133.6C102.556 130.579 102.828 126.227 103.169 120.852C103.794 110.075 104.663 95.2084 105.618 78.7821C106.561 62.3631 107.44 47.4937 108.144 36.7321C108.494 31.3517 108.799 26.9979 109.033 23.9885C109.149 22.4838 109.25 21.3166 109.326 20.5262C109.405 19.7349 109.46 19.3203 109.491 19.3232C109.521 19.3261 109.526 19.743 109.503 20.5377C109.48 21.3323 109.432 22.5002 109.36 24.0075C109.216 27.0188 108.971 31.375 108.643 36.7566C107.991 47.519 106.996 62.3827 105.87 78.7957L105.874 78.7947Z" fill="#F5F5F5"/>
<path id="Vector_34" d="M109.65 79.2798C105.906 95.3659 102.515 109.92 100.057 120.47C98.8575 125.739 97.8882 130.005 97.212 132.967C96.8898 134.439 96.638 135.58 96.4658 136.37C96.3868 136.751 96.3262 137.048 96.2822 137.256C96.2433 137.456 96.227 137.56 96.2314 137.563C96.2358 137.565 96.2678 137.464 96.318 137.265C96.3688 137.055 96.4426 136.765 96.5363 136.385C96.7208 135.598 96.9917 134.459 97.3375 132.993C98.0136 130.031 98.9873 125.767 100.191 120.501C102.551 109.929 105.804 95.3453 109.401 79.2324C112.983 63.1232 116.248 48.5399 118.677 37.9942C119.891 32.7218 120.894 28.4573 121.609 25.5178C121.969 24.0476 122.254 22.9048 122.458 22.1354C122.661 21.366 122.783 20.9632 122.814 20.9695C122.845 20.9759 122.779 21.3898 122.63 22.1703C122.481 22.9508 122.243 24.1032 121.927 25.5839C121.299 28.5443 120.354 32.819 119.16 38.0936C116.777 48.6488 113.399 63.2074 109.644 79.2816L109.65 79.2798Z" fill="#F5F5F5"/>
<path id="Vector_35" d="M113.292 80.3376C107.023 95.6903 101.346 109.584 97.2321 119.655C95.2058 124.687 93.5657 128.761 92.4247 131.593C91.8696 132.997 91.4382 134.091 91.1421 134.848C91.0038 135.215 90.8943 135.496 90.819 135.698C90.7488 135.891 90.7158 135.988 90.7202 135.991C90.7246 135.993 90.7732 135.899 90.8557 135.71C90.9389 135.51 91.0605 135.233 91.212 134.874C91.5212 134.124 91.9692 133.037 92.5444 131.638C93.6864 128.81 95.3299 124.735 97.3606 119.705C101.38 109.601 106.925 95.6575 113.054 80.2501C119.165 64.8474 124.726 50.9073 128.811 40.8372C130.852 35.8043 132.522 31.7338 133.701 28.9322C134.29 27.5297 134.754 26.446 135.079 25.7142C135.404 24.9825 135.587 24.6037 135.616 24.6144C135.645 24.6251 135.516 25.0264 135.244 25.7771C134.972 26.5277 134.555 27.6323 134.007 29.0497C132.911 31.8844 131.297 35.9729 129.277 41.0149C125.238 51.1024 119.573 65.0003 113.294 80.3445L113.292 80.3376Z" fill="#F5F5F5"/>
<path id="Vector_36" d="M116.714 81.9393C108.084 96.1888 100.275 109.088 94.6135 118.435C91.8128 123.11 89.547 126.897 87.9693 129.525C87.1989 130.832 86.5986 131.849 86.1844 132.553C85.9876 132.895 85.8361 133.158 85.731 133.345C85.631 133.524 85.5824 133.618 85.5868 133.621C85.5912 133.623 85.6529 133.536 85.7617 133.363C85.879 133.179 86.0392 132.922 86.2458 132.588C86.6697 131.893 87.2866 130.882 88.0745 129.586C89.6523 126.958 91.9189 123.174 94.7231 118.498C100.297 109.1 107.988 96.1368 116.484 81.8126C124.965 67.4887 132.668 54.5293 138.303 45.1778C141.118 40.5025 143.414 36.7299 145.022 34.131C145.824 32.8338 146.457 31.8267 146.894 31.1535C147.33 30.477 147.574 30.1299 147.6 30.1451C147.627 30.1602 147.436 30.5374 147.047 31.2383C146.658 31.9391 146.069 32.9714 145.305 34.2879C143.775 36.9287 141.528 40.729 138.734 45.4168C133.143 54.7901 125.343 67.6976 116.706 81.9342L116.714 81.9393Z" fill="#F5F5F5"/>
<path id="Vector_37" d="M119.831 84.0426C109.05 96.8434 99.2974 108.43 92.227 116.825C88.7218 121.031 85.8825 124.436 83.9112 126.8C82.9433 127.979 82.1902 128.896 81.6714 129.528C81.4244 129.835 81.2335 130.076 81.0978 130.245C80.9714 130.409 80.9087 130.493 80.914 130.499C80.9184 130.501 80.9908 130.426 81.1303 130.27C81.2749 130.105 81.472 129.874 81.7321 129.575C82.2606 128.951 83.0278 128.045 84.0141 126.879C85.9855 124.516 88.8292 121.113 92.3352 116.911C99.3291 108.451 108.974 96.7823 119.637 83.8875C130.281 70.9905 139.943 59.3281 146.984 50.9224C150.505 46.7195 153.371 43.33 155.371 41.003C156.368 39.8383 157.153 38.9419 157.69 38.338C158.228 37.7341 158.523 37.4287 158.547 37.4482C158.571 37.4677 158.323 37.8121 157.827 38.4456C157.332 39.0825 156.589 40.0119 155.624 41.2012C153.695 43.5832 150.876 47.0083 147.37 51.2256C140.365 59.6584 130.619 71.2547 119.834 84.0417L119.831 84.0426Z" fill="#F5F5F5"/>
<path id="Vector_38" d="M122.566 86.5994C109.892 97.6301 98.421 107.611 90.1042 114.847C85.9768 118.476 82.6335 121.414 80.3118 123.453C79.1709 124.472 78.2802 125.263 77.6688 125.813C77.3743 126.081 77.148 126.287 76.9876 126.434C76.8365 126.574 76.7607 126.65 76.766 126.656C76.7678 126.663 76.8534 126.596 77.0141 126.463C77.1834 126.322 77.4159 126.126 77.7166 125.867C78.3386 125.329 79.24 124.549 80.4003 123.548C82.722 121.508 86.0697 118.574 90.2014 114.946C98.4501 107.637 109.827 97.5551 122.401 86.4143C134.958 75.2669 146.348 65.1929 154.636 57.9467C158.78 54.3236 162.147 51.4059 164.49 49.4046C165.662 48.404 166.577 47.6353 167.205 47.1181C167.833 46.6045 168.171 46.3433 168.192 46.3672C168.213 46.3911 167.912 46.6906 167.321 47.246C166.73 47.8015 165.85 48.6086 164.705 49.6391C162.42 51.7026 159.094 54.6645 154.966 58.3056C146.71 65.5876 135.246 75.5815 122.568 86.595L122.566 86.5994Z" fill="#F5F5F5"/>
<path id="Vector_39" d="M124.846 89.5491C110.577 98.5226 97.6673 106.645 88.3056 112.533C83.6523 115.49 79.8853 117.886 77.2661 119.551C75.9752 120.384 74.9716 121.032 74.2812 121.481C73.9476 121.701 73.6929 121.869 73.5112 121.992C73.3389 122.109 73.2524 122.173 73.2568 122.176C73.2587 122.182 73.3558 122.13 73.5343 122.023C73.7223 121.909 73.9832 121.75 74.324 121.544C75.0251 121.107 76.0367 120.475 77.3401 119.661C79.9568 118 83.7282 115.607 88.3858 112.652C97.6923 106.682 110.527 98.4472 124.713 89.3444C138.884 80.2384 151.732 72.0109 161.064 66.1083C165.729 63.1552 169.518 60.7863 172.15 59.1664C173.465 58.3564 174.491 57.7357 175.191 57.3213C175.89 56.9068 176.27 56.7047 176.287 56.7295C176.305 56.7543 175.958 57.007 175.29 57.4685C174.617 57.9276 173.621 58.592 172.33 59.4362C169.748 61.128 165.991 63.5509 161.334 66.5203C152.024 72.4616 139.118 80.5973 124.848 89.556L124.846 89.5491Z" fill="#F5F5F5"/>
<path id="Vector_40" d="M126.621 92.821C111.115 99.5181 97.0821 105.574 86.9132 109.966C81.8491 112.183 77.7527 113.976 74.9055 115.221C73.4998 115.848 72.4048 116.335 71.6507 116.672C71.2884 116.84 71.0078 116.967 70.8099 117.058C70.6223 117.145 70.5252 117.197 70.5295 117.2C70.5314 117.207 70.6332 117.172 70.8261 117.09C71.0293 117.006 71.3127 116.889 71.6822 116.734C72.4425 116.407 73.5421 115.936 74.9578 115.332C77.806 114.091 81.9058 112.297 86.9684 110.088C97.0983 105.607 111.076 99.4252 126.522 92.5922C141.953 85.7526 155.94 79.5797 166.088 75.167C171.163 72.9624 175.277 71.1944 178.133 69.9952C179.561 69.3956 180.671 68.9371 181.428 68.6369C182.184 68.3368 182.589 68.1905 182.6 68.2172C182.611 68.2438 182.231 68.4425 181.496 68.7926C180.76 69.1427 179.67 69.6476 178.26 70.2868C175.44 71.5651 171.351 73.3855 166.285 75.6099C156.156 80.0656 142.126 86.1352 126.623 92.8132L126.621 92.821Z" fill="#F5F5F5"/>
</g>
</g>
<g id="Megaphone">
<g id="Group_2">
<g id="Group_3">
<path id="Vector_41" d="M59.6721 137.883C65.4273 134.415 66.9946 126.468 63.1727 120.133C59.3508 113.798 51.5871 111.474 45.8319 114.941C40.0766 118.409 38.5094 126.356 42.3313 132.691C46.1531 139.026 53.9169 141.351 59.6721 137.883Z" fill="#59B0C4"/>
<path id="Vector_42" d="M65.8955 140.683C70.8668 137.278 70.2796 127.786 64.584 119.482C58.8883 111.177 50.2411 107.206 45.2698 110.611C40.2986 114.016 40.8858 123.508 46.5814 131.813C52.277 140.117 60.9242 144.089 65.8955 140.683Z" fill="#FF5740"/>
<path id="Vector_43" d="M89.6615 127.19C95.4624 123.216 95.1087 112.623 88.8716 103.529C82.6344 94.4354 72.8757 90.2844 67.0748 94.2578C61.2739 98.2311 61.6275 108.824 67.8647 117.918C74.1018 127.012 83.8606 131.163 89.6615 127.19Z" fill="#FF5740"/>
<path id="Vector_44" d="M95.0273 157.343C88.2838 149.577 85.794 134.953 85.794 134.953C85.794 134.953 84.7261 132.435 84.7967 131.254C84.8673 130.073 89.6584 127.201 89.6584 127.201L67.4568 94.0226L44.3712 111.362L61.4685 141.907C61.4685 141.907 66.1954 154.273 68.6577 159.806C71.1199 165.339 74.5741 173.121 76.5755 175.872C78.577 178.623 84.0943 177.525 87.0823 177.104C90.0712 176.687 99.5685 168.415 100.253 166.487C100.937 164.559 101.778 165.106 95.0308 157.342L95.0273 157.343Z" fill="#FF5740"/>
<path id="Vector_45" opacity="0.3" d="M89.6615 127.19C95.4624 123.216 95.1087 112.623 88.8716 103.529C82.6344 94.4354 72.8757 90.2844 67.0748 94.2578C61.2739 98.2311 61.6275 108.824 67.8647 117.918C74.1018 127.012 83.8606 131.163 89.6615 127.19Z" fill="#1C1C1C"/>
<path id="Vector_46" d="M67.4751 96.5492C67.4751 96.5492 78.1811 85.5862 82.7393 76.3249C86.4471 68.7884 91.0286 56.5484 91.0286 56.5484L143.957 118.352C143.957 118.352 124.551 116.369 108.292 120.589C92.7818 124.615 86.9953 126.282 86.9953 126.282L67.4751 96.5492Z" fill="#E0E0E0"/>
<path id="Vector_47" d="M88.7296 125.388C93.2836 122.269 92.4242 113.104 86.8101 104.919C81.196 96.7333 72.9531 92.6263 68.3991 95.7456C63.8451 98.8649 64.7045 108.029 70.3186 116.215C75.9327 124.4 84.1756 128.507 88.7296 125.388Z" fill="#E0E0E0"/>
<g id="Group_4" opacity="0.3">
<path id="Vector_48" d="M72.5619 119.131C82.5696 108.712 93.893 99.4482 108.721 97.3572C102.945 90.1156 98.4042 81.8895 95.3535 73.1432C89.6216 87.9883 80.9919 102.474 67.1151 110.28C67.1151 110.28 68.7258 113.877 69.7892 115.43C70.8535 116.986 72.5619 119.131 72.5619 119.131Z" fill="white"/>
</g>
<g id="Group_5">
<path id="Vector_49" opacity="0.2" d="M78.35 174.62C78.501 174.479 78.653 174.342 78.805 174.205C78.9988 174.03 79.1961 173.855 79.3899 173.68C79.5453 173.542 79.7042 173.403 79.864 173.268C80.0588 173.097 80.2579 172.928 80.4536 172.761C80.6134 172.625 80.7733 172.49 80.934 172.357C81.1366 172.188 81.3427 172.018 81.5462 171.852C81.701 171.725 81.8557 171.598 82.0105 171.471C82.2329 171.293 82.4587 171.113 82.6855 170.938C82.8258 170.826 82.9626 170.715 83.1039 170.606C83.4564 170.334 83.809 170.061 84.1669 169.794C84.2748 169.713 84.3861 169.631 84.494 169.551C84.7594 169.353 85.0249 169.156 85.2947 168.961C85.4497 168.849 85.6022 168.741 85.7573 168.629C85.9774 168.47 86.195 168.315 86.4161 168.159C86.584 168.04 86.7494 167.925 86.9183 167.809C87.1274 167.664 87.3365 167.518 87.5465 167.377C87.7188 167.26 87.8877 167.144 88.06 167.027C88.27 166.885 88.4775 166.748 88.6841 166.607C88.8539 166.495 89.0237 166.382 89.1935 166.27C89.4045 166.132 89.6189 165.992 89.8308 165.858C89.9946 165.75 90.1618 165.642 90.3266 165.539C90.5539 165.392 90.7796 165.254 91.0078 165.111C91.1572 165.019 91.3056 164.923 91.4549 164.831C91.8136 164.609 92.1732 164.39 92.5328 164.17C92.5363 164.17 92.5432 164.168 92.5457 164.163C92.0493 163.49 88.0623 158.913 83.0909 151.824C77.7471 144.207 76.4631 131.76 75.6291 131.374C74.796 130.992 61.4651 141.907 61.4651 141.907C61.4651 141.907 66.1919 154.274 68.6542 159.806C71.1164 165.339 74.5706 173.121 76.572 175.873C76.636 175.959 76.7035 176.044 76.7726 176.122C76.9568 175.939 77.1409 175.756 77.3294 175.576C77.465 175.447 77.6041 175.317 77.7432 175.187C77.9437 174.996 78.1451 174.808 78.35 174.62Z" fill="#F5F5F5"/>
<g id="Group_6" opacity="0.3">
<path id="Vector_50" d="M92.5447 164.16C92.5447 164.16 92.5343 164.162 92.5318 164.167C92.1747 164.381 91.816 164.604 91.4538 164.827C91.3045 164.92 91.1561 165.015 91.0068 165.107C90.7786 165.25 90.5538 165.392 90.3255 165.535C90.1608 165.639 89.997 165.746 89.8297 165.854C89.6188 165.992 89.4034 166.128 89.1924 166.266C89.0227 166.379 88.8529 166.491 88.6831 166.603C88.4756 166.741 88.2655 166.883 88.059 167.023C87.8866 167.14 87.7178 167.256 87.5455 167.373C87.3354 167.515 87.1263 167.66 86.9172 167.805C86.7484 167.921 86.583 168.036 86.415 168.155C86.194 168.311 85.9764 168.466 85.7562 168.625C85.6012 168.737 85.4487 168.845 85.2936 168.957C85.0273 169.151 84.7618 169.348 84.493 169.547C84.3851 169.628 84.2738 169.71 84.1659 169.79C83.8114 170.056 83.4554 170.33 83.1028 170.603C82.9616 170.711 82.8247 170.822 82.6845 170.934C82.4586 171.113 82.2353 171.288 82.0094 171.467C81.8547 171.594 81.6999 171.721 81.5451 171.848C81.3382 172.015 81.1356 172.184 80.933 172.354C80.7722 172.486 80.6124 172.621 80.4526 172.757C80.2534 172.925 80.0577 173.093 79.863 173.264C79.7041 173.403 79.5477 173.538 79.3889 173.677C79.1916 173.852 78.9977 174.026 78.8039 174.201C78.6519 174.338 78.5 174.475 78.3489 174.616C78.1441 174.804 77.9427 174.992 77.7422 175.183C77.6031 175.313 77.4675 175.442 77.3284 175.572C77.1399 175.753 76.9557 175.935 76.7716 176.118C78.92 178.549 84.1859 177.507 87.0778 177.101C90.0666 176.684 99.5639 168.412 100.248 166.484C100.615 165.452 101.024 165.127 100.288 163.856C97.7409 163.917 95.4042 163.977 92.5721 164.137C92.5617 164.14 92.5497 164.151 92.5403 164.157L92.5447 164.16Z" fill="#1C1C1C"/>
</g>
</g>
<path id="Vector_51" d="M80.3055 133.423C80.3055 133.423 79.3082 133.792 79.1072 134.146C78.9027 134.5 82.0598 147.682 83.9335 149.465C84.0439 149.572 83.8653 149.583 84.7327 149.845C85.6 150.107 89.4505 150.646 90.3249 149.67C91.2002 148.698 93.108 145.796 92.6712 144.918C92.2345 144.04 91.0964 143.584 89.408 141.733C87.8922 140.069 85.8448 134.013 85.8448 134.013C85.408 133.946 80.8582 133.177 80.3046 133.419L80.3055 133.423Z" fill="#F5F5F5"/>
<g id="Group_7">
<path id="Vector_52" opacity="0.3" d="M92.6815 144.956C92.6815 144.956 92.675 144.932 92.6712 144.918C92.2345 144.04 91.0964 143.585 89.408 141.734C87.8922 140.069 85.8448 134.014 85.8448 134.014C85.4462 133.951 81.6067 133.302 80.5312 133.381C80.6689 133.699 82.5094 137.53 83.962 140.307C85.2672 142.798 86.9974 144.323 87.4361 144.686C87.4931 144.623 87.5349 144.585 87.5566 144.583C87.796 144.578 91.1808 144.558 92.6771 144.954L92.6815 144.956Z" fill="#1C1C1C"/>
<path id="Vector_53" opacity="0.5" d="M87.5646 144.585C87.542 144.584 87.4976 144.625 87.4441 144.688C86.888 145.319 84.8604 148.793 84.3269 149.715C84.4291 149.75 84.5626 149.792 84.7407 149.847C85.608 150.11 89.4585 150.648 90.3329 149.672C91.0823 148.837 92.5905 146.584 92.7288 145.406C92.7507 145.226 92.7393 145.074 92.6885 144.955C91.1923 144.558 87.8074 144.579 87.568 144.584L87.5646 144.585Z" fill="#1C1C1C"/>
</g>
<path id="Vector_54" d="M99.3677 164.083C99.3677 164.083 99.2813 164.106 99.1143 164.132C98.9482 164.162 98.6997 164.189 98.3833 164.211C97.7456 164.265 96.816 164.252 95.6769 164.219C95.1074 164.21 94.4825 164.2 93.8169 164.246C93.1503 164.289 92.4459 164.398 91.775 164.727C90.4126 165.349 89.1625 166.471 87.7011 167.428C84.8234 169.384 82.3661 171.361 80.6614 172.872C79.809 173.627 79.134 174.257 78.6707 174.696C78.4498 174.908 78.2723 175.074 78.1367 175.203C78.0155 175.317 77.9463 175.377 77.941 175.371C77.9357 175.365 77.9961 175.3 78.1076 175.178C78.2225 175.054 78.3919 174.871 78.6169 174.648C79.0642 174.19 79.7242 173.546 80.5694 172.778C82.2554 171.239 84.7097 169.237 87.5943 167.279C89.0471 166.332 90.3007 165.209 91.7011 164.576C92.0471 164.416 92.4032 164.294 92.7621 164.224C93.12 164.149 93.4684 164.122 93.8029 164.098C94.4773 164.057 95.1041 164.073 95.6763 164.093C96.8192 164.14 97.7396 164.174 98.376 164.143C98.6951 164.131 98.9421 164.112 99.1085 164.097C99.2748 164.082 99.3623 164.077 99.3642 164.084L99.3677 164.083Z" fill="#00657C"/>
<path id="Vector_55" d="M87.6225 144.621C87.6453 144.637 87.4543 144.918 87.1457 145.367C86.8371 145.817 86.4119 146.439 85.9629 147.137C85.5138 147.836 85.1246 148.481 84.8433 148.949C84.5619 149.418 84.3884 149.709 84.3665 149.696C84.3446 149.684 84.4795 149.373 84.7302 148.887C84.9809 148.402 85.3551 147.742 85.8066 147.039C86.2581 146.336 86.7034 145.72 87.0402 145.292C87.3795 144.86 87.6049 144.611 87.6234 144.624L87.6225 144.621Z" fill="#00657C"/>
<path id="Vector_56" d="M86.6211 143.958C86.6211 143.958 86.4902 143.871 86.2784 143.676C86.0701 143.481 85.7827 143.184 85.4605 142.786C84.8101 141.996 84.1039 140.764 83.409 139.382C82.6968 138.005 82.0915 136.735 81.7014 135.797C81.5046 135.328 81.3561 134.942 81.2619 134.675C81.1677 134.408 81.1268 134.256 81.1362 134.25C81.15 134.246 81.2142 134.388 81.3282 134.646C81.4594 134.94 81.6248 135.307 81.8201 135.743C82.243 136.665 82.8627 137.919 83.574 139.293C84.2724 140.675 84.9472 141.899 85.5674 142.702C86.1738 143.508 86.6466 143.929 86.6201 143.954L86.6211 143.958Z" fill="#00657C"/>
<path id="Vector_57" d="M92.3271 144.893C92.3159 144.947 91.2511 144.75 89.9229 144.675C88.5937 144.596 87.5139 144.673 87.5094 144.615C87.5063 144.589 87.7753 144.543 88.2128 144.503C88.6513 144.466 89.2619 144.449 89.9316 144.487C90.6014 144.525 91.2069 144.613 91.6371 144.697C92.0683 144.785 92.33 144.862 92.3262 144.889L92.3271 144.893Z" fill="#00657C"/>
<g id="Group_8" opacity="0.3">
<path id="Vector_58" d="M62.1506 109.593C62.3239 111.83 63.0985 114.016 64.3806 115.858C64.3806 115.858 52.4194 123.539 46.8926 127.998C45.4249 126.595 44.4634 124.677 44.217 122.663L62.1506 109.593Z" fill="white"/>
</g>
<path id="Vector_59" d="M67.0734 94.2626C67.0734 94.2626 67.041 94.2935 66.9709 94.3495C66.8947 94.4107 66.7903 94.4907 66.662 94.5919C66.3943 94.8084 66.0117 95.1485 65.5762 95.636C64.7131 96.6127 63.704 98.2988 63.2869 100.614C62.8435 102.913 62.9455 105.766 63.7234 108.762C64.4851 111.766 65.9218 114.91 67.9373 117.864C69.9658 120.812 72.3848 123.284 74.9139 125.079C77.4285 126.888 80.0548 128.012 82.3601 128.427C84.6695 128.871 86.6108 128.54 87.8306 128.089C88.4434 127.861 88.8991 127.627 89.1971 127.454C89.3404 127.367 89.453 127.304 89.5353 127.252C89.6127 127.209 89.6513 127.187 89.6557 127.19C89.6601 127.192 89.6189 127.218 89.5478 127.271C89.4664 127.326 89.3557 127.397 89.2177 127.489C88.9225 127.673 88.4705 127.92 87.857 128.16C86.6325 128.634 84.676 128.991 82.3365 128.56C80.0044 128.156 77.353 127.034 74.8114 125.221C72.2623 123.421 69.8213 120.936 67.7804 117.97C65.7524 114.996 64.3136 111.83 63.5532 108.804C62.7757 105.782 62.6854 102.904 63.1502 100.588C63.5922 98.2549 64.6314 96.557 65.5155 95.5895C65.9623 95.1026 66.3546 94.771 66.632 94.563C66.7691 94.4668 66.8744 94.3903 66.9558 94.335C67.0279 94.286 67.069 94.2601 67.07 94.2635L67.0734 94.2626Z" fill="#00657C"/>
<path id="Vector_60" d="M84.929 131.358C84.929 131.358 84.8109 131.401 84.5905 131.45C84.3701 131.498 84.0508 131.551 83.6544 131.606C82.858 131.717 81.7508 131.815 80.5256 131.82C79.2994 131.821 78.1896 131.732 77.3937 131.624C76.9944 131.573 76.6758 131.518 76.4564 131.473C76.2369 131.429 76.114 131.399 76.1181 131.387C76.1219 131.36 76.6125 131.42 77.4104 131.494C78.2049 131.568 79.3091 131.637 80.5274 131.634C81.7457 131.632 82.8472 131.553 83.6416 131.476C84.4359 131.399 84.9294 131.332 84.9334 131.361L84.929 131.358Z" fill="#00657C"/>
<path id="Vector_61" d="M74.6746 131.572C74.7074 131.611 71.7691 133.962 68.1155 136.82C64.4584 139.679 61.473 141.964 61.4401 141.925C61.4073 141.886 64.3456 139.535 68.0027 136.676C71.6563 133.818 74.6452 131.532 74.679 131.575L74.6746 131.572Z" fill="#00657C"/>
<path id="Vector_62" d="M91.0284 56.5484C91.0284 56.5484 91.0204 56.5875 90.9932 56.6652C90.9644 56.7507 90.9239 56.8616 90.876 57.0003C90.7653 57.3041 90.6073 57.7354 90.4064 58.2819C89.9909 59.3933 89.3821 60.9973 88.6021 62.9696C87.8221 64.9418 86.8753 67.2848 85.7765 69.8612C85.2236 71.1503 84.6354 72.5008 83.9975 73.8869C83.6812 74.5829 83.3477 75.2836 83.0056 75.994C82.6636 76.7044 82.2745 77.4052 81.9013 78.124C80.3063 80.9489 78.5246 83.4799 76.8348 85.7196C75.1407 87.9568 73.5236 89.9029 72.1365 91.5058C70.7502 93.1122 69.5815 94.3711 68.7693 95.2342C68.3632 95.6657 68.0412 95.9968 67.823 96.2185C67.7182 96.3245 67.6364 96.4058 67.5716 96.4677C67.5127 96.5242 67.4828 96.5508 67.4819 96.5474C67.4819 96.5474 67.5065 96.5148 67.56 96.4523C67.6195 96.3844 67.7004 96.2997 67.7999 96.1877C68.0169 95.9478 68.3267 95.6126 68.7215 95.1804C69.5187 94.3029 70.6689 93.0305 72.0411 91.4131C73.4142 89.7992 75.0189 87.8489 76.7009 85.6076C78.3794 83.3673 80.1507 80.8391 81.7416 78.0263C82.1113 77.3085 82.5023 76.6146 82.8409 75.9051C83.1839 75.1982 83.5174 74.4975 83.8346 73.8049C84.4734 72.4223 85.066 71.0743 85.6233 69.7877C86.7299 67.2129 87.6899 64.8775 88.4865 62.9119C89.2693 60.95 89.9044 59.3611 90.345 58.2466C90.5616 57.7033 90.7283 57.2771 90.8479 56.9783C90.9035 56.8412 90.9484 56.7328 90.9816 56.6498C91.0133 56.5747 91.03 56.5405 91.0334 56.5396L91.0284 56.5484Z" fill="#00657C"/>
<path id="Vector_63" d="M86.9949 126.282C86.9949 126.282 87.0276 126.266 87.0992 126.243C87.1787 126.222 87.2813 126.19 87.4082 126.152C87.6949 126.075 88.0938 125.96 88.6031 125.815C89.6557 125.528 91.1565 125.116 93.0052 124.606C96.7392 123.6 101.872 122.216 107.548 120.69C113.241 119.155 118.566 118.552 122.402 118.24C124.325 118.088 125.884 118.016 126.96 117.981C127.5 117.962 127.916 117.953 128.201 117.95C128.333 117.948 128.441 117.948 128.522 117.949C128.596 117.947 128.634 117.952 128.632 117.956C128.632 117.956 128.594 117.966 128.521 117.971C128.437 117.975 128.332 117.985 128.2 117.991C127.905 118.008 127.489 118.031 126.962 118.058C125.886 118.119 124.331 118.205 122.413 118.378C118.583 118.725 113.273 119.343 107.595 120.877C101.918 122.385 96.7757 123.749 93.0405 124.738C91.1844 125.219 89.679 125.614 88.6227 125.888C88.1096 126.019 87.707 126.12 87.4185 126.19C87.2897 126.221 87.1852 126.246 87.1048 126.264C87.0357 126.282 86.9958 126.286 86.9949 126.282Z" fill="#00657C"/>
</g>
<path id="Vector_64" opacity="0.3" d="M141.843 67.8474L90.6226 57.4208L88.9229 61.9878C90.2191 71.6068 94.6155 83.0219 101.848 94.0462C108.83 104.687 117.196 113.055 125.241 118.145L134.854 117.904L141.839 67.8484L141.843 67.8474Z" fill="#1C1C1C"/>
<g id="Group_9">
<path id="Vector_65" d="M149.943 120.26C160.987 113.025 158.005 88.9653 143.283 66.5217C128.561 44.0782 107.673 31.7496 96.6286 38.985C85.5844 46.2205 88.5662 70.28 103.289 92.7236C118.011 115.167 138.899 127.496 149.943 120.26Z" fill="#FF5740"/>
<path id="Vector_66" d="M145.96 113.047C153.349 108.206 149.508 89.2968 137.383 70.8115C125.257 52.3262 109.437 41.2649 102.048 46.1055C94.6596 50.9461 98.4999 69.8554 110.626 88.3408C122.752 106.826 138.571 117.887 145.96 113.047Z" fill="#E0E0E0"/>
<path id="Vector_67" opacity="0.3" d="M141.169 68.9101C128.695 49.893 111.977 38.8012 103.831 44.14C102.879 44.7628 102.092 45.582 101.455 46.5719C101.654 46.4034 101.861 46.2479 102.079 46.1077C109.466 41.266 125.287 52.3293 137.414 70.8145C149.538 89.3007 153.379 108.209 145.987 113.049C144.879 113.777 143.577 114.142 142.127 114.178C144.771 114.598 147.117 114.243 149.004 113.009C157.15 107.67 153.643 87.9273 141.169 68.9101Z" fill="#1C1C1C"/>
<path id="Vector_68" d="M106.143 81.2506L126.027 70.9893L133.004 81.6273L116.562 96.9462C116.562 96.9462 107.911 86.4338 106.139 81.2515L106.143 81.2506Z" fill="#FF5740"/>
<path id="Vector_69" opacity="0.2" d="M111.692 78.3889C111.397 78.6129 109.347 86.5392 113.096 89.7521C116.844 92.965 120.147 93.6146 120.147 93.6146L116.806 96.7807L109.808 87.0699L106.147 81.2534L111.697 78.3914L111.692 78.3889Z" fill="#1C1C1C"/>
<path id="Vector_70" d="M132.207 74.5463C134.132 77.4845 134.491 80.6563 133.004 81.6273C131.518 82.6017 128.75 81.0083 126.824 78.0702C124.898 75.1321 124.54 71.9602 126.027 70.9893C127.513 70.0149 130.281 71.6082 132.207 74.5463Z" fill="#FF5740"/>
<path id="Vector_71" d="M132.207 74.5464C132.207 74.5464 132.133 74.4662 132.014 74.2985C131.895 74.1308 131.711 73.8914 131.466 73.5873C131.215 73.2885 130.9 72.9293 130.498 72.5527C130.103 72.1708 129.606 71.7716 129.014 71.4167C128.424 71.0722 127.696 70.7467 126.896 70.7919C126.503 70.8166 126.101 70.9766 125.812 71.2768C125.519 71.5779 125.338 71.9931 125.264 72.4349C125.109 73.3282 125.267 74.2998 125.564 75.2489C125.87 76.1952 126.33 77.13 126.907 78.0184C127.493 78.9006 128.167 79.6961 128.914 80.3533C129.664 81.0027 130.496 81.5334 131.376 81.7477C131.813 81.8558 132.269 81.8551 132.659 81.7091C133.053 81.5622 133.357 81.2583 133.537 80.9099C133.896 80.1949 133.892 79.3964 133.809 78.7191C133.721 78.0323 133.553 77.4224 133.358 76.905C133.169 76.3856 132.967 75.9516 132.792 75.6063C132.614 75.2619 132.468 74.9941 132.358 74.8201C132.254 74.6408 132.203 74.5473 132.209 74.542C132.216 74.5401 132.277 74.6274 132.39 74.8005C132.509 74.9682 132.665 75.2297 132.854 75.5748C133.04 75.9207 133.253 76.352 133.452 76.872C133.655 77.391 133.836 78.005 133.935 78.7037C134.025 79.394 134.049 80.2128 133.667 80.982C133.476 81.3593 133.142 81.701 132.712 81.8651C132.283 82.0326 131.793 82.0278 131.334 81.9184C130.407 81.6981 129.556 81.1538 128.789 80.4943C128.027 79.8227 127.343 79.0187 126.746 78.1246C126.162 77.2233 125.696 76.2756 125.387 75.3077C125.089 74.3404 124.928 73.3437 125.094 72.4069C125.177 71.9441 125.37 71.4922 125.693 71.1646C126.015 70.8334 126.461 70.6613 126.885 70.6395C127.742 70.6011 128.486 70.9445 129.084 71.3053C129.684 71.6765 130.179 72.0835 130.572 72.4811C130.973 72.869 131.28 73.2379 131.526 73.5455C131.765 73.8583 131.939 74.1039 132.05 74.2814C132.163 74.4544 132.218 74.547 132.214 74.5479L132.207 74.5464Z" fill="#00657C"/>
<path id="Vector_72" opacity="0.3" d="M131.563 79.3218C132.415 78.7631 132.211 76.9454 131.107 75.2618C130.002 73.5781 128.416 72.6661 127.563 73.2248C126.71 73.7834 126.914 75.6012 128.019 77.2848C129.123 78.9685 130.71 79.8804 131.563 79.3218Z" fill="#1C1C1C"/>
<path id="Vector_73" d="M102.049 46.1073C102.049 46.1073 101.989 46.1605 101.864 46.2573C101.743 46.3601 101.547 46.4869 101.321 46.6922C100.873 47.1055 100.25 47.7768 99.709 48.8074C98.6015 50.8568 98.0383 54.3068 98.5184 58.4379C98.738 60.5034 99.1692 62.7488 99.8089 65.1082C100.452 67.4667 101.298 69.9446 102.326 72.4954C104.384 77.5969 107.226 82.9717 110.697 88.288C114.19 93.5909 117.989 98.3375 121.852 102.26C123.782 104.224 125.72 105.985 127.626 107.518C129.539 109.046 131.425 110.336 133.232 111.363C136.829 113.451 140.218 114.311 142.543 114.113C143.703 114.03 144.57 113.729 145.125 113.48C145.404 113.357 145.602 113.226 145.742 113.155C145.881 113.08 145.953 113.046 145.953 113.046C145.953 113.046 145.688 113.228 145.142 113.512C144.586 113.773 143.718 114.085 142.547 114.182C141.381 114.282 139.935 114.142 138.336 113.693C136.734 113.251 134.983 112.501 133.165 111.474C131.344 110.451 129.448 109.163 127.528 107.633C125.611 106.103 123.665 104.34 121.727 102.375C117.849 98.4494 114.041 93.6977 110.54 88.3819C107.063 83.0562 104.222 77.6701 102.168 72.5529C101.137 69.9953 100.297 67.5087 99.6585 65.1414C99.0238 62.7732 98.6012 60.5181 98.3866 58.4438C98.1676 56.367 98.1774 54.4654 98.4123 52.8215C98.6359 51.177 99.0865 49.797 99.6423 48.7661C100.197 47.7319 100.832 47.0611 101.293 46.6555C101.771 46.2712 102.046 46.097 102.046 46.097L102.049 46.1073Z" fill="#00657C"/>
<path id="Vector_74" opacity="0.2" d="M113.379 92.3296L128.728 80.3223C128.728 80.3223 130.687 82.2445 132.427 81.868L116.801 96.7781L113.378 92.3262L113.379 92.3296Z" fill="#1C1C1C"/>
<path id="Vector_75" opacity="0.3" d="M93.9801 66.1101C93.9801 66.1101 94.1559 70.4046 95.489 71.7073L98.7083 70.8394L97.1994 65.2422L93.9801 66.1101Z" fill="white"/>
<g id="Group_10" opacity="0.3">
<path id="Vector_76" d="M101.651 37.098C99.1602 38.2766 97.0371 40.1186 95.4536 42.5739C91.3488 48.5 91.2855 56.9382 93.1791 63.7977C94.171 63.2712 95.6154 62.5264 96.6921 62.8506C96.0269 59.3247 95.4039 55.7355 95.7714 52.1643C96.1388 48.5931 97.6278 44.9898 100.489 42.8194C102.817 41.0516 105.837 40.393 108.761 40.4375C115.339 40.5373 121.284 43.8542 126.819 47.5629C117.863 39.9494 108.704 36.0037 101.655 37.097L101.651 37.098Z" fill="white"/>
</g>
<path id="Vector_77" d="M154.37 106.676C154.37 106.676 154.366 106.769 154.338 106.94C154.306 107.111 154.28 107.37 154.2 107.695C154.065 108.346 153.801 109.28 153.322 110.375C152.846 111.469 152.126 112.715 151.079 113.904C150.548 114.488 149.954 115.077 149.257 115.583C148.561 116.093 147.785 116.543 146.939 116.893C145.226 117.577 143.414 117.617 141.864 117.351C140.3 117.102 138.953 116.614 137.851 116.17C136.751 115.716 135.884 115.291 135.294 114.987C134.998 114.837 134.772 114.713 134.616 114.629C134.464 114.544 134.385 114.499 134.386 114.491C134.389 114.487 134.476 114.523 134.633 114.595C134.807 114.678 135.036 114.786 135.325 114.923C135.924 115.206 136.797 115.614 137.9 116.05C139.002 116.479 140.344 116.95 141.889 117.184C143.421 117.438 145.198 117.392 146.871 116.723C147.701 116.38 148.464 115.938 149.151 115.438C149.84 114.941 150.429 114.364 150.953 113.793C151.991 112.625 152.718 111.404 153.205 110.325C153.692 109.246 153.978 108.329 154.131 107.684C154.222 107.363 154.257 107.11 154.301 106.942C154.341 106.773 154.364 106.681 154.369 106.684L154.37 106.676Z" fill="white"/>
<g id="Group_11" opacity="0.3">
<path id="Vector_78" d="M124.025 101.075C115.647 91.2291 108.858 80.037 103.998 68.0583C102.385 64.0808 100.972 59.9792 100.478 55.7148C100.134 52.7498 100.26 49.6843 101.04 46.8164C94.8222 52.5347 98.8254 70.6557 110.457 88.3898C122.581 106.876 138.401 117.936 145.793 113.097C146.051 112.927 146.293 112.74 146.52 112.538C142.357 113.449 137.89 112.343 134.18 110.208C130.215 107.927 126.992 104.561 124.026 101.078L124.025 101.075Z" fill="#1C1C1C"/>
</g>
</g>
</g>
</g>
<g id="Bolts">
<path id="Vector_79" d="M145.108 67.5892L165.304 58.0469L160.785 54.283L171.098 46.25L153.159 53.4848L157.893 57.6722L145.108 67.5892Z" fill="#FF5740"/>
<path id="Vector_80" d="M139.466 54.4516L150.038 40.0524L144.194 39.2107L146.58 29.4392L138.101 41.5973L143.221 42.5157L139.466 54.4516Z" fill="#FF5740"/>
<path id="Vector_81" d="M153.286 77.666L169.71 84.7654L168.974 80.6329L178.96 81.898L164.79 75.668L165.58 80.0414L153.286 77.666Z" fill="#FF5740"/>
</g>
</g>
<defs>
<clipPath id="clip0_4202_4532">
<rect width="171.143" height="166.171" fill="white" transform="translate(0 44.5459) rotate(-15.087)"/>
</clipPath>
</defs>
</svg>
